<svg width="30" height="31" viewBox="0 0 30 31" fill="none" xmlns="http://www.w3.org/2000/svg">
<path d="M0.537293 27.636C-0.216022 28.4438 -0.171828 29.7094 0.636003 30.4627C1.44383 31.216 2.70939 31.1718 3.46271 30.364L0.537293 27.636ZM28.5507 2.60147C28.5122 1.49757 27.586 0.633936 26.4821 0.672484L8.49311 1.30068C7.38921 1.33923 6.52557 2.26536 6.56412 3.36926C6.60267 4.47315 7.52881 5.33679 8.6327 5.29824L24.623 4.73985L25.1813 20.7301C25.2199 21.834 26.146 22.6976 27.2499 22.6591C28.3538 22.6205 29.2175 21.6944 29.1789 20.5905L28.5507 2.60147ZM3.46271 30.364L28.0146 4.03526L25.0892 1.30727L0.537293 27.636L3.46271 30.364Z" fill="white"/>
</svg>
