<svg width="394" height="339" viewBox="0 0 394 339" fill="none" xmlns="http://www.w3.org/2000/svg">
<path d="M202 169.5L109.575 62.1242C103.496 55.0618 94.6407 51 85.3224 51H51.5M202 169.5L294.425 276.876C300.504 283.938 309.359 288 318.678 288H342.5M202 169.5L294.425 62.1242C300.504 55.0618 309.359 51 318.678 51H342.5M202 169.5L109.575 276.876C103.496 283.938 94.6407 288 85.3224 288H51.5" stroke="#FFF500" stroke-width="102" stroke-linecap="square" stroke-linejoin="round"/>
<mask id="mask0_854_4438" style="mask-type:alpha" maskUnits="userSpaceOnUse" x="49" y="-1" width="306" height="341">
<path d="M100 51L202 169.5M304 288L202 169.5M202 169.5L304 51M202 169.5L100 288" stroke="#08A7CE" stroke-width="102" stroke-linecap="round" stroke-linejoin="round"/>
</mask>
<g mask="url(#mask0_854_4438)">
<path d="M114.609 203.539V235.18H47.2266V203.344L56.0156 203.539V142.406H40V117.211L104.648 101L105.234 203.539H114.609Z" fill="white"/>
<path d="M179.121 237.816C160.046 237.816 145.169 231.632 134.492 219.262C123.815 206.827 118.477 189.542 118.477 167.406C118.477 146.443 123.783 130.134 134.395 118.48C145.007 106.827 159.818 101 178.828 101C197.904 101 212.747 106.827 223.359 118.48C233.971 130.134 239.277 146.443 239.277 167.406C239.277 182.12 236.901 194.717 232.148 205.199C227.396 215.746 220.495 223.819 211.445 229.418C202.396 235.017 191.621 237.816 179.121 237.816ZM191.523 170.141C191.523 162.068 191.165 155.622 190.449 150.805C189.668 146.182 188.366 142.895 186.543 140.941C184.785 138.988 182.311 138.012 179.121 138.012C175.736 138.012 173.099 138.988 171.211 140.941C168.997 143.155 167.533 146.866 166.816 152.074C166.165 157.217 165.84 163.174 165.84 169.945C165.84 178.148 166.263 184.366 167.109 188.598C167.891 193.09 169.193 196.312 171.016 198.266C172.904 200.219 175.443 201.195 178.633 201.195C182.018 201.195 184.622 200.219 186.445 198.266C188.464 196.052 189.798 192.439 190.449 187.426C191.165 182.413 191.523 176.651 191.523 170.141Z" fill="white"/>
<path d="M304.082 237.816C285.007 237.816 270.13 231.632 259.453 219.262C248.776 206.827 243.438 189.542 243.438 167.406C243.438 146.443 248.743 130.134 259.355 118.48C269.967 106.827 284.779 101 303.789 101C322.865 101 337.708 106.827 348.32 118.48C358.932 130.134 364.238 146.443 364.238 167.406C364.238 182.12 361.862 194.717 357.109 205.199C352.357 215.746 345.456 223.819 336.406 229.418C327.357 235.017 316.582 237.816 304.082 237.816ZM316.484 170.141C316.484 162.068 316.126 155.622 315.41 150.805C314.629 146.182 313.327 142.895 311.504 140.941C309.746 138.988 307.272 138.012 304.082 138.012C300.697 138.012 298.06 138.988 296.172 140.941C293.958 143.155 292.493 146.866 291.777 152.074C291.126 157.217 290.801 163.174 290.801 169.945C290.801 178.148 291.224 184.366 292.07 188.598C292.852 193.09 294.154 196.312 295.977 198.266C297.865 200.219 300.404 201.195 303.594 201.195C306.979 201.195 309.583 200.219 311.406 198.266C313.424 196.052 314.759 192.439 315.41 187.426C316.126 182.413 316.484 176.651 316.484 170.141Z" fill="white"/>
</g>
<path d="M116.109 203.539V202.039H114.609H106.726L106.148 100.991L106.137 99.0802L104.284 99.545L39.6352 115.756L38.5 116.041V117.211V142.406V143.906H40H54.5156V202.005L47.2599 201.844L45.7266 201.81V203.344V235.18V236.68H47.2266H114.609H116.109V235.18V203.539ZM133.354 220.239L133.357 220.242C144.368 232.998 159.69 239.316 179.121 239.316C191.851 239.316 202.909 236.463 212.235 230.694C221.56 224.924 228.651 216.611 233.515 205.817C238.377 195.095 240.777 182.275 240.777 167.406C240.777 146.195 235.405 129.481 224.468 117.471C213.513 105.44 198.23 99.5 178.828 99.5C159.49 99.5 144.24 105.441 133.285 117.471C122.348 129.481 116.977 146.195 116.977 167.406C116.977 189.774 122.373 207.449 133.354 220.239ZM185.428 141.945L185.437 141.955L185.446 141.965C186.966 143.593 188.203 146.524 188.968 151.04C189.667 155.751 190.023 162.108 190.023 170.141C190.023 176.599 189.668 182.287 188.964 187.214L188.963 187.223L188.962 187.233C188.327 192.123 187.052 195.37 185.343 197.248C183.875 198.817 181.716 199.695 178.633 199.695C175.778 199.695 173.658 198.836 172.103 197.232C170.579 195.593 169.348 192.717 168.587 188.341L168.584 188.322L168.58 188.303C167.763 184.22 167.34 178.121 167.34 169.945C167.34 163.223 167.663 157.334 168.304 152.271C169.003 147.191 170.401 143.873 172.272 142.002L172.281 141.993L172.289 141.984C173.829 140.392 176.036 139.512 179.121 139.512C181.985 139.512 184.015 140.374 185.428 141.945ZM258.315 220.239L258.318 220.242C269.328 232.998 284.651 239.316 304.082 239.316C316.811 239.316 327.87 236.463 337.195 230.694C346.521 224.924 353.612 216.611 358.476 205.817C363.337 195.095 365.738 182.275 365.738 167.406C365.738 146.195 360.366 129.481 349.429 117.471C338.474 105.44 323.191 99.5 303.789 99.5C284.451 99.5 269.201 105.441 258.246 117.471C247.309 129.481 241.938 146.195 241.938 167.406C241.938 189.774 247.334 207.449 258.315 220.239ZM310.389 141.945L310.398 141.955L310.407 141.965C311.927 143.593 313.164 146.524 313.929 151.04C314.628 155.752 314.984 162.109 314.984 170.141C314.984 176.599 314.629 182.287 313.925 187.214L313.924 187.223L313.923 187.233C313.288 192.123 312.013 195.369 310.304 197.248C308.837 198.817 306.678 199.695 303.594 199.695C300.739 199.695 298.619 198.836 297.064 197.232C295.54 195.593 294.309 192.717 293.548 188.341L293.545 188.322L293.541 188.303C292.724 184.22 292.301 178.121 292.301 169.945C292.301 163.223 292.624 157.334 293.264 152.271C293.964 147.191 295.362 143.873 297.233 142.002L297.242 141.993L297.25 141.984C298.789 140.392 300.997 139.512 304.082 139.512C306.946 139.512 308.976 140.374 310.389 141.945Z" stroke="white" stroke-width="3"/>
</svg>
