<svg width="42" height="331" viewBox="0 0 42 331" fill="none" xmlns="http://www.w3.org/2000/svg">
<path d="M42 306C42 319.807 30.8071 331 17 331H0L0 0H17C30.8071 0 42 11.1929 42 25L42 306Z" fill="#A35DFF"/>
<path d="M29 249.32L12.2 249.32L12.2 240.728C12.2 238.52 12.608 236.872 13.424 235.784C14.224 234.696 15.28 234.152 16.592 234.152C17.456 234.152 18.216 234.384 18.872 234.848C19.512 235.296 20.024 235.936 20.408 236.768C20.776 237.584 20.96 238.56 20.96 239.696L19.808 239.216C19.808 238.032 19.992 237 20.36 236.12C20.712 235.24 21.232 234.56 21.92 234.08C22.592 233.584 23.416 233.336 24.392 233.336C25.848 233.336 26.984 233.928 27.8 235.112C28.6 236.28 29 237.992 29 240.248L29 249.32ZM25.568 244.616L25.568 240.632C25.568 239.816 25.432 239.2 25.16 238.784C24.872 238.352 24.44 238.136 23.864 238.136C23.288 238.136 22.864 238.352 22.592 238.784C22.304 239.2 22.16 239.816 22.16 240.632L22.16 244.952L18.872 244.952L18.872 241.352C18.872 240.552 18.736 239.952 18.464 239.552C18.192 239.152 17.784 238.952 17.24 238.952C16.696 238.952 16.296 239.152 16.04 239.552C15.768 239.952 15.632 240.552 15.632 241.352L15.632 244.616L25.568 244.616ZM29 200.491L12.2 193.075L12.2 188.395L29 180.955L29 185.899L14.528 191.707L14.528 189.835L29 195.643L29 200.491ZM25.736 196.435L22.232 195.211L22.232 187.003L25.736 185.779L25.736 196.435ZM29.336 139.066C29.336 140.394 29.128 141.626 28.712 142.762C28.28 143.882 27.672 144.858 26.888 145.69C26.104 146.506 25.184 147.146 24.128 147.61C23.056 148.074 21.88 148.306 20.6 148.306C19.32 148.306 18.152 148.074 17.096 147.61C16.024 147.146 15.096 146.506 14.312 145.69C13.528 144.858 12.928 143.882 12.512 142.762C12.08 141.626 11.864 140.394 11.864 139.066C11.864 137.514 12.136 136.13 12.68 134.914C13.224 133.682 14.008 132.658 15.032 131.842L17.768 134.866C17.128 135.41 16.64 136.01 16.304 136.666C15.968 137.306 15.8 138.026 15.8 138.826C15.8 139.514 15.912 140.146 16.136 140.722C16.36 141.298 16.688 141.794 17.12 142.21C17.536 142.61 18.04 142.93 18.632 143.17C19.224 143.394 19.88 143.506 20.6 143.506C21.32 143.506 21.976 143.394 22.568 143.17C23.16 142.93 23.672 142.61 24.104 142.21C24.52 141.794 24.84 141.298 25.064 140.722C25.288 140.146 25.4 139.514 25.4 138.826C25.4 138.026 25.232 137.306 24.896 136.666C24.56 136.01 24.072 135.41 23.432 134.866L26.168 131.842C27.176 132.658 27.96 133.682 28.52 134.914C29.064 136.13 29.336 137.514 29.336 139.066ZM25.28 93.0751L19.952 93.3391L12.2 86.1151L12.2 80.8831L20 88.0831L22.76 90.7231L25.28 93.0751ZM29 97.3231L12.2 97.3231L12.2 92.6191L29 92.6191L29 97.3231ZM29 86.0431L22.064 91.5151L18.752 88.4191L29 80.5231L29 86.0431Z" fill="white"/>
</svg>
