<svg width="426" height="105" viewBox="0 0 426 105" fill="none" xmlns="http://www.w3.org/2000/svg">
<path d="M36.0352 1H48.0469C72.0703 1 84.082 10.7656 84.082 30.2969C84.082 40.0625 81.0791 47.3867 75.0732 52.2695C81.0791 57.1523 84.082 64.4766 84.082 74.2422C84.082 93.7734 72.0703 103.539 48.0469 103.539H36.0352C12.0117 103.539 0 93.7734 0 74.2422V30.2969C0 10.7656 12.0117 1 36.0352 1ZM48.0469 59.5938H18.0176V74.2422C18.0176 84.0078 24.0234 88.8906 36.0352 88.8906H48.0469C60.0586 88.8906 66.0645 84.0078 66.0645 74.2422C66.0645 64.4766 60.0586 59.5938 48.0469 59.5938ZM18.0176 44.9453H48.0469C60.0586 44.9453 66.0645 40.0625 66.0645 30.2969C66.0645 20.5312 60.0586 15.6484 48.0469 15.6484H36.0352C24.0234 15.6484 18.0176 20.5312 18.0176 30.2969V44.9453Z" fill="white"/>
<path d="M138.809 103.539H120.791V1H138.809V103.539Z" fill="white"/>
<path d="M225.469 1C249.492 1 261.504 10.7656 261.504 30.2969H243.486C243.486 20.5312 237.48 15.6484 225.469 15.6484H213.457C201.445 15.6484 195.439 20.5312 195.439 30.2969V74.2422C195.439 84.0078 201.445 88.8906 213.457 88.8906H225.469C237.48 88.8906 243.486 84.0078 243.486 74.2422V59.5938H213.457V44.9453H261.504V74.2422C261.504 93.7734 249.492 103.539 225.469 103.539H213.457C189.434 103.539 177.422 93.7734 177.422 74.2422V30.2969C177.422 10.7656 189.434 1 213.457 1H225.469Z" fill="white"/>
<path d="M286.098 13.9219V23.8008H291.529C293.732 23.8008 295.385 23.3965 296.486 22.5879C297.588 21.7676 298.139 20.4961 298.139 18.7734C298.139 16.9805 297.541 15.7266 296.346 15.0117C295.162 14.2852 293.311 13.9219 290.791 13.9219H286.098ZM286.098 11.4785H291.67C293.486 11.4785 294.857 11.1621 295.783 10.5293C296.709 9.89648 297.172 8.77148 297.172 7.1543C297.172 5.52539 296.615 4.40625 295.502 3.79688C294.4 3.17578 292.684 2.86523 290.352 2.86523H286.098V11.4785ZM283.057 0.298828H290.51C293.85 0.298828 296.322 0.808594 297.928 1.82812C299.545 2.84766 300.354 4.4707 300.354 6.69727C300.354 7.02539 300.33 7.35352 300.283 7.68164C300.248 7.99805 300.143 8.4082 299.967 8.91211C299.803 9.41602 299.574 9.87891 299.281 10.3008C298.988 10.7109 298.555 11.127 297.98 11.5488C297.418 11.959 296.756 12.2871 295.994 12.5332C297.74 12.8613 299.064 13.5996 299.967 14.748C300.869 15.8965 301.32 17.2793 301.32 18.8965C301.32 21.252 300.547 23.0742 299 24.3633C297.465 25.6523 295.174 26.2969 292.127 26.2969H283.057V0.298828Z" fill="white"/>
<path d="M305.169 19.8633V7.01367H308.122V19.8984C308.122 20.7422 308.24 21.457 308.474 22.043C308.72 22.6289 309.066 23.0859 309.511 23.4141C309.968 23.7305 310.478 23.959 311.04 24.0996C311.615 24.2402 312.271 24.3105 313.009 24.3105C314.533 24.3105 315.716 23.9766 316.56 23.3086C317.415 22.6406 317.843 21.5039 317.843 19.8984V7.01367H320.796V19.8633C320.796 20.8477 320.656 21.7324 320.374 22.5176C320.093 23.3027 319.712 23.959 319.232 24.4863C318.763 25.002 318.195 25.4297 317.527 25.7695C316.859 26.1094 316.15 26.3555 315.4 26.5078C314.661 26.6602 313.865 26.7363 313.009 26.7363C312.165 26.7363 311.368 26.6602 310.618 26.5078C309.868 26.3555 309.154 26.1094 308.474 25.7695C307.806 25.418 307.226 24.9844 306.734 24.4688C306.253 23.9414 305.872 23.2852 305.591 22.5C305.31 21.7148 305.169 20.8359 305.169 19.8633Z" fill="white"/>
<path d="M331.641 26.7012C330.329 26.7012 329.116 26.5605 328.002 26.2793C326.901 25.998 326.004 25.6348 325.313 25.1895L325.682 22.7109C327.639 23.7539 329.561 24.2754 331.448 24.2754C334.307 24.2754 335.778 23.2676 335.86 21.252C335.86 20.3965 335.555 19.7227 334.946 19.2305C334.336 18.7383 333.141 18.1875 331.36 17.5781L329.901 17.0684C328.213 16.5059 327.006 15.8086 326.28 14.9766C325.565 14.1445 325.202 13.1074 325.19 11.8652C325.19 10.3535 325.794 9.09961 327.001 8.10352C328.219 7.10742 329.883 6.60938 331.993 6.60938C334.172 6.60938 336.159 7.03125 337.952 7.875L337.09 10.125C335.274 9.375 333.575 9 331.993 9C330.762 9 329.795 9.24609 329.092 9.73828C328.401 10.2188 328.055 10.8984 328.055 11.7773C328.055 12.5273 328.307 13.1016 328.811 13.5C329.315 13.8984 330.323 14.3555 331.835 14.8711C332.221 15.0117 332.708 15.1758 333.294 15.3633C335.239 15.9961 336.616 16.7461 337.424 17.6133C338.233 18.4688 338.637 19.6289 338.637 21.0938C338.614 22.875 337.975 24.2578 336.721 25.2422C335.467 26.2148 333.774 26.7012 331.641 26.7012Z" fill="white"/>
<path d="M346.846 7.01367V26.2969H343.892V7.01367H346.846ZM346.846 0V3.48047H343.892V0H346.846Z" fill="white"/>
<path d="M353.103 26.2969V7.01367H355.564L355.933 9.77344C356.694 8.82422 357.644 8.0625 358.78 7.48828C359.929 6.90234 361.165 6.60938 362.489 6.60938C364.716 6.60938 366.362 7.23633 367.429 8.49023C368.495 9.73242 369.028 11.6484 369.028 14.2383V26.2969H366.093C366.093 18.5625 366.087 14.4199 366.075 13.8691C366.028 12.2285 365.694 11.0273 365.073 10.2656C364.464 9.50391 363.439 9.12305 361.997 9.12305C360.485 9.12305 359.226 9.48633 358.218 10.2129C357.21 10.9395 356.554 11.8828 356.249 13.043C356.132 13.8281 356.073 14.7305 356.073 15.75V26.2969H353.103Z" fill="white"/>
<path d="M385.745 10.582C384.889 9.55078 383.711 9.03516 382.211 9.03516C380.711 9.03516 379.487 9.56836 378.537 10.6348C377.588 11.6895 377.032 13.1367 376.868 14.9766H387.045C387.045 13.0664 386.612 11.6016 385.745 10.582ZM382.791 26.7012C379.991 26.7012 377.782 25.8105 376.164 24.0293C374.559 22.248 373.756 19.8105 373.756 16.7168C373.756 13.7285 374.536 11.3086 376.094 9.45703C377.653 7.59375 379.704 6.64453 382.246 6.60938C384.637 6.60938 386.53 7.42969 387.924 9.07031C389.33 10.6992 390.034 12.8789 390.034 15.6094C390.034 15.75 390.028 16.0078 390.016 16.3828C390.016 16.7578 390.016 17.0273 390.016 17.1914H376.78C376.815 19.3828 377.377 21.0938 378.467 22.3242C379.569 23.543 381.045 24.1523 382.897 24.1523C384.936 24.1523 386.981 23.6133 389.032 22.5352L389.489 24.9082C387.532 26.1035 385.299 26.7012 382.791 26.7012Z" fill="white"/>
<path d="M400.58 26.7012C399.267 26.7012 398.054 26.5605 396.941 26.2793C395.84 25.998 394.943 25.6348 394.252 25.1895L394.621 22.7109C396.578 23.7539 398.5 24.2754 400.386 24.2754C403.246 24.2754 404.716 23.2676 404.799 21.252C404.799 20.3965 404.494 19.7227 403.884 19.2305C403.275 18.7383 402.08 18.1875 400.299 17.5781L398.84 17.0684C397.152 16.5059 395.945 15.8086 395.218 14.9766C394.504 14.1445 394.14 13.1074 394.129 11.8652C394.129 10.3535 394.732 9.09961 395.939 8.10352C397.158 7.10742 398.822 6.60938 400.931 6.60938C403.111 6.60938 405.097 7.03125 406.89 7.875L406.029 10.125C404.213 9.375 402.513 9 400.931 9C399.701 9 398.734 9.24609 398.031 9.73828C397.34 10.2188 396.994 10.8984 396.994 11.7773C396.994 12.5273 397.246 13.1016 397.75 13.5C398.254 13.8984 399.261 14.3555 400.773 14.8711C401.16 15.0117 401.646 15.1758 402.232 15.3633C404.177 15.9961 405.554 16.7461 406.363 17.6133C407.172 18.4688 407.576 19.6289 407.576 21.0938C407.552 22.875 406.914 24.2578 405.66 25.2422C404.406 26.2148 402.713 26.7012 400.58 26.7012Z" fill="white"/>
<path d="M418.069 26.7012C416.757 26.7012 415.544 26.5605 414.431 26.2793C413.329 25.998 412.433 25.6348 411.741 25.1895L412.11 22.7109C414.067 23.7539 415.989 24.2754 417.876 24.2754C420.735 24.2754 422.206 23.2676 422.288 21.252C422.288 20.3965 421.983 19.7227 421.374 19.2305C420.765 18.7383 419.569 18.1875 417.788 17.5781L416.329 17.0684C414.642 16.5059 413.435 15.8086 412.708 14.9766C411.993 14.1445 411.63 13.1074 411.618 11.8652C411.618 10.3535 412.222 9.09961 413.429 8.10352C414.647 7.10742 416.311 6.60938 418.421 6.60938C420.601 6.60938 422.587 7.03125 424.38 7.875L423.519 10.125C421.702 9.375 420.003 9 418.421 9C417.19 9 416.224 9.24609 415.52 9.73828C414.829 10.2188 414.483 10.8984 414.483 11.7773C414.483 12.5273 414.735 13.1016 415.239 13.5C415.743 13.8984 416.751 14.3555 418.263 14.8711C418.649 15.0117 419.136 15.1758 419.722 15.3633C421.667 15.9961 423.044 16.7461 423.852 17.6133C424.661 18.4688 425.065 19.6289 425.065 21.0938C425.042 22.875 424.403 24.2578 423.149 25.2422C421.895 26.2148 420.202 26.7012 418.069 26.7012Z" fill="white"/>
<path d="M286.238 61.2969H283.197V35.2988H286.238V61.2969Z" fill="white"/>
<path d="M317.21 61.2969V51.2598C317.21 50.3223 317.187 49.5371 317.14 48.9043C317.105 48.2715 317.011 47.627 316.859 46.9707C316.718 46.3145 316.513 45.7988 316.243 45.4238C315.986 45.0371 315.622 44.7266 315.154 44.4922C314.685 44.2461 314.122 44.123 313.466 44.123C312.177 44.123 311.075 44.4688 310.161 45.1602C309.259 45.8516 308.615 46.8242 308.228 48.0781C308.122 48.9219 308.07 49.8242 308.07 50.7852V61.2969H305.134V50.9434C305.134 50.0762 305.105 49.3262 305.046 48.6934C304.988 48.0488 304.876 47.4277 304.712 46.8301C304.548 46.2207 304.325 45.7285 304.044 45.3535C303.775 44.9785 303.411 44.6797 302.954 44.457C302.497 44.2344 301.952 44.123 301.32 44.123C299.913 44.123 298.73 44.4805 297.769 45.1953C296.82 45.9102 296.181 46.8594 295.853 48.043C295.747 48.9453 295.695 49.9238 295.695 50.9785V61.2969H292.759C292.736 49.2383 292.724 42.8105 292.724 42.0137H295.185L295.554 44.7734C296.14 43.8828 296.972 43.1328 298.05 42.5234C299.128 41.9141 300.353 41.6094 301.724 41.6094C302.439 41.6094 303.095 41.6855 303.693 41.8379C304.302 41.9785 304.806 42.1602 305.204 42.3828C305.615 42.6055 305.978 42.875 306.294 43.1914C306.611 43.4961 306.857 43.8008 307.033 44.1055C307.208 44.3984 307.355 44.709 307.472 45.0371C308.878 42.752 311.029 41.6094 313.923 41.6094C316.068 41.6094 317.638 42.2246 318.634 43.4551C319.642 44.6738 320.146 46.4844 320.146 48.8867V61.2969H317.21Z" fill="white"/>
<path d="M324.627 69.6641V42.0137H327.211L327.493 44.6328C329.18 42.6172 331.208 41.6094 333.575 41.6094C335.333 41.6094 336.821 42.0488 338.04 42.9277C339.258 43.8066 340.155 44.9961 340.729 46.4961C341.315 47.9961 341.608 49.748 341.608 51.752C341.608 53.6738 341.292 55.3848 340.659 56.8848C340.026 58.373 339.094 59.5508 337.864 60.418C336.645 61.2734 335.215 61.7012 333.575 61.7012C332.333 61.7012 331.167 61.4258 330.077 60.875C328.987 60.3125 328.114 59.5742 327.458 58.6602C327.528 59.9258 327.563 61.1562 327.563 62.3516V69.4707L324.627 69.6641ZM333.17 59.2227C334.061 59.2227 334.858 59.0234 335.561 58.625C336.264 58.2148 336.833 57.6582 337.266 56.9551C337.7 56.252 338.028 55.4551 338.251 54.5645C338.473 53.6621 338.585 52.6895 338.585 51.6465C338.585 49.4434 338.122 47.6387 337.196 46.2324C336.27 44.8145 334.917 44.1055 333.135 44.1055C329.409 44.1055 327.545 46.5137 327.545 51.3301C327.545 53.9434 327.979 55.9121 328.846 57.2363C329.725 58.5605 331.167 59.2227 333.17 59.2227Z" fill="white"/>
<path d="M351.767 59.3281C353.162 59.3281 354.387 58.9473 355.441 58.1855C356.508 57.4121 357.193 56.375 357.498 55.0742V51.8223C357.439 51.8223 357.082 51.8516 356.426 51.9102C355.781 51.9688 355.359 52.0039 355.16 52.0156C352.617 52.2383 350.842 52.6543 349.834 53.2637C348.838 53.873 348.34 54.8516 348.34 56.1992C348.34 57.2305 348.644 58.0098 349.254 58.5371C349.863 59.0645 350.701 59.3281 351.767 59.3281ZM358.148 61.2969C357.973 60.5469 357.803 59.7383 357.639 58.8711C356.572 59.9375 355.57 60.6758 354.633 61.0859C353.695 61.4961 352.594 61.7012 351.328 61.7012C349.523 61.7012 348.07 61.2324 346.969 60.2949C345.879 59.3457 345.334 57.9863 345.334 56.2168C345.334 54.248 346.078 52.7891 347.566 51.8398C349.066 50.8906 351.223 50.2988 354.035 50.0645C354.422 50.0293 355.002 49.9824 355.775 49.9238C356.56 49.8535 357.146 49.8008 357.533 49.7656V48.0605C357.533 46.7012 357.217 45.6934 356.584 45.0371C355.951 44.3809 354.955 44.0527 353.596 44.0527C351.697 44.0527 349.781 44.5215 347.848 45.459C347.789 45.3184 347.637 44.9141 347.39 44.2461C347.144 43.5664 347.015 43.2148 347.004 43.1914C347.859 42.7109 348.873 42.3301 350.045 42.0488C351.228 41.7559 352.43 41.6094 353.648 41.6094C356.051 41.6094 357.779 42.1367 358.834 43.1914C359.9 44.2344 360.433 46.0156 360.433 48.5352V61.2969H358.148Z" fill="white"/>
<path d="M374.372 61.7012C371.536 61.7012 369.316 60.7812 367.71 58.9414C366.116 57.1016 365.319 54.6934 365.319 51.7168C365.331 48.7168 366.146 46.2852 367.763 44.4219C369.392 42.5469 371.618 41.6094 374.442 41.6094C375.439 41.6094 376.4 41.7324 377.325 41.9785C378.263 42.2246 379.001 42.5469 379.54 42.9453L378.732 45.2305C377.36 44.4922 375.913 44.123 374.39 44.123C372.526 44.123 371.05 44.8027 369.96 46.1621C368.882 47.5215 368.343 49.3789 368.343 51.7344C368.343 54.0312 368.876 55.8535 369.942 57.2012C371.021 58.5371 372.509 59.2051 374.407 59.2051C375.919 59.2051 377.466 58.7949 379.048 57.9746L379.417 60.3125C378.14 61.2383 376.458 61.7012 374.372 61.7012Z" fill="white"/>
<path d="M390.104 61.6484C388.205 61.6484 386.858 61.1855 386.061 60.2598C385.264 59.334 384.842 57.8398 384.795 55.7773V44.1934H381.93L382.053 42.2598L384.778 42.0137L385.78 37.6016L387.713 37.5312V42.0137H393.075V44.1934H387.713V55.25C387.713 56.7148 387.936 57.7461 388.381 58.3438C388.827 58.9414 389.588 59.2402 390.666 59.2402C391.053 59.2402 391.891 59.1465 393.18 58.959L393.303 61.2793C391.909 61.5254 390.842 61.6484 390.104 61.6484Z" fill="white"/>
<path d="M294.395 96.6836C292.414 96.6836 290.633 96.3555 289.051 95.6992C287.48 95.0312 286.18 94.1055 285.148 92.9219C284.129 91.7266 283.344 90.3145 282.793 88.6855C282.254 87.0566 281.984 85.2695 281.984 83.3242C281.984 80.6992 282.482 78.3789 283.479 76.3633C284.475 74.3477 285.957 72.7598 287.926 71.5996C289.895 70.4395 292.227 69.8594 294.922 69.8594C297.91 69.8594 300.535 70.5391 302.797 71.8984L301.637 74.4121C299.457 73.1582 297.23 72.5312 294.957 72.5312C293.375 72.5312 291.957 72.8066 290.703 73.3574C289.461 73.8965 288.441 74.6523 287.645 75.625C286.859 76.5859 286.256 77.7227 285.834 79.0352C285.424 80.3359 285.219 81.7656 285.219 83.3242C285.219 86.6289 286.039 89.2422 287.68 91.1641C289.332 93.0742 291.764 94.0293 294.975 94.0293C296.803 94.0293 298.66 93.6602 300.547 92.9219V85.5039H294.412L294.518 82.8496H303.395V94.7324C301.918 95.4355 300.488 95.9395 299.105 96.2441C297.734 96.5371 296.164 96.6836 294.395 96.6836Z" fill="white"/>
<path d="M317.579 76.8379C318.107 76.8379 318.587 76.873 319.021 76.9434L318.915 79.6504C318.376 79.5566 317.908 79.5098 317.509 79.5098C315.868 79.5098 314.533 80.084 313.501 81.2324C312.482 82.3691 311.972 83.7812 311.972 85.4688V96.2969H309.036C309.025 84.4609 309.019 78.0332 309.019 77.0137H311.462L311.743 80.4766C312.411 79.3867 313.261 78.5078 314.292 77.8398C315.324 77.1719 316.419 76.8379 317.579 76.8379Z" fill="white"/>
<path d="M324.557 86.6992C324.557 88.9844 325.061 90.8184 326.069 92.2012C327.088 93.5723 328.571 94.2578 330.516 94.2578C332.438 94.2578 333.885 93.5723 334.858 92.2012C335.842 90.8301 336.335 88.9844 336.335 86.6641C336.335 84.3086 335.848 82.457 334.876 81.1094C333.915 79.75 332.444 79.0703 330.463 79.0703C328.542 79.0703 327.077 79.7617 326.069 81.1445C325.061 82.5273 324.557 84.3789 324.557 86.6992ZM339.376 86.6465C339.376 89.6348 338.579 92.0605 336.985 93.9238C335.391 95.7754 333.188 96.7012 330.376 96.7012C327.669 96.7012 325.512 95.7637 323.907 93.8887C322.313 92.0137 321.516 89.6055 321.516 86.6641C321.516 83.6641 322.319 81.2383 323.924 79.3867C325.53 77.5352 327.733 76.6094 330.534 76.6094C333.288 76.6094 335.45 77.541 337.02 79.4043C338.59 81.2559 339.376 83.6699 339.376 86.6465Z" fill="white"/>
<path d="M343.594 89.8633V77.0137H346.547V89.8984C346.547 90.7422 346.664 91.457 346.898 92.043C347.144 92.6289 347.49 93.0859 347.935 93.4141C348.392 93.7305 348.902 93.959 349.465 94.0996C350.039 94.2402 350.695 94.3105 351.433 94.3105C352.957 94.3105 354.14 93.9766 354.984 93.3086C355.84 92.6406 356.267 91.5039 356.267 89.8984V77.0137H359.221V89.8633C359.221 90.8477 359.08 91.7324 358.799 92.5176C358.517 93.3027 358.137 93.959 357.656 94.4863C357.187 95.002 356.619 95.4297 355.951 95.7695C355.283 96.1094 354.574 96.3555 353.824 96.5078C353.086 96.6602 352.289 96.7363 351.433 96.7363C350.59 96.7363 349.793 96.6602 349.043 96.5078C348.293 96.3555 347.578 96.1094 346.898 95.7695C346.23 95.418 345.65 94.9844 345.158 94.4688C344.678 93.9414 344.297 93.2852 344.015 92.5C343.734 91.7148 343.594 90.8359 343.594 89.8633Z" fill="white"/>
<path d="M364.317 104.664V77.0137H366.901L367.183 79.6328C368.87 77.6172 370.898 76.6094 373.265 76.6094C375.023 76.6094 376.511 77.0488 377.73 77.9277C378.948 78.8066 379.845 79.9961 380.419 81.4961C381.005 82.9961 381.298 84.748 381.298 86.752C381.298 88.6738 380.982 90.3848 380.349 91.8848C379.716 93.373 378.784 94.5508 377.554 95.418C376.335 96.2734 374.905 96.7012 373.265 96.7012C372.023 96.7012 370.857 96.4258 369.767 95.875C368.677 95.3125 367.804 94.5742 367.148 93.6602C367.218 94.9258 367.253 96.1562 367.253 97.3516V104.471L364.317 104.664ZM372.86 94.2227C373.751 94.2227 374.548 94.0234 375.251 93.625C375.954 93.2148 376.523 92.6582 376.956 91.9551C377.39 91.252 377.718 90.4551 377.941 89.5645C378.163 88.6621 378.275 87.6895 378.275 86.6465C378.275 84.4434 377.812 82.6387 376.886 81.2324C375.96 79.8145 374.607 79.1055 372.825 79.1055C369.099 79.1055 367.235 81.5137 367.235 86.3301C367.235 88.9434 367.669 90.9121 368.536 92.2363C369.415 93.5605 370.857 94.2227 372.86 94.2227Z" fill="white"/>
</svg>
