<svg width="287" height="197" viewBox="0 0 287 197" fill="none" xmlns="http://www.w3.org/2000/svg">
<path d="M51 77.7998V7.7998H78.3C84.4333 7.7998 89.6667 8.76647 94 10.6998C98.3333 12.6331 101.667 15.4331 104 19.0998C106.333 22.7665 107.5 27.1331 107.5 32.1998C107.5 37.2665 106.333 41.6331 104 45.2998C101.667 48.8998 98.3333 51.6998 94 53.6998C89.6667 55.6331 84.4333 56.5998 78.3 56.5998H56.5L61 51.8998V77.7998H51ZM61 52.8998L56.5 47.8998H78C84.4 47.8998 89.2333 46.5331 92.5 43.7998C95.8333 41.0665 97.5 37.1998 97.5 32.1998C97.5 27.1998 95.8333 23.3331 92.5 20.5998C89.2333 17.8665 84.4 16.4998 78 16.4998H56.5L61 11.4998V52.8998Z" fill="white"/>
<path d="M127.291 37.9998H163.291V46.4998H127.291V37.9998ZM128.191 69.0998H168.991V77.7998H118.191V7.7998H167.591V16.4998H128.191V69.0998Z" fill="white"/>
<path d="M47.73 109V90.8H54.828C56.4227 90.8 57.7833 91.0513 58.91 91.554C60.0367 92.0567 60.9033 92.7847 61.51 93.738C62.1167 94.6913 62.42 95.8267 62.42 97.144C62.42 98.4613 62.1167 99.5967 61.51 100.55C60.9033 101.486 60.0367 102.214 58.91 102.734C57.7833 103.237 56.4227 103.488 54.828 103.488H49.16L50.33 102.266V109H47.73ZM50.33 102.526L49.16 101.226H54.75C56.414 101.226 57.6707 100.871 58.52 100.16C59.3867 99.4493 59.82 98.444 59.82 97.144C59.82 95.844 59.3867 94.8387 58.52 94.128C57.6707 93.4173 56.414 93.062 54.75 93.062H49.16L50.33 91.762V102.526ZM71.1798 109V90.8H78.2778C79.8724 90.8 81.2331 91.0513 82.3598 91.554C83.4864 92.0567 84.3531 92.7847 84.9598 93.738C85.5664 94.6913 85.8698 95.8267 85.8698 97.144C85.8698 98.4613 85.5664 99.5967 84.9598 100.55C84.3531 101.486 83.4864 102.205 82.3598 102.708C81.2331 103.211 79.8724 103.462 78.2778 103.462H72.6098L73.7798 102.266V109H71.1798ZM83.3478 109L78.7198 102.396H81.5018L86.1818 109H83.3478ZM73.7798 102.526L72.6098 101.252H78.1998C79.8638 101.252 81.1204 100.897 81.9698 100.186C82.8364 99.458 83.2698 98.444 83.2698 97.144C83.2698 95.844 82.8364 94.8387 81.9698 94.128C81.1204 93.4173 79.8638 93.062 78.1998 93.062H72.6098L73.7798 91.762V102.526ZM103.226 109.208C101.84 109.208 100.548 108.974 99.3524 108.506C98.1737 108.038 97.1511 107.388 96.2844 106.556C95.4177 105.707 94.7417 104.719 94.2564 103.592C93.7711 102.465 93.5284 101.235 93.5284 99.9C93.5284 98.5653 93.7711 97.3347 94.2564 96.208C94.7417 95.0813 95.4177 94.102 96.2844 93.27C97.1511 92.4207 98.1737 91.762 99.3524 91.294C100.531 90.826 101.822 90.592 103.226 90.592C104.613 90.592 105.887 90.826 107.048 91.294C108.227 91.7447 109.25 92.3947 110.116 93.244C111 94.076 111.676 95.0553 112.144 96.182C112.63 97.3087 112.872 98.548 112.872 99.9C112.872 101.252 112.63 102.491 112.144 103.618C111.676 104.745 111 105.733 110.116 106.582C109.25 107.414 108.227 108.064 107.048 108.532C105.887 108.983 104.613 109.208 103.226 109.208ZM103.226 106.894C104.232 106.894 105.159 106.721 106.008 106.374C106.875 106.027 107.62 105.542 108.244 104.918C108.886 104.277 109.38 103.531 109.726 102.682C110.09 101.833 110.272 100.905 110.272 99.9C110.272 98.8947 110.09 97.9673 109.726 97.118C109.38 96.2687 108.886 95.532 108.244 94.908C107.62 94.2667 106.875 93.7727 106.008 93.426C105.159 93.0793 104.232 92.906 103.226 92.906C102.204 92.906 101.259 93.0793 100.392 93.426C99.5431 93.7727 98.7977 94.2667 98.1564 94.908C97.5151 95.532 97.0124 96.2687 96.6484 97.118C96.3017 97.9673 96.1284 98.8947 96.1284 99.9C96.1284 100.905 96.3017 101.833 96.6484 102.682C97.0124 103.531 97.5151 104.277 98.1564 104.918C98.7977 105.542 99.5431 106.027 100.392 106.374C101.259 106.721 102.204 106.894 103.226 106.894ZM121.786 109V90.8H129.456C131.398 90.8 133.105 91.1813 134.578 91.944C136.069 92.7067 137.222 93.7727 138.036 95.142C138.868 96.5113 139.284 98.0973 139.284 99.9C139.284 101.703 138.868 103.289 138.036 104.658C137.222 106.027 136.069 107.093 134.578 107.856C133.105 108.619 131.398 109 129.456 109H121.786ZM124.386 106.738H129.3C130.808 106.738 132.108 106.452 133.2 105.88C134.31 105.308 135.168 104.511 135.774 103.488C136.381 102.448 136.684 101.252 136.684 99.9C136.684 98.5307 136.381 97.3347 135.774 96.312C135.168 95.2893 134.31 94.492 133.2 93.92C132.108 93.348 130.808 93.062 129.3 93.062H124.386V106.738ZM155.747 109.208C153.355 109.208 151.474 108.523 150.105 107.154C148.735 105.785 148.051 103.783 148.051 101.148V90.8H150.651V101.044C150.651 103.072 151.093 104.554 151.977 105.49C152.878 106.426 154.143 106.894 155.773 106.894C157.419 106.894 158.685 106.426 159.569 105.49C160.47 104.554 160.921 103.072 160.921 101.044V90.8H163.443V101.148C163.443 103.783 162.758 105.785 161.389 107.154C160.037 108.523 158.156 109.208 155.747 109.208ZM181.851 109.208C180.465 109.208 179.182 108.983 178.003 108.532C176.842 108.064 175.828 107.414 174.961 106.582C174.112 105.733 173.445 104.745 172.959 103.618C172.474 102.491 172.231 101.252 172.231 99.9C172.231 98.548 172.474 97.3087 172.959 96.182C173.445 95.0553 174.121 94.076 174.987 93.244C175.854 92.3947 176.868 91.7447 178.029 91.294C179.208 90.826 180.491 90.592 181.877 90.592C183.281 90.592 184.573 90.8347 185.751 91.32C186.947 91.788 187.961 92.49 188.793 93.426L187.103 95.064C186.41 94.336 185.63 93.7987 184.763 93.452C183.897 93.088 182.969 92.906 181.981 92.906C180.959 92.906 180.005 93.0793 179.121 93.426C178.255 93.7727 177.501 94.258 176.859 94.882C176.218 95.506 175.715 96.2513 175.351 97.118C175.005 97.9673 174.831 98.8947 174.831 99.9C174.831 100.905 175.005 101.841 175.351 102.708C175.715 103.557 176.218 104.294 176.859 104.918C177.501 105.542 178.255 106.027 179.121 106.374C180.005 106.721 180.959 106.894 181.981 106.894C182.969 106.894 183.897 106.721 184.763 106.374C185.63 106.01 186.41 105.455 187.103 104.71L188.793 106.348C187.961 107.284 186.947 107.995 185.751 108.48C184.573 108.965 183.273 109.208 181.851 109.208ZM200.853 109V93.062H194.613V90.8H209.667V93.062H203.427V109H200.853Z" fill="white"/>
<path d="M51.096 137.652H60.456V139.862H51.096V137.652ZM51.33 145.738H61.938V148H48.73V129.8H61.574V132.062H51.33V145.738ZM71.088 148V129.8H73.22L85.258 144.75H84.14V129.8H86.74V148H84.608L72.57 133.05H73.688V148H71.088ZM105.344 148.208C103.94 148.208 102.648 147.983 101.47 147.532C100.291 147.064 99.2682 146.414 98.4016 145.582C97.5349 144.733 96.8589 143.745 96.3736 142.618C95.8882 141.491 95.6456 140.252 95.6456 138.9C95.6456 137.548 95.8882 136.309 96.3736 135.182C96.8589 134.055 97.5349 133.076 98.4016 132.244C99.2856 131.395 100.317 130.745 101.496 130.294C102.674 129.826 103.974 129.592 105.396 129.592C106.834 129.592 108.152 129.826 109.348 130.294C110.544 130.762 111.558 131.464 112.39 132.4L110.778 134.012C110.032 133.284 109.218 132.755 108.334 132.426C107.467 132.079 106.522 131.906 105.5 131.906C104.46 131.906 103.489 132.079 102.588 132.426C101.704 132.773 100.932 133.258 100.274 133.882C99.6322 134.506 99.1296 135.251 98.7656 136.118C98.4189 136.967 98.2456 137.895 98.2456 138.9C98.2456 139.888 98.4189 140.815 98.7656 141.682C99.1296 142.531 99.6322 143.277 100.274 143.918C100.932 144.542 101.704 145.027 102.588 145.374C103.472 145.721 104.434 145.894 105.474 145.894C106.444 145.894 107.372 145.747 108.256 145.452C109.157 145.14 109.989 144.629 110.752 143.918L112.234 145.894C111.332 146.657 110.275 147.237 109.062 147.636C107.866 148.017 106.626 148.208 105.344 148.208ZM109.738 145.556V138.796H112.234V145.894L109.738 145.556ZM122.152 148V129.8H124.752V148H122.152ZM135.14 148V129.8H137.272L149.31 144.75H148.192V129.8H150.792V148H148.66L136.622 133.05H137.74V148H135.14ZM163.546 137.652H172.906V139.862H163.546V137.652ZM163.78 145.738H174.388V148H161.18V129.8H174.024V132.062H163.78V145.738ZM185.904 137.652H195.264V139.862H185.904V137.652ZM186.138 145.738H196.746V148H183.538V129.8H196.382V132.062H186.138V145.738ZM205.896 148V129.8H212.994C214.589 129.8 215.949 130.051 217.076 130.554C218.203 131.057 219.069 131.785 219.676 132.738C220.283 133.691 220.586 134.827 220.586 136.144C220.586 137.461 220.283 138.597 219.676 139.55C219.069 140.486 218.203 141.205 217.076 141.708C215.949 142.211 214.589 142.462 212.994 142.462H207.326L208.496 141.266V148H205.896ZM218.064 148L213.436 141.396H216.218L220.898 148H218.064ZM208.496 141.526L207.326 140.252H212.916C214.58 140.252 215.837 139.897 216.686 139.186C217.553 138.458 217.986 137.444 217.986 136.144C217.986 134.844 217.553 133.839 216.686 133.128C215.837 132.417 214.58 132.062 212.916 132.062H207.326L208.496 130.762V141.526ZM229.727 148V129.8H232.327V148H229.727ZM242.715 148V129.8H244.847L256.885 144.75H255.767V129.8H258.367V148H256.235L244.197 133.05H245.315V148H242.715ZM276.971 148.208C275.567 148.208 274.276 147.983 273.097 147.532C271.918 147.064 270.896 146.414 270.029 145.582C269.162 144.733 268.486 143.745 268.001 142.618C267.516 141.491 267.273 140.252 267.273 138.9C267.273 137.548 267.516 136.309 268.001 135.182C268.486 134.055 269.162 133.076 270.029 132.244C270.913 131.395 271.944 130.745 273.123 130.294C274.302 129.826 275.602 129.592 277.023 129.592C278.462 129.592 279.779 129.826 280.975 130.294C282.171 130.762 283.185 131.464 284.017 132.4L282.405 134.012C281.66 133.284 280.845 132.755 279.961 132.426C279.094 132.079 278.15 131.906 277.127 131.906C276.087 131.906 275.116 132.079 274.215 132.426C273.331 132.773 272.56 133.258 271.901 133.882C271.26 134.506 270.757 135.251 270.393 136.118C270.046 136.967 269.873 137.895 269.873 138.9C269.873 139.888 270.046 140.815 270.393 141.682C270.757 142.531 271.26 143.277 271.901 143.918C272.56 144.542 273.331 145.027 274.215 145.374C275.099 145.721 276.061 145.894 277.101 145.894C278.072 145.894 278.999 145.747 279.883 145.452C280.784 145.14 281.616 144.629 282.379 143.918L283.861 145.894C282.96 146.657 281.902 147.237 280.689 147.636C279.493 148.017 278.254 148.208 276.971 148.208ZM281.365 145.556V138.796H283.861V145.894L281.365 145.556Z" fill="white"/>
<path d="M56.946 187.208C55.542 187.208 54.2507 186.983 53.072 186.532C51.8933 186.064 50.8707 185.414 50.004 184.582C49.1373 183.733 48.4613 182.745 47.976 181.618C47.4907 180.491 47.248 179.252 47.248 177.9C47.248 176.548 47.4907 175.309 47.976 174.182C48.4613 173.055 49.1373 172.076 50.004 171.244C50.888 170.395 51.9193 169.745 53.098 169.294C54.2767 168.826 55.5767 168.592 56.998 168.592C58.4367 168.592 59.754 168.826 60.95 169.294C62.146 169.762 63.16 170.464 63.992 171.4L62.38 173.012C61.6347 172.284 60.82 171.755 59.936 171.426C59.0693 171.079 58.1247 170.906 57.102 170.906C56.062 170.906 55.0913 171.079 54.19 171.426C53.306 171.773 52.5347 172.258 51.876 172.882C51.2347 173.506 50.732 174.251 50.368 175.118C50.0213 175.967 49.848 176.895 49.848 177.9C49.848 178.888 50.0213 179.815 50.368 180.682C50.732 181.531 51.2347 182.277 51.876 182.918C52.5347 183.542 53.306 184.027 54.19 184.374C55.074 184.721 56.036 184.894 57.076 184.894C58.0467 184.894 58.974 184.747 59.858 184.452C60.7593 184.14 61.5913 183.629 62.354 182.918L63.836 184.894C62.9347 185.657 61.8773 186.237 60.664 186.636C59.468 187.017 58.2287 187.208 56.946 187.208ZM61.34 184.556V177.796H63.836V184.894L61.34 184.556ZM73.754 187V168.8H80.852C82.4467 168.8 83.8073 169.051 84.934 169.554C86.0607 170.057 86.9273 170.785 87.534 171.738C88.1407 172.691 88.444 173.827 88.444 175.144C88.444 176.461 88.1407 177.597 87.534 178.55C86.9273 179.486 86.0607 180.205 84.934 180.708C83.8073 181.211 82.4467 181.462 80.852 181.462H75.184L76.354 180.266V187H73.754ZM85.922 187L81.294 180.396H84.076L88.756 187H85.922ZM76.354 180.526L75.184 179.252H80.774C82.438 179.252 83.6947 178.897 84.544 178.186C85.4107 177.458 85.844 176.444 85.844 175.144C85.844 173.844 85.4107 172.839 84.544 172.128C83.6947 171.417 82.438 171.062 80.774 171.062H75.184L76.354 169.762V180.526ZM105.801 187.208C104.414 187.208 103.123 186.974 101.927 186.506C100.748 186.038 99.7253 185.388 98.8586 184.556C97.9919 183.707 97.3159 182.719 96.8306 181.592C96.3453 180.465 96.1026 179.235 96.1026 177.9C96.1026 176.565 96.3453 175.335 96.8306 174.208C97.3159 173.081 97.9919 172.102 98.8586 171.27C99.7253 170.421 100.748 169.762 101.927 169.294C103.105 168.826 104.397 168.592 105.801 168.592C107.187 168.592 108.461 168.826 109.623 169.294C110.801 169.745 111.824 170.395 112.691 171.244C113.575 172.076 114.251 173.055 114.719 174.182C115.204 175.309 115.447 176.548 115.447 177.9C115.447 179.252 115.204 180.491 114.719 181.618C114.251 182.745 113.575 183.733 112.691 184.582C111.824 185.414 110.801 186.064 109.623 186.532C108.461 186.983 107.187 187.208 105.801 187.208ZM105.801 184.894C106.806 184.894 107.733 184.721 108.583 184.374C109.449 184.027 110.195 183.542 110.819 182.918C111.46 182.277 111.954 181.531 112.301 180.682C112.665 179.833 112.847 178.905 112.847 177.9C112.847 176.895 112.665 175.967 112.301 175.118C111.954 174.269 111.46 173.532 110.819 172.908C110.195 172.267 109.449 171.773 108.583 171.426C107.733 171.079 106.806 170.906 105.801 170.906C104.778 170.906 103.833 171.079 102.967 171.426C102.117 171.773 101.372 172.267 100.731 172.908C100.089 173.532 99.5866 174.269 99.2226 175.118C98.8759 175.967 98.7026 176.895 98.7026 177.9C98.7026 178.905 98.8759 179.833 99.2226 180.682C99.5866 181.531 100.089 182.277 100.731 182.918C101.372 183.542 102.117 184.027 102.967 184.374C103.833 184.721 104.778 184.894 105.801 184.894ZM131.901 187.208C129.509 187.208 127.628 186.523 126.259 185.154C124.889 183.785 124.205 181.783 124.205 179.148V168.8H126.805V179.044C126.805 181.072 127.247 182.554 128.131 183.49C129.032 184.426 130.297 184.894 131.927 184.894C133.573 184.894 134.839 184.426 135.723 183.49C136.624 182.554 137.075 181.072 137.075 179.044V168.8H139.597V179.148C139.597 181.783 138.912 183.785 137.543 185.154C136.191 186.523 134.31 187.208 131.901 187.208ZM149.867 187V168.8H156.965C158.56 168.8 159.92 169.051 161.047 169.554C162.174 170.057 163.04 170.785 163.647 171.738C164.254 172.691 164.557 173.827 164.557 175.144C164.557 176.461 164.254 177.597 163.647 178.55C163.04 179.486 162.174 180.214 161.047 180.734C159.92 181.237 158.56 181.488 156.965 181.488H151.297L152.467 180.266V187H149.867ZM152.467 180.526L151.297 179.226H156.887C158.551 179.226 159.808 178.871 160.657 178.16C161.524 177.449 161.957 176.444 161.957 175.144C161.957 173.844 161.524 172.839 160.657 172.128C159.808 171.417 158.551 171.062 156.887 171.062H151.297L152.467 169.762V180.526Z" fill="white"/>
<mask id="mask0_846_4011" style="mask-type:luminance" maskUnits="userSpaceOnUse" x="0" y="0" width="35" height="197">
<path d="M0 0H34.9418V196.324H0V0Z" fill="white"/>
</mask>
<g mask="url(#mask0_846_4011)">
<path d="M17.5012 196C16.9606 196 16.4223 195.972 15.8841 195.92C15.3458 195.867 14.8124 195.787 14.2837 195.683C13.7527 195.579 13.2288 195.449 12.7121 195.292C12.1954 195.136 11.6882 194.956 11.1883 194.75C10.6907 194.547 10.2027 194.317 9.72664 194.067C9.2506 193.813 8.78652 193.539 8.33918 193.241C7.88945 192.945 7.45647 192.625 7.03784 192.287C6.6216 191.946 6.22211 191.589 5.83936 191.21C5.45661 190.832 5.0954 190.436 4.75092 190.022C4.40884 189.61 4.08829 189.182 3.78688 188.737C3.48786 188.292 3.21037 187.833 2.9544 187.362C2.70083 186.891 2.46879 186.408 2.26067 185.914C2.05495 185.419 1.87314 184.918 1.71526 184.406C1.55738 183.895 1.42581 183.377 1.32055 182.852C1.2153 182.326 1.13635 181.799 1.08133 181.266C1.02871 180.736 1.00239 180.201 1 179.666V32.6675C1 32.206 1.09569 31.7634 1.28467 31.3422L14.4847 1.94291C14.6138 1.6542 14.7813 1.38915 14.9894 1.14776C15.1951 0.908744 15.4344 0.70049 15.7023 0.530101C15.9702 0.357345 16.2549 0.224819 16.5611 0.134892C16.8673 0.0449636 17.1806 0 17.5012 0C17.8194 0 18.1327 0.0449636 18.4389 0.134892C18.7451 0.224819 19.0322 0.357345 19.3001 0.530101C19.5656 0.70049 19.8049 0.908744 20.0106 1.14776C20.2187 1.38915 20.3862 1.6542 20.5153 1.94291L33.7153 31.3422C33.9043 31.7634 34 32.206 34 32.6675V179.666C34 180.201 33.9713 180.736 33.9187 181.266C33.866 181.799 33.7847 182.329 33.6795 182.852C33.5742 183.377 33.4426 183.895 33.2847 184.406C33.1269 184.918 32.9451 185.419 32.7393 185.914C32.5312 186.408 32.3016 186.891 32.0456 187.362C31.792 187.833 31.5145 188.292 31.2131 188.737C30.9141 189.18 30.5912 189.61 30.2491 190.022C29.907 190.436 29.5434 190.832 29.1606 191.21C28.7803 191.589 28.3808 191.946 27.9622 192.287C27.5435 192.625 27.1105 192.945 26.6632 193.241C26.2135 193.539 25.7494 193.813 25.2734 194.067C24.7973 194.317 24.3093 194.547 23.8117 194.75C23.3118 194.956 22.8046 195.136 22.2879 195.292C21.7712 195.449 21.2473 195.579 20.7187 195.683C20.1876 195.787 19.6542 195.867 19.1159 195.92C18.5801 195.972 18.0394 196 17.5012 196ZM7.6 33.3608V179.666C7.6 179.988 7.61675 180.308 7.64784 180.627C7.67894 180.947 7.72679 181.264 7.79137 181.578C7.85357 181.893 7.93251 182.203 8.02581 182.511C8.12149 182.818 8.22914 183.121 8.35353 183.417C8.47793 183.713 8.61667 184.004 8.76977 184.286C8.92287 184.57 9.08793 184.844 9.26974 185.112C9.44915 185.379 9.64291 185.635 9.84864 185.883C10.0544 186.132 10.2697 186.368 10.4993 186.595C10.729 186.823 10.9682 187.038 11.2194 187.242C11.4705 187.445 11.7313 187.637 11.9992 187.814C12.2695 187.994 12.547 188.157 12.8341 188.309C13.1187 188.46 13.413 188.598 13.712 188.721C14.011 188.844 14.3172 188.952 14.6258 189.045C14.9368 189.137 15.2502 189.215 15.5683 189.279C15.8865 189.341 16.207 189.388 16.53 189.419C16.8529 189.452 17.1759 189.466 17.5012 189.466C17.8241 189.466 18.1471 189.452 18.47 189.419C18.793 189.388 19.1135 189.341 19.4317 189.279C19.7498 189.215 20.0632 189.137 20.3742 189.045C20.6852 188.952 20.989 188.844 21.288 188.721C21.5894 188.598 21.8813 188.46 22.1659 188.309C22.453 188.157 22.7305 187.994 23.0008 187.814C23.2687 187.637 23.5295 187.445 23.7806 187.242C24.0318 187.038 24.271 186.823 24.5007 186.595C24.7303 186.368 24.948 186.132 25.1538 185.883C25.3595 185.635 25.5509 185.379 25.7327 185.112C25.9121 184.844 26.0771 184.57 26.2302 184.286C26.3833 184.004 26.5221 183.713 26.6465 183.417C26.7709 183.121 26.8785 182.818 26.9742 182.511C27.0675 182.203 27.1464 181.893 27.211 181.578C27.2732 181.264 27.3211 180.947 27.3522 180.627C27.3833 180.308 27.4 179.988 27.4 179.666V33.3608L17.5012 11.312L7.6 33.3608Z" fill="white"/>
</g>
<mask id="mask1_846_4011" style="mask-type:luminance" maskUnits="userSpaceOnUse" x="1" y="167" width="33" height="9">
<path d="M1 167.712H34V175.342H1V167.712Z" fill="white"/>
</mask>
<g mask="url(#mask1_846_4011)">
<path d="M30.4446 174.994H4.56112C4.34767 174.994 4.13657 174.972 3.93016 174.927C3.7214 174.885 3.51968 174.818 3.32265 174.734C3.12563 174.647 2.94033 174.54 2.76206 174.416C2.58614 174.292 2.42195 174.15 2.27183 173.989C2.12172 173.83 1.98802 173.658 1.87074 173.47C1.75111 173.283 1.6526 173.085 1.5705 172.878C1.49075 172.67 1.42742 172.456 1.38755 172.235C1.34533 172.014 1.32422 171.791 1.32422 171.565C1.32422 171.341 1.34533 171.118 1.38755 170.896C1.42742 170.675 1.49075 170.462 1.5705 170.253C1.6526 170.045 1.75111 169.848 1.87074 169.662C1.98802 169.473 2.12172 169.3 2.27183 169.141C2.42195 168.982 2.58614 168.84 2.76206 168.716C2.94033 168.589 3.12563 168.485 3.32265 168.398C3.51968 168.311 3.7214 168.246 3.93016 168.204C4.13657 168.16 4.34767 168.137 4.56112 168.137H30.4446C30.6581 168.137 30.8692 168.16 31.0779 168.204C31.2843 168.246 31.4884 168.311 31.6831 168.398C31.8801 168.485 32.0678 168.589 32.2437 168.716C32.4196 168.84 32.5838 168.982 32.7339 169.141C32.884 169.3 33.0177 169.473 33.135 169.662C33.2546 169.848 33.3531 170.045 33.4352 170.253C33.5173 170.462 33.5783 170.675 33.6182 170.896C33.6604 171.118 33.6815 171.341 33.6815 171.565C33.6815 171.791 33.6604 172.014 33.6182 172.235C33.5783 172.456 33.5173 172.67 33.4352 172.878C33.3531 173.085 33.2546 173.283 33.135 173.47C33.0177 173.658 32.884 173.83 32.7339 173.989C32.5838 174.15 32.4196 174.292 32.2437 174.416C32.0678 174.54 31.8801 174.647 31.6831 174.734C31.4884 174.818 31.2843 174.885 31.0779 174.927C30.8692 174.972 30.6581 174.994 30.4446 174.994Z" fill="white"/>
</g>
<mask id="mask2_846_4011" style="mask-type:luminance" maskUnits="userSpaceOnUse" x="1" y="154" width="33" height="8">
<path d="M1 154.361H34V161.355H1V154.361Z" fill="white"/>
</mask>
<g mask="url(#mask2_846_4011)">
<path d="M30.4446 161.28H4.56112C4.34767 161.28 4.13657 161.26 3.93016 161.215C3.7214 161.171 3.51968 161.106 3.32265 161.019C3.12563 160.935 2.94033 160.828 2.76206 160.704C2.58614 160.577 2.42195 160.436 2.27183 160.277C2.12172 160.118 1.98802 159.944 1.87074 159.758C1.75111 159.571 1.6526 159.373 1.5705 159.164C1.49075 158.958 1.42742 158.742 1.38755 158.521C1.34533 158.3 1.32422 158.079 1.32422 157.853C1.32422 157.627 1.34533 157.406 1.38755 157.185C1.42742 156.964 1.49075 156.75 1.5705 156.541C1.6526 156.333 1.75111 156.134 1.87074 155.948C1.98802 155.761 2.12172 155.588 2.27183 155.429C2.42195 155.27 2.58614 155.128 2.76206 155.001C2.94033 154.877 3.12563 154.771 3.32265 154.686C3.51968 154.599 3.7214 154.535 3.93016 154.49C4.13657 154.448 4.34767 154.425 4.56112 154.425H30.4446C30.6581 154.425 30.8692 154.448 31.0779 154.49C31.2843 154.535 31.4884 154.599 31.6831 154.686C31.8801 154.771 32.0678 154.877 32.2437 155.001C32.4196 155.128 32.5838 155.27 32.7339 155.429C32.884 155.588 33.0177 155.761 33.135 155.948C33.2546 156.134 33.3531 156.333 33.4352 156.541C33.5173 156.75 33.5783 156.964 33.6182 157.185C33.6604 157.406 33.6815 157.627 33.6815 157.853C33.6815 158.079 33.6604 158.3 33.6182 158.521C33.5783 158.742 33.5173 158.958 33.4352 159.164C33.3531 159.373 33.2546 159.571 33.135 159.758C33.0177 159.944 32.884 160.118 32.7339 160.277C32.5838 160.436 32.4196 160.577 32.2437 160.704C32.0678 160.828 31.8801 160.935 31.6831 161.019C31.4884 161.106 31.2843 161.171 31.0779 161.215C30.8692 161.26 30.6581 161.28 30.4446 161.28Z" fill="white"/>
</g>
<mask id="mask3_846_4011" style="mask-type:luminance" maskUnits="userSpaceOnUse" x="1" y="30" width="33" height="16">
<path d="M1 30.3794H34V45.0029H1V30.3794Z" fill="white"/>
</mask>
<g mask="url(#mask3_846_4011)">
<path d="M17.5047 44.7197C16.9957 44.7222 16.5125 44.6005 16.0575 44.3596L3.11455 37.5049C2.92455 37.403 2.74629 37.2838 2.57741 37.1472C2.40853 37.0081 2.25606 36.8542 2.11767 36.6853C1.97694 36.5139 1.85497 36.3326 1.74942 36.1364C1.64387 35.9402 1.55708 35.7365 1.4914 35.523C1.42338 35.3094 1.37647 35.0908 1.35067 34.8673C1.32252 34.6438 1.31783 34.4202 1.3319 34.1942C1.34598 33.9707 1.38351 33.7497 1.4398 33.5311C1.49375 33.315 1.57115 33.1039 1.66498 32.9028C1.76115 32.7016 1.87373 32.5128 2.00274 32.334C2.13409 32.1577 2.27952 31.9938 2.43902 31.8472C2.59852 31.6982 2.77209 31.5691 2.95739 31.4573C3.14035 31.3455 3.33503 31.2536 3.53675 31.1816C3.73847 31.1121 3.94488 31.0624 4.15599 31.0326C4.36474 31.0053 4.57819 30.9978 4.78929 31.0152C5.0004 31.0301 5.20915 31.0674 5.41556 31.127C5.61963 31.1866 5.81666 31.2661 6.00665 31.3679L17.5047 37.4602L29.0004 31.3679C29.1904 31.2661 29.3874 31.1866 29.5938 31.127C29.7979 31.0674 30.0066 31.0301 30.2178 31.0152C30.4312 30.9978 30.6423 31.0053 30.8534 31.0326C31.0645 31.0624 31.2709 31.1121 31.4703 31.1816C31.672 31.2536 31.8667 31.3455 32.0497 31.4573C32.235 31.5691 32.4085 31.6982 32.568 31.8472C32.7299 31.9938 32.8753 32.1577 33.0043 32.334C33.1357 32.5128 33.2482 32.7016 33.3421 32.9028C33.4382 33.1039 33.5133 33.315 33.5696 33.5311C33.6259 33.7497 33.6611 33.9707 33.6751 34.1942C33.6916 34.4202 33.6845 34.6438 33.6587 34.8673C33.6306 35.0908 33.5837 35.3094 33.518 35.523C33.45 35.7365 33.3632 35.9402 33.2576 36.1364C33.1521 36.3326 33.0301 36.5139 32.8917 36.6853C32.751 36.8542 32.5985 37.0081 32.4296 37.1472C32.2631 37.2838 32.0825 37.403 31.8925 37.5049L18.9496 44.3596C18.4945 44.6005 18.0137 44.7222 17.5047 44.7197Z" fill="white"/>
</g>
<path d="M17.4742 161.28C17.2482 161.28 17.0247 161.26 16.8037 161.215C16.5851 161.171 16.369 161.106 16.1629 161.019C15.9543 160.935 15.7581 160.828 15.5693 160.704C15.3831 160.577 15.2092 160.436 15.0503 160.277C14.8913 160.118 14.7497 159.944 14.6256 159.758C14.4989 159.571 14.3946 159.373 14.3077 159.164C14.2207 158.958 14.1562 158.742 14.1139 158.521C14.0692 158.3 14.0469 158.079 14.0469 157.853V41.2921C14.0469 41.0661 14.0692 40.8451 14.1139 40.624C14.1562 40.403 14.2207 40.1894 14.3077 39.9808C14.3946 39.7722 14.4989 39.5759 14.6256 39.3872C14.7497 39.2009 14.8913 39.0271 15.0503 38.8681C15.2092 38.7092 15.3831 38.5676 15.5693 38.4409C15.7581 38.3168 15.9543 38.21 16.1629 38.1255C16.369 38.0386 16.5851 37.974 16.8037 37.9293C17.0247 37.8871 17.2482 37.8647 17.4742 37.8647C17.6978 37.8647 17.9213 37.8871 18.1423 37.9293C18.3634 37.974 18.577 38.0386 18.7856 38.1255C18.9917 38.21 19.1904 38.3168 19.3767 38.4409C19.563 38.5676 19.7368 38.7092 19.8958 38.8681C20.0547 39.0271 20.1963 39.2009 20.3229 39.3872C20.4471 39.5759 20.5514 39.7722 20.6384 39.9808C20.7253 40.1894 20.7899 40.403 20.8346 40.624C20.8768 40.8451 20.8991 41.0661 20.8991 41.2921V157.853C20.8991 158.079 20.8768 158.3 20.8346 158.521C20.7899 158.742 20.7253 158.958 20.6384 159.164C20.5514 159.373 20.4471 159.571 20.3229 159.758C20.1963 159.944 20.0547 160.118 19.8958 160.277C19.7368 160.436 19.563 160.577 19.3767 160.704C19.1904 160.828 18.9917 160.935 18.7856 161.019C18.577 161.106 18.3634 161.171 18.1423 161.215C17.9213 161.26 17.6978 161.28 17.4742 161.28Z" fill="white"/>
<path d="M17.4749 27.5803C7.31204 27.5803 7.19531 21.0037 7.19531 20.7231C7.19531 20.512 7.21518 20.3009 7.25492 20.0947C7.29217 19.8861 7.35178 19.6849 7.42629 19.4862C7.50328 19.29 7.59766 19.1013 7.70942 18.9225C7.8187 18.7412 7.94536 18.5747 8.08941 18.4183C8.23098 18.2618 8.38496 18.1203 8.55384 17.9911C8.72273 17.8644 8.90155 17.7527 9.0903 17.6583C9.27906 17.5639 9.47526 17.4894 9.67892 17.4298C9.88257 17.3727 10.0887 17.3329 10.2973 17.3131C10.5084 17.2932 10.7195 17.2932 10.9282 17.3106C11.1393 17.3305 11.3454 17.3677 11.5491 17.4248C11.7527 17.482 11.9489 17.559 12.1377 17.6508C12.3289 17.7452 12.5077 17.857 12.6766 17.9837C12.8455 18.1103 13.002 18.2494 13.1435 18.4059C13.2876 18.5623 13.4143 18.7287 13.526 18.9076C13.6378 19.0864 13.7322 19.2751 13.8116 19.4713C13.8886 19.67 13.9457 19.8712 13.9855 20.0773C15.0882 20.6262 16.2505 20.8423 17.4749 20.7231C18.6994 20.8423 19.8617 20.6262 20.9619 20.0773C21.0017 19.8712 21.0613 19.67 21.1383 19.4713C21.2153 19.2751 21.3096 19.0864 21.4214 18.9076C21.5332 18.7287 21.6598 18.5623 21.8039 18.4059C21.9454 18.2494 22.1019 18.1103 22.2708 17.9837C22.4397 17.857 22.621 17.7452 22.8097 17.6508C22.9985 17.559 23.1947 17.482 23.3983 17.4248C23.602 17.3677 23.8081 17.3305 24.0192 17.3106C24.2279 17.2932 24.439 17.2932 24.6501 17.3131C24.8587 17.3329 25.0673 17.3727 25.2685 17.4298C25.4722 17.4894 25.6684 17.5639 25.8571 17.6583C26.0459 17.7527 26.2247 17.8644 26.3936 17.9911C26.5625 18.1203 26.7164 18.2618 26.8605 18.4183C27.0021 18.5747 27.1287 18.7412 27.2405 18.9225C27.3498 19.1013 27.4441 19.29 27.5211 19.4862C27.5981 19.6849 27.6552 19.8861 27.6925 20.0947C27.7322 20.3009 27.7521 20.512 27.7521 20.7231C27.7521 21.0037 27.6354 27.5803 17.4749 27.5803Z" fill="white"/>
<path d="M190.866 43.5902C190.866 57.8256 202.405 69.3645 216.64 69.3645C226.812 69.3645 235.608 62.3312 239.8 53.2583H229.91V44.9303H242.212H249.606C249.39 47.1431 248.957 51.1958 248.33 53.2583L256.183 61.9463C254.877 64.7537 253.282 67.3978 251.435 69.8415L239.737 67.3303C238.339 68.6894 236.823 69.9308 235.203 71.0285L235.641 82.8289C232.829 84.1923 229.852 85.2617 226.744 86L219.43 76.5976C218.511 76.6739 217.579 76.7152 216.64 76.7152C215.701 76.7152 214.771 76.6739 213.85 76.5976L206.536 86C203.43 85.2617 200.451 84.1923 197.639 82.8289L198.077 71.0285C196.457 69.9308 194.941 68.6894 193.542 67.3303L181.844 69.8415C179.997 67.3978 178.403 64.7537 177.096 61.9463L184.952 53.2583C184.323 51.1958 183.89 49.0461 183.674 46.8333L173.117 41.2489C173.276 38.2433 173.74 35.3182 174.478 32.5021L186.035 30.9035C186.98 28.6231 188.174 26.4691 189.583 24.4784L185.116 13.4883C187.08 11.4323 189.245 9.5679 191.578 7.92352L201.468 14.1351C203.779 12.9416 206.247 12.016 208.832 11.3909L212.441 0.200375C213.824 0.0675177 215.224 0 216.64 0C218.056 0 219.456 0.0675177 220.839 0.200375L224.448 11.3909C227.033 12.016 229.503 12.9416 231.812 14.1351L241.704 7.92352C244.035 9.5679 246.2 11.4323 248.164 13.4883L243.699 24.4784L237.276 28.1437C232.575 21.8716 225.082 17.8138 216.64 17.8138C202.405 17.8138 190.866 29.3527 190.866 43.5902Z" fill="white"/>
</svg>
