<svg width="171" height="251" viewBox="0 0 171 251" fill="none" xmlns="http://www.w3.org/2000/svg">
<path d="M3.952 194V157.6H19.292C21.58 157.6 23.66 158.12 25.532 159.16C27.404 160.165 28.8947 161.587 30.004 163.424C31.1133 165.261 31.668 167.411 31.668 169.872C31.668 172.229 31.1133 174.344 30.004 176.216C28.9293 178.053 27.456 179.492 25.584 180.532C23.712 181.572 21.58 182.092 19.188 182.092H8.944V194H3.952ZM8.944 177.672H18.616C20.1067 177.672 21.4587 177.377 22.672 176.788C23.92 176.164 24.8907 175.263 25.584 174.084C26.312 172.905 26.676 171.501 26.676 169.872C26.676 168.208 26.312 166.804 25.584 165.66C24.856 164.481 23.8853 163.58 22.672 162.956C21.4587 162.332 20.124 162.02 18.668 162.02H8.944V177.672ZM49.9671 194C47.0551 194 44.4725 193.463 42.2191 192.388C39.9658 191.279 38.1978 189.736 36.9151 187.76C35.6671 185.749 35.0431 183.409 35.0431 180.74C35.0431 178.105 35.5805 175.748 36.6551 173.668C37.7298 171.553 39.2205 169.889 41.1271 168.676C43.0338 167.463 45.2525 166.856 47.7831 166.856C50.5218 166.856 52.7925 167.445 54.5951 168.624C56.4325 169.803 57.8018 171.397 58.7031 173.408C59.6045 175.384 60.0551 177.603 60.0551 180.064C60.0551 180.445 60.0378 180.844 60.0031 181.26C60.0031 181.676 59.9685 182.04 59.8991 182.352H40.1391C40.3125 183.981 40.8498 185.368 41.7511 186.512C42.6525 187.621 43.7965 188.471 45.1831 189.06C46.6045 189.615 48.1645 189.892 49.8631 189.892H56.7791V194H49.9671ZM40.0871 178.972H55.2191C55.2191 178.313 55.1498 177.62 55.0111 176.892C54.8725 176.129 54.6298 175.401 54.2831 174.708C53.9365 173.98 53.4685 173.339 52.8791 172.784C52.3245 172.195 51.6138 171.727 50.7471 171.38C49.9151 171.033 48.9271 170.86 47.7831 170.86C46.5698 170.86 45.4951 171.103 44.5591 171.588C43.6578 172.039 42.8778 172.663 42.2191 173.46C41.5605 174.223 41.0578 175.089 40.7111 176.06C40.3645 177.031 40.1565 178.001 40.0871 178.972ZM78.6354 194.624C75.9314 194.624 73.5394 194.017 71.4594 192.804C69.3794 191.556 67.7327 189.892 66.5194 187.812C65.306 185.697 64.6994 183.34 64.6994 180.74C64.6994 178.14 65.306 175.8 66.5194 173.72C67.7327 171.605 69.3794 169.941 71.4594 168.728C73.5394 167.48 75.9314 166.856 78.6354 166.856C81.3394 166.856 83.7314 167.48 85.8114 168.728C87.926 169.941 89.5727 171.588 90.7514 173.668C91.9647 175.748 92.5714 178.105 92.5714 180.74C92.5714 183.34 91.9647 185.697 90.7514 187.812C89.5727 189.892 87.926 191.556 85.8114 192.804C83.7314 194.017 81.3394 194.624 78.6354 194.624ZM78.6354 190.516C80.4727 190.516 82.0674 190.083 83.4194 189.216C84.7714 188.349 85.8287 187.188 86.5914 185.732C87.354 184.241 87.7354 182.577 87.7354 180.74C87.7354 178.903 87.354 177.256 86.5914 175.8C85.8287 174.309 84.7714 173.131 83.4194 172.264C82.0674 171.397 80.4727 170.964 78.6354 170.964C76.8327 170.964 75.238 171.397 73.8514 172.264C72.4994 173.131 71.442 174.309 70.6794 175.8C69.9167 177.256 69.5354 178.903 69.5354 180.74C69.5354 182.577 69.9167 184.241 70.6794 185.732C71.442 187.188 72.4994 188.349 73.8514 189.216C75.238 190.083 76.8327 190.516 78.6354 190.516ZM112.122 166.856C114.133 166.856 115.97 167.185 117.634 167.844C119.298 168.468 120.737 169.404 121.95 170.652C123.163 171.9 124.099 173.408 124.758 175.176C125.451 176.909 125.798 178.868 125.798 181.052C125.798 183.791 125.226 186.183 124.082 188.228C122.973 190.273 121.447 191.851 119.506 192.96C117.565 194.069 115.363 194.624 112.902 194.624C111.55 194.624 110.25 194.399 109.002 193.948C107.789 193.497 106.697 192.873 105.726 192.076C104.79 191.244 104.027 190.308 103.438 189.268H103.334V205.44H98.5502V180.896C98.5502 177.915 99.1395 175.384 100.318 173.304C101.531 171.224 103.161 169.629 105.206 168.52C107.251 167.411 109.557 166.856 112.122 166.856ZM112.122 170.964C110.527 170.964 109.054 171.363 107.702 172.16C106.385 172.957 105.327 174.084 104.53 175.54C103.767 176.996 103.386 178.712 103.386 180.688C103.386 182.699 103.767 184.449 104.53 185.94C105.327 187.396 106.385 188.523 107.702 189.32C109.054 190.117 110.545 190.516 112.174 190.516C113.838 190.516 115.329 190.1 116.646 189.268C117.963 188.436 119.003 187.292 119.766 185.836C120.563 184.38 120.962 182.681 120.962 180.74C120.962 178.729 120.563 176.996 119.766 175.54C118.969 174.084 117.894 172.957 116.542 172.16C115.225 171.363 113.751 170.964 112.122 170.964ZM131.917 194V156.04H136.701V194H131.917ZM157.776 194C154.864 194 152.281 193.463 150.028 192.388C147.774 191.279 146.006 189.736 144.724 187.76C143.476 185.749 142.852 183.409 142.852 180.74C142.852 178.105 143.389 175.748 144.464 173.668C145.538 171.553 147.029 169.889 148.936 168.676C150.842 167.463 153.061 166.856 155.592 166.856C158.33 166.856 160.601 167.445 162.404 168.624C164.241 169.803 165.61 171.397 166.512 173.408C167.413 175.384 167.864 177.603 167.864 180.064C167.864 180.445 167.846 180.844 167.812 181.26C167.812 181.676 167.777 182.04 167.708 182.352H147.948C148.121 183.981 148.658 185.368 149.56 186.512C150.461 187.621 151.605 188.471 152.992 189.06C154.413 189.615 155.973 189.892 157.672 189.892H164.588V194H157.776ZM147.896 178.972H163.028C163.028 178.313 162.958 177.62 162.82 176.892C162.681 176.129 162.438 175.401 162.092 174.708C161.745 173.98 161.277 173.339 160.688 172.784C160.133 172.195 159.422 171.727 158.556 171.38C157.724 171.033 156.736 170.86 155.592 170.86C154.378 170.86 153.304 171.103 152.368 171.588C151.466 172.039 150.686 172.663 150.028 173.46C149.369 174.223 148.866 175.089 148.52 176.06C148.173 177.031 147.965 178.001 147.896 178.972ZM30.836 250.44C29.1027 250.44 27.56 250.093 26.208 249.4C24.8907 248.741 23.8507 247.753 23.088 246.436C22.3253 245.119 21.944 243.541 21.944 241.704C21.944 241.253 21.9613 240.785 21.996 240.3C22.0307 239.849 22.0827 239.381 22.152 238.896C19.3093 239.069 16.6747 238.74 14.248 237.908C11.8213 237.076 9.70667 235.845 7.904 234.216C6.10133 232.552 4.69733 230.559 3.692 228.236C2.68667 225.879 2.184 223.296 2.184 220.488C2.184 217.923 2.61733 215.531 3.484 213.312C4.35067 211.059 5.59867 209.083 7.228 207.384C8.85733 205.685 10.816 204.368 13.104 203.432C15.4267 202.461 17.992 201.976 20.8 201.976C23.608 201.976 26.156 202.444 28.444 203.38C30.732 204.316 32.6907 205.633 34.32 207.332C35.9493 208.996 37.1973 210.92 38.064 213.104C38.9653 215.288 39.416 217.645 39.416 220.176V241.132C39.416 243.004 39.0693 244.633 38.376 246.02C37.6827 247.441 36.6947 248.533 35.412 249.296C34.164 250.059 32.6387 250.44 30.836 250.44ZM30.524 245.968C31.668 245.968 32.604 245.552 33.332 244.72C34.06 243.923 34.424 242.761 34.424 241.236V228.86C32.656 230.004 31.252 231.165 30.212 232.344C29.172 233.523 28.392 234.667 27.872 235.776C27.3867 236.885 27.0573 237.908 26.884 238.844C26.7453 239.78 26.676 240.56 26.676 241.184C26.676 242.189 26.8493 243.039 27.196 243.732C27.5773 244.46 28.0627 245.015 28.652 245.396C29.2413 245.777 29.8653 245.968 30.524 245.968ZM20.8 234.632C21.3547 234.632 21.8747 234.615 22.36 234.58C22.8453 234.511 23.3653 234.407 23.92 234.268C24.4053 233.089 25.0813 231.893 25.948 230.68C26.8493 229.467 27.976 228.271 29.328 227.092C30.7147 225.879 32.4133 224.752 34.424 223.712V220.176C34.424 218.2 34.0773 216.38 33.384 214.716C32.7253 213.017 31.772 211.561 30.524 210.348C29.3107 209.1 27.872 208.129 26.208 207.436C24.544 206.708 22.7413 206.344 20.8 206.344C18.824 206.344 17.004 206.708 15.34 207.436C13.7107 208.129 12.272 209.117 11.024 210.4C9.81067 211.683 8.85733 213.191 8.164 214.924C7.50533 216.623 7.176 218.477 7.176 220.488C7.176 222.499 7.50533 224.371 8.164 226.104C8.85733 227.803 9.81067 229.293 11.024 230.576C12.272 231.859 13.7107 232.864 15.34 233.592C17.004 234.285 18.824 234.632 20.8 234.632ZM46.3978 239V220.02C46.3978 217.663 47.0565 215.825 48.3738 214.508C49.7258 213.156 51.5805 212.48 53.9378 212.48H59.3978V216.588H54.8218C53.6778 216.588 52.7765 216.917 52.1178 217.576C51.4938 218.235 51.1818 219.153 51.1818 220.332V239H46.3978ZM76.2994 239.624C73.5954 239.624 71.2034 239.017 69.1234 237.804C67.0434 236.556 65.3968 234.892 64.1834 232.812C62.9701 230.697 62.3634 228.34 62.3634 225.74C62.3634 223.14 62.9701 220.8 64.1834 218.72C65.3968 216.605 67.0434 214.941 69.1234 213.728C71.2034 212.48 73.5954 211.856 76.2994 211.856C79.0034 211.856 81.3954 212.48 83.4754 213.728C85.5901 214.941 87.2368 216.588 88.4154 218.668C89.6288 220.748 90.2354 223.105 90.2354 225.74C90.2354 228.34 89.6288 230.697 88.4154 232.812C87.2368 234.892 85.5901 236.556 83.4754 237.804C81.3954 239.017 79.0034 239.624 76.2994 239.624ZM76.2994 235.516C78.1368 235.516 79.7314 235.083 81.0834 234.216C82.4354 233.349 83.4928 232.188 84.2554 230.732C85.0181 229.241 85.3994 227.577 85.3994 225.74C85.3994 223.903 85.0181 222.256 84.2554 220.8C83.4928 219.309 82.4354 218.131 81.0834 217.264C79.7314 216.397 78.1368 215.964 76.2994 215.964C74.4968 215.964 72.9021 216.397 71.5154 217.264C70.1634 218.131 69.1061 219.309 68.3434 220.8C67.5808 222.256 67.1994 223.903 67.1994 225.74C67.1994 227.577 67.5808 229.241 68.3434 230.732C69.1061 232.188 70.1634 233.349 71.5154 234.216C72.9021 235.083 74.4968 235.516 76.2994 235.516ZM108.798 239.624C106.406 239.624 104.257 239.139 102.35 238.168C100.478 237.163 99.0049 235.776 97.9302 234.008C96.8902 232.24 96.3702 230.177 96.3702 227.82V212.48H101.206V227.768C101.206 229.363 101.553 230.749 102.246 231.928C102.94 233.072 103.858 233.956 105.002 234.58C106.181 235.204 107.429 235.516 108.746 235.516C110.098 235.516 111.346 235.204 112.49 234.58C113.669 233.956 114.605 233.072 115.298 231.928C116.026 230.749 116.39 229.363 116.39 227.768V212.48H121.226V227.82C121.226 230.177 120.689 232.24 119.614 234.008C118.54 235.776 117.066 237.163 115.194 238.168C113.322 239.139 111.19 239.624 108.798 239.624ZM142.235 211.856C144.246 211.856 146.083 212.185 147.747 212.844C149.411 213.468 150.85 214.404 152.063 215.652C153.277 216.9 154.213 218.408 154.871 220.176C155.565 221.909 155.911 223.868 155.911 226.052C155.911 228.791 155.339 231.183 154.195 233.228C153.086 235.273 151.561 236.851 149.619 237.96C147.678 239.069 145.477 239.624 143.015 239.624C141.663 239.624 140.363 239.399 139.115 238.948C137.902 238.497 136.81 237.873 135.839 237.076C134.903 236.244 134.141 235.308 133.551 234.268H133.447V250.44H128.663V225.896C128.663 222.915 129.253 220.384 130.431 218.304C131.645 216.224 133.274 214.629 135.319 213.52C137.365 212.411 139.67 211.856 142.235 211.856ZM142.235 215.964C140.641 215.964 139.167 216.363 137.815 217.16C136.498 217.957 135.441 219.084 134.643 220.54C133.881 221.996 133.499 223.712 133.499 225.688C133.499 227.699 133.881 229.449 134.643 230.94C135.441 232.396 136.498 233.523 137.815 234.32C139.167 235.117 140.658 235.516 142.287 235.516C143.951 235.516 145.442 235.1 146.759 234.268C148.077 233.436 149.117 232.292 149.879 230.836C150.677 229.38 151.075 227.681 151.075 225.74C151.075 223.729 150.677 221.996 149.879 220.54C149.082 219.084 148.007 217.957 146.655 217.16C145.338 216.363 143.865 215.964 142.235 215.964Z" fill="white"/>
<mask id="mask0_854_13297" style="mask-type:luminance" maskUnits="userSpaceOnUse" x="6" y="0" width="159" height="149">
<path d="M6 0H165V148.4H6V0Z" fill="white"/>
</mask>
<g mask="url(#mask0_854_13297)">
<path d="M6.04297 106.795V75.6796C6.04297 60.6215 13.3056 46.4247 25.5039 37.6576C23.8973 41.9777 22.6745 46.5489 22.0534 51.1174C16.5077 58.024 13.4298 66.7883 13.4298 75.6796V106.795H6.04297ZM17.1316 106.795V75.6796C17.1316 69.7474 18.6139 63.9533 21.4406 58.761L21.3164 83.2072H24.3942V106.795H17.1316ZM23.2845 81.3605V60.1219C23.2845 25.1833 51.8659 0 83.1635 0C108.292 0 131.578 15.9193 140.075 40.868C137.121 39.3801 133.919 38.1462 130.717 37.4092C121.71 18.3927 102.749 7.27922 83.1635 7.27922C55.6918 7.27922 30.4368 29.8677 30.4368 60.1219V81.3605H23.2845ZM28.0959 106.795V83.2072H35.4828V106.795H28.0959ZM34.3731 81.3605V60.1219C34.3731 32.1009 57.66 11.1134 83.0393 11.1134C100.405 11.1134 117.164 20.2532 126.033 36.4209C123.079 35.9213 120.114 35.6839 116.912 35.6839C108.902 24.4463 96.2203 18.4037 83.2877 18.4037C61.4832 18.4037 41.5254 36.4347 41.5254 60.1329V81.3716H34.3731V81.3605ZM45.2133 81.3605V60.1219C45.2133 38.6458 63.4403 22.2131 83.1497 22.2131C94.2383 22.2131 105.078 27.0328 112.465 36.1587C109.749 36.4099 106.798 36.8957 104.093 37.884C98.1884 32.3383 90.6746 29.6303 83.1635 29.6303C67.0289 29.6303 52.614 42.7147 52.614 60.1219V81.3605H45.2133ZM75.887 148.4L78.8407 108.393H63.6887C55.5538 108.393 49.0254 101.851 49.0254 93.6968V83.2072H56.2881V93.6968C56.2881 97.7684 59.6144 100.976 63.6777 100.976H79.3265L79.5749 92.7113H87.086L87.9473 112.713H107.284C111.345 112.713 114.547 109.379 114.547 105.31V73.2062H121.934V105.31C121.934 113.461 115.405 120.006 107.27 120.006H88.5822L90.5504 148.4H75.887ZM56.3019 81.3605V60.1219C56.3019 44.8126 69.1102 33.1995 83.2739 33.1995C89.1922 33.1995 95.0968 35.1732 100.157 39.1317C97.6888 40.3683 95.2237 41.605 92.767 43.0763C89.6919 41.3538 86.4898 40.6057 83.1635 40.6057C72.4475 40.6057 63.7025 49.1216 63.7025 60.1081V81.3467H56.3019V81.3605ZM69.8555 88.3913V75.6796C69.8555 71.4837 68.3732 67.4121 65.5465 64.2045V60.1329C65.5465 58.5236 65.7949 56.7983 66.2808 55.189C73.0576 59.7603 77.2452 67.4121 77.2452 75.6796V88.3913H69.8555ZM80.9441 88.3913V75.6796C80.9441 65.927 75.8981 56.9115 67.6389 51.7302C68.8728 49.5081 70.4683 47.5344 72.4475 46.0493C82.3022 52.7157 88.2206 63.8291 88.2206 75.6796V88.3913H80.9441ZM92.0217 88.2781V75.6796C92.0217 63.0921 86.1033 51.2306 76.0112 43.8271C78.2279 42.9659 80.6957 42.4662 83.1497 42.4662L85.6175 42.5905C94.4867 51.2306 99.4085 63.081 99.4085 75.6796V88.2781H92.0217ZM157.565 119.131V84.3197C157.565 62.5924 139.951 44.9368 118.27 44.9368C110.011 44.9368 102.012 47.5344 95.2348 52.4672C94.0009 50.2451 92.767 48.2714 91.2984 46.2977C99.1849 40.6168 108.667 37.5334 118.27 37.5334C144.011 37.5334 164.955 58.5236 164.955 84.3197V119.131H157.565ZM146.479 119.131V84.3197C146.479 68.6378 133.919 56.0503 118.27 56.0503C111.369 56.0503 104.717 58.5236 99.5466 63.2163C98.8095 60.6215 97.94 58.2724 96.8303 55.8129C103.11 51.1174 110.621 48.6579 118.259 48.6579C137.969 48.6579 153.852 64.5799 153.852 84.3307V119.145H146.479V119.131ZM135.515 119.131V84.3197C135.515 74.8183 127.752 67.0395 118.27 67.0395C109.277 67.0395 101.763 74.1945 101.153 83.2072V75.6796C101.153 72.9688 100.905 70.1229 100.419 67.4121C105.103 62.4682 111.507 59.7603 118.284 59.7603C131.838 59.7603 142.927 70.7467 142.927 84.3307V119.145H135.515V119.131Z" fill="white"/>
</g>
</svg>
