<svg width="500" height="238" viewBox="0 0 500 238" fill="none" xmlns="http://www.w3.org/2000/svg">
<path d="M200.366 58.6C200.366 62.5333 199.266 66.1667 197.066 69.5C194.866 72.8333 191.233 75.3667 186.166 77.1L197.766 107H175.466L166.666 79.3H165.566L159.666 107H138.066L151.566 43.5H177.866C180.933 43.5 183.833 43.7 186.566 44.1C189.3 44.4333 191.666 45.1667 193.666 46.3C195.733 47.3667 197.366 48.9 198.566 50.9C199.766 52.8333 200.366 55.4 200.366 58.6ZM171.566 72.9C173.3 72.9 174.766 72.3333 175.966 71.2C177.233 70 178.233 68.5667 178.966 66.9C179.766 65.2333 180.333 63.4667 180.666 61.6C181 59.6667 181.166 58 181.166 56.6C181.166 54.8667 180.866 53.4 180.266 52.2C179.666 50.9333 178.366 50.3 176.366 50.3H171.866L166.866 72.9H171.566ZM208.548 67.7C211.948 66.0333 215.414 64.8333 218.948 64.1C222.548 63.3 226.548 62.9 230.948 62.9C235.214 62.9 238.748 63.2333 241.548 63.9C244.348 64.5667 246.581 65.5333 248.248 66.8C249.914 68.0667 251.081 69.5667 251.748 71.3C252.414 73.0333 252.748 75 252.748 77.2C252.748 78.4667 252.648 79.8333 252.448 81.3C252.314 82.7667 252.148 84 251.948 85L247.248 107H231.148L229.348 100.6H228.748C226.614 102.933 224.114 104.733 221.248 106C218.448 107.2 215.648 107.8 212.848 107.8C211.248 107.8 209.681 107.567 208.148 107.1C206.614 106.633 205.248 105.933 204.048 105C202.848 104 201.881 102.767 201.148 101.3C200.414 99.7667 200.048 97.9333 200.048 95.8C200.048 92.3333 200.981 89.6 202.848 87.6C204.781 85.5333 207.281 84 210.348 83C213.481 81.9333 216.981 81.2667 220.848 81C224.781 80.7333 228.714 80.6 232.648 80.6C232.781 79.9333 232.948 79 233.148 77.8C233.348 76.5333 233.448 75.4333 233.448 74.5C233.448 73.3 233.114 72.2 232.448 71.2C231.848 70.1333 230.548 69.6 228.548 69.6C226.214 69.6 224.481 70.3 223.348 71.7C222.281 73.0333 221.581 74.6667 221.248 76.6H206.648L208.548 67.7ZM231.548 85.3H229.748C227.814 85.3 226.148 85.5667 224.748 86.1C223.414 86.5667 222.314 87.2 221.448 88C220.648 88.8 220.048 89.7 219.648 90.7C219.248 91.7 219.048 92.7 219.048 93.7C219.048 95.3 219.448 96.5 220.248 97.3C221.114 98.1 222.114 98.5 223.248 98.5C224.648 98.5 226.014 98 227.348 97C228.748 96 229.614 94.6667 229.948 93L231.548 85.3ZM272.323 123.8H251.923L264.523 64H280.823L282.623 70.4H283.223C285.623 67.8667 288.29 66.0667 291.223 65C294.223 63.8667 297.157 63.3 300.023 63.3C302.357 63.3 304.29 63.6667 305.823 64.4C307.423 65.0667 308.69 66 309.623 67.2C310.557 68.4 311.223 69.8333 311.623 71.5C312.023 73.1667 312.223 74.9333 312.223 76.8C312.223 77.7333 312.157 79.1333 312.023 81C311.89 82.8667 311.59 84.9667 311.123 87.3C310.657 89.5667 309.99 91.9333 309.123 94.4C308.257 96.8 307.09 99 305.623 101C304.223 103 302.423 104.633 300.223 105.9C298.09 107.167 295.523 107.8 292.523 107.8C290.857 107.8 289.223 107.6 287.623 107.2C286.09 106.8 284.69 106.267 283.423 105.6C282.157 104.933 281.023 104.167 280.023 103.3C279.09 102.367 278.39 101.433 277.923 100.5H277.323L272.323 123.8ZM282.923 98.1C284.523 98.1 285.857 97.2667 286.923 95.6C287.99 93.8667 288.857 91.8667 289.523 89.6C290.19 87.2667 290.657 84.9667 290.923 82.7C291.257 80.3667 291.423 78.6333 291.423 77.5C291.423 76.1667 291.19 75.0667 290.723 74.2C290.323 73.3333 289.557 72.9 288.423 72.9C287.157 72.9 285.957 73.3667 284.823 74.3C283.69 75.1667 282.857 75.9333 282.323 76.6L278.423 94.9C278.957 95.6333 279.59 96.3667 280.323 97.1C281.057 97.7667 281.923 98.1 282.923 98.1ZM334.222 107H313.922L323.022 64H343.522L334.222 107ZM346.122 50.9C346.122 52.4333 345.789 53.7667 345.122 54.9C344.522 56.0333 343.689 57 342.622 57.8C341.622 58.6 340.455 59.2 339.122 59.6C337.789 60 336.422 60.2 335.022 60.2C332.355 60.2 330.122 59.5667 328.322 58.3C326.522 57.0333 325.622 55.0333 325.622 52.3C325.622 50.8333 325.922 49.5333 326.522 48.4C327.122 47.2 327.922 46.2333 328.922 45.5C329.989 44.7 331.189 44.1 332.522 43.7C333.922 43.3 335.355 43.1 336.822 43.1C339.422 43.1 341.622 43.7333 343.422 45C345.222 46.2667 346.122 48.2333 346.122 50.9ZM385.819 39.8H406.319L392.019 107H375.819L374.019 100.6H373.319C372.919 101.2 372.285 101.933 371.419 102.8C370.619 103.6 369.585 104.4 368.319 105.2C367.052 105.933 365.552 106.533 363.819 107C362.085 107.533 360.085 107.8 357.819 107.8C355.485 107.8 353.485 107.467 351.819 106.8C350.219 106.067 348.885 105.1 347.819 103.9C346.819 102.7 346.085 101.267 345.619 99.6C345.152 97.8667 344.919 96 344.919 94C344.919 93.1333 344.985 91.7667 345.119 89.9C345.252 87.9667 345.552 85.8667 346.019 83.6C346.552 81.2667 347.285 78.9 348.219 76.5C349.219 74.0333 350.519 71.8 352.119 69.8C353.785 67.8 355.819 66.1667 358.219 64.9C360.619 63.5667 363.519 62.9 366.919 62.9C367.985 62.9 369.119 63 370.319 63.2C371.519 63.4 372.652 63.7667 373.719 64.3C374.852 64.8333 375.852 65.6 376.719 66.6C377.585 67.6 378.219 68.9 378.619 70.5H379.319L385.819 39.8ZM373.619 72.7C372.019 72.7 370.685 73.6 369.619 75.4C368.552 77.1333 367.685 79.1667 367.019 81.5C366.352 83.8333 365.852 86.1667 365.519 88.5C365.252 90.8333 365.119 92.5667 365.119 93.7C365.119 95.0333 365.319 96.1667 365.719 97.1C366.119 97.9667 366.885 98.4 368.019 98.4C368.685 98.4 369.319 98.2667 369.919 98C370.585 97.6667 371.185 97.3 371.719 96.9C372.319 96.4333 372.819 95.9667 373.219 95.5C373.619 95.0333 373.952 94.6333 374.219 94.3L378.119 76.1C377.652 75.3667 377.019 74.6333 376.219 73.9C375.485 73.1 374.619 72.7 373.619 72.7ZM65.4824 135.5H107.582L105.982 143.1H85.5824L81.3824 162.4H98.4824L96.8824 169.9H79.7824L75.1824 191.3H95.5824L94.0824 199H51.9824L65.4824 135.5ZM132.675 167.3L143.175 156H154.675L136.575 174.6L149.475 199H128.275L121.275 185.8L108.075 199H96.5754L117.475 178.6L105.575 156H126.675L132.675 167.3ZM195.406 196.6C192.606 197.733 189.639 198.533 186.506 199C183.439 199.533 179.939 199.8 176.006 199.8C172.539 199.8 169.339 199.467 166.406 198.8C163.539 198.067 161.039 196.933 158.906 195.4C156.773 193.867 155.106 191.9 153.906 189.5C152.706 187.033 152.106 184.067 152.106 180.6C152.106 177 152.706 173.667 153.906 170.6C155.173 167.467 157.039 164.733 159.506 162.4C162.039 160.067 165.239 158.233 169.106 156.9C172.973 155.567 177.573 154.9 182.906 154.9C187.239 154.9 191.006 155.267 194.206 156C197.406 156.667 200.039 158.233 202.106 160.7L199.306 173.5H185.706C185.773 172.367 185.839 171.367 185.906 170.5C185.973 169.633 186.006 168.667 186.006 167.6C186.006 165.467 185.773 163.967 185.306 163.1C184.839 162.167 184.073 161.7 183.006 161.7C181.139 161.7 179.506 162.633 178.106 164.5C176.706 166.3 175.539 168.5 174.606 171.1C173.739 173.633 173.073 176.333 172.606 179.2C172.206 182 172.006 184.4 172.006 186.4C172.006 187.133 172.039 187.9 172.106 188.7C172.173 189.433 172.306 190.133 172.506 190.8C172.773 191.467 173.106 192 173.506 192.4C173.906 192.8 174.473 193 175.206 193C175.873 193 176.639 192.8 177.506 192.4C178.373 192 179.206 191.4 180.006 190.6C180.806 189.733 181.573 188.633 182.306 187.3C183.039 185.967 183.606 184.367 184.006 182.5H198.306L195.406 196.6ZM230.354 162.4H231.054C232.321 161.133 233.788 159.967 235.454 158.9C236.854 157.967 238.521 157.133 240.454 156.4C242.388 155.667 244.554 155.3 246.954 155.3C250.421 155.3 253.288 156.2 255.554 158C257.821 159.733 258.954 162.133 258.954 165.2C258.954 166.133 258.854 167.2 258.654 168.4C258.454 169.533 258.221 170.767 257.954 172.1C257.688 173.367 257.388 174.667 257.054 176C256.788 177.267 256.554 178.433 256.354 179.5L252.154 199H231.854L237.354 172.9C237.488 172.033 237.654 171.167 237.854 170.3C238.054 169.367 238.154 168.533 238.154 167.8C238.154 166.8 237.888 166 237.354 165.4C236.888 164.733 236.154 164.4 235.154 164.4C233.954 164.4 232.788 164.833 231.654 165.7C230.588 166.567 229.754 167.333 229.154 168L222.554 199H202.154L216.354 131.8H236.854L230.354 162.4ZM268.948 159.7C272.348 158.033 275.815 156.833 279.348 156.1C282.948 155.3 286.948 154.9 291.348 154.9C295.615 154.9 299.148 155.233 301.948 155.9C304.748 156.567 306.981 157.533 308.648 158.8C310.315 160.067 311.481 161.567 312.148 163.3C312.815 165.033 313.148 167 313.148 169.2C313.148 170.467 313.048 171.833 312.848 173.3C312.715 174.767 312.548 176 312.348 177L307.648 199H291.548L289.748 192.6H289.148C287.015 194.933 284.515 196.733 281.648 198C278.848 199.2 276.048 199.8 273.248 199.8C271.648 199.8 270.081 199.567 268.548 199.1C267.015 198.633 265.648 197.933 264.448 197C263.248 196 262.281 194.767 261.548 193.3C260.815 191.767 260.448 189.933 260.448 187.8C260.448 184.333 261.381 181.6 263.248 179.6C265.181 177.533 267.681 176 270.748 175C273.881 173.933 277.381 173.267 281.248 173C285.181 172.733 289.115 172.6 293.048 172.6C293.181 171.933 293.348 171 293.548 169.8C293.748 168.533 293.848 167.433 293.848 166.5C293.848 165.3 293.515 164.2 292.848 163.2C292.248 162.133 290.948 161.6 288.948 161.6C286.615 161.6 284.881 162.3 283.748 163.7C282.681 165.033 281.981 166.667 281.648 168.6H267.048L268.948 159.7ZM291.948 177.3H290.148C288.215 177.3 286.548 177.567 285.148 178.1C283.815 178.567 282.715 179.2 281.848 180C281.048 180.8 280.448 181.7 280.048 182.7C279.648 183.7 279.448 184.7 279.448 185.7C279.448 187.3 279.848 188.5 280.648 189.3C281.515 190.1 282.515 190.5 283.648 190.5C285.048 190.5 286.415 190 287.748 189C289.148 188 290.015 186.667 290.348 185L291.948 177.3ZM343.724 162.4C345.124 161.067 346.69 159.833 348.424 158.7C349.957 157.767 351.757 156.9 353.824 156.1C355.89 155.3 358.19 154.9 360.724 154.9C364.19 154.9 367.057 155.8 369.324 157.6C371.59 159.333 372.724 161.733 372.724 164.8C372.724 165.667 372.624 166.733 372.424 168C372.224 169.2 371.99 170.467 371.724 171.8C371.457 173.133 371.157 174.5 370.824 175.9C370.557 177.233 370.324 178.433 370.124 179.5L365.924 199H345.624L351.124 172.9C351.257 172.033 351.424 171.167 351.624 170.3C351.824 169.367 351.924 168.533 351.924 167.8C351.924 166.8 351.657 166 351.124 165.4C350.657 164.733 349.924 164.4 348.924 164.4C347.724 164.4 346.557 164.833 345.424 165.7C344.357 166.567 343.524 167.3 342.924 167.9L336.324 199H315.924L325.024 156H341.324L343.124 162.4H343.724ZM416.318 156H432.518L424.318 194.9C423.718 197.9 422.718 200.667 421.318 203.2C419.918 205.733 417.951 207.933 415.418 209.8C412.951 211.667 409.818 213.133 406.018 214.2C402.284 215.267 397.718 215.8 392.318 215.8C391.318 215.8 390.118 215.767 388.718 215.7C387.318 215.7 385.884 215.667 384.418 215.6C382.951 215.6 381.551 215.567 380.218 215.5C378.884 215.433 377.818 215.367 377.018 215.3L378.918 208.1C381.051 208.433 383.218 208.6 385.418 208.6C387.684 208.667 389.618 208.7 391.218 208.7C393.218 208.7 394.884 208.5 396.218 208.1C397.618 207.767 398.751 207.2 399.618 206.4C400.551 205.6 401.284 204.533 401.818 203.2C402.418 201.867 402.884 200.233 403.218 198.3L404.418 191.8H403.718C403.318 192.4 402.718 193.133 401.918 194C401.184 194.8 400.218 195.6 399.018 196.4C397.818 197.133 396.384 197.767 394.718 198.3C393.118 198.767 391.284 199 389.218 199C386.884 199 384.884 198.667 383.218 198C381.618 197.267 380.318 196.3 379.318 195.1C378.318 193.833 377.584 192.367 377.118 190.7C376.651 188.967 376.418 187.1 376.418 185.1C376.418 184.233 376.484 182.9 376.618 181.1C376.751 179.3 377.051 177.267 377.518 175C378.051 172.733 378.784 170.433 379.718 168.1C380.718 165.7 382.018 163.533 383.618 161.6C385.284 159.667 387.318 158.067 389.718 156.8C392.184 155.533 395.151 154.9 398.618 154.9C399.684 154.9 400.851 155 402.118 155.2C403.384 155.4 404.618 155.767 405.818 156.3C407.018 156.833 408.084 157.6 409.018 158.6C409.951 159.6 410.684 160.9 411.218 162.5H411.818L416.318 156ZM405.118 164.7C403.518 164.7 402.184 165.567 401.118 167.3C400.051 168.967 399.184 170.933 398.518 173.2C397.851 175.467 397.351 177.733 397.018 180C396.751 182.2 396.618 183.833 396.618 184.9C396.618 186.233 396.818 187.367 397.218 188.3C397.684 189.167 398.484 189.6 399.618 189.6C400.284 189.6 400.918 189.433 401.518 189.1C402.184 188.767 402.784 188.4 403.318 188C403.918 187.533 404.418 187.067 404.818 186.6C405.284 186.133 405.618 185.767 405.818 185.5L409.518 168C408.984 167.267 408.351 166.533 407.618 165.8C406.951 165.067 406.118 164.7 405.118 164.7ZM455.13 178.9C454.863 180.367 454.663 181.767 454.53 183.1C454.463 184.433 454.43 185.633 454.43 186.7C454.43 187.3 454.463 187.967 454.53 188.7C454.597 189.433 454.73 190.133 454.93 190.8C455.197 191.4 455.53 191.933 455.93 192.4C456.397 192.8 457.03 193 457.83 193C458.43 193 459.097 192.8 459.83 192.4C460.63 192 461.397 191.433 462.13 190.7C462.93 189.967 463.663 189.067 464.33 188C465.063 186.933 465.63 185.733 466.03 184.4H482.43L479.83 195.1C478.497 195.967 476.963 196.7 475.23 197.3C473.497 197.9 471.663 198.4 469.73 198.8C467.797 199.133 465.83 199.367 463.83 199.5C461.83 199.7 459.93 199.8 458.13 199.8C454.797 199.8 451.697 199.5 448.83 198.9C445.963 198.3 443.463 197.267 441.33 195.8C439.197 194.333 437.497 192.4 436.23 190C435.03 187.533 434.43 184.5 434.43 180.9C434.43 177.633 434.93 174.433 435.93 171.3C436.997 168.167 438.73 165.4 441.13 163C443.597 160.533 446.863 158.567 450.93 157.1C455.063 155.633 460.197 154.9 466.33 154.9C472.997 154.9 477.997 155.933 481.33 158C484.73 160.067 486.43 163.3 486.43 167.7C486.43 169.5 486.163 171.467 485.63 173.6C485.097 175.667 484.297 177.433 483.23 178.9H455.13ZM468.43 167C468.43 164.933 468.097 163.533 467.43 162.8C466.763 162.067 465.963 161.7 465.03 161.7C463.963 161.7 462.963 162.067 462.03 162.8C461.163 163.467 460.363 164.4 459.63 165.6C458.897 166.733 458.23 168.067 457.63 169.6C457.03 171.067 456.53 172.633 456.13 174.3H467.53C467.663 173.5 467.797 172.667 467.93 171.8C468.063 171.067 468.163 170.267 468.23 169.4C468.363 168.533 468.43 167.733 468.43 167Z" fill="white"/>
<path d="M411 114.5L486 72.5L411 5V36H383L378 60.5H350.602C349.501 60.5 348.851 59.2642 349.476 58.3571V58.3571C355.412 49.7402 349.244 38 338.78 38H331.227C321.607 38 314.886 47.5231 318.109 56.587V56.587C318.787 58.4951 317.372 60.5 315.347 60.5H206.5L213 38H154.448C148.016 38 142.411 42.3829 140.861 48.6254L124.5 114.5H229.257C238.791 114.5 245.799 123.442 243.52 132.7V132.7C241.729 139.974 247.236 147 254.727 147H468.554C484.638 147 496.537 161.967 492.911 177.636L486 207.5H427L411 220.5H371.5L374.5 207.5H77V233L4 165L77 106" stroke="white" stroke-width="4" stroke-linecap="round"/>
</svg>
