<svg width="469" height="91" viewBox="0 0 469 91" fill="none" xmlns="http://www.w3.org/2000/svg">
<path d="M33.08 90.96C26.68 90.96 20.56 90 14.72 88.08C8.88 86.08 4.28 83.52 0.92 80.4L5.36 71.04C8.56 73.84 12.64 76.16 17.6 78C22.56 79.84 27.72 80.76 33.08 80.76C37.96 80.76 41.92 80.2 44.96 79.08C48 77.96 50.24 76.44 51.68 74.52C53.12 72.52 53.84 70.28 53.84 67.8C53.84 64.92 52.88 62.6 50.96 60.84C49.12 59.08 46.68 57.68 43.64 56.64C40.68 55.52 37.4 54.56 33.8 53.76C30.2 52.96 26.56 52.04 22.88 51C19.28 49.88 15.96 48.48 12.92 46.8C9.96 45.12 7.56 42.88 5.72 40.08C3.88 37.2 2.96 33.52 2.96 29.04C2.96 24.72 4.08 20.76 6.32 17.16C8.64 13.48 12.16 10.56 16.88 8.4C21.68 6.16 27.76 5.04 35.12 5.04C40 5.04 44.84 5.68 49.64 6.96C54.44 8.23999 58.6 10.08 62.12 12.48L58.16 22.08C54.56 19.68 50.76 17.96 46.76 16.92C42.76 15.8 38.88 15.24 35.12 15.24C30.4 15.24 26.52 15.84 23.48 17.04C20.44 18.24 18.2 19.84 16.76 21.84C15.4 23.84 14.72 26.08 14.72 28.56C14.72 31.52 15.64 33.88 17.48 35.64C19.4 37.4 21.84 38.8 24.8 39.84C27.84 40.88 31.16 41.84 34.76 42.72C38.36 43.52 41.96 44.44 45.56 45.48C49.24 46.52 52.56 47.88 55.52 49.56C58.56 51.24 61 53.48 62.84 56.28C64.68 59.08 65.6 62.68 65.6 67.08C65.6 71.32 64.44 75.28 62.12 78.96C59.8 82.56 56.2 85.48 51.32 87.72C46.52 89.88 40.44 90.96 33.08 90.96ZM111.691 90.72C105.291 90.72 100.331 89 96.8113 85.56C93.2913 82.12 91.5313 77.2 91.5313 70.8V12.48H103.051V70.32C103.051 73.76 103.891 76.4 105.571 78.24C107.331 80.08 109.811 81 113.011 81C116.611 81 119.611 80 122.011 78L125.611 86.28C123.851 87.8 121.731 88.92 119.251 89.64C116.851 90.36 114.331 90.72 111.691 90.72ZM80.7313 35.88V26.4H121.291V35.88H80.7313ZM174.149 90.72C167.349 90.72 161.349 89.32 156.149 86.52C151.029 83.72 147.029 79.88 144.149 75C141.349 70.12 139.949 64.52 139.949 58.2C139.949 51.88 141.309 46.28 144.029 41.4C146.829 36.52 150.629 32.72 155.429 30C160.309 27.2 165.789 25.8 171.869 25.8C178.029 25.8 183.469 27.16 188.189 29.88C192.909 32.6 196.589 36.44 199.229 41.4C201.949 46.28 203.309 52 203.309 58.56C203.309 59.04 203.269 59.6 203.189 60.24C203.189 60.88 203.149 61.48 203.069 62.04H148.949V53.76H197.069L192.389 56.64C192.469 52.56 191.629 48.92 189.869 45.72C188.109 42.52 185.669 40.04 182.549 38.28C179.509 36.44 175.949 35.52 171.869 35.52C167.869 35.52 164.309 36.44 161.189 38.28C158.069 40.04 155.629 42.56 153.869 45.84C152.109 49.04 151.229 52.72 151.229 56.88V58.8C151.229 63.04 152.189 66.84 154.109 70.2C156.109 73.48 158.869 76.04 162.389 77.88C165.909 79.72 169.949 80.64 174.509 80.64C178.269 80.64 181.669 80 184.709 78.72C187.829 77.44 190.549 75.52 192.869 72.96L199.229 80.4C196.349 83.76 192.749 86.32 188.429 88.08C184.189 89.84 179.429 90.72 174.149 90.72ZM265.428 90V76.56L264.828 74.04V51.12C264.828 46.24 263.388 42.48 260.508 39.84C257.708 37.12 253.468 35.76 247.788 35.76C244.028 35.76 240.348 36.4 236.748 37.68C233.148 38.88 230.108 40.52 227.628 42.6L222.828 33.96C226.108 31.32 230.028 29.32 234.588 27.96C239.228 26.52 244.068 25.8 249.108 25.8C257.828 25.8 264.548 27.92 269.268 32.16C273.988 36.4 276.348 42.88 276.348 51.6V90H265.428ZM244.548 90.72C239.828 90.72 235.668 89.92 232.068 88.32C228.548 86.72 225.828 84.52 223.908 81.72C221.988 78.84 221.028 75.6 221.028 72C221.028 68.56 221.828 65.44 223.428 62.64C225.108 59.84 227.788 57.6 231.468 55.92C235.228 54.24 240.268 53.4 246.588 53.4H266.748V61.68H247.068C241.308 61.68 237.428 62.64 235.428 64.56C233.428 66.48 232.428 68.8 232.428 71.52C232.428 74.64 233.668 77.16 236.148 79.08C238.628 80.92 242.068 81.84 246.468 81.84C250.788 81.84 254.548 80.88 257.748 78.96C261.028 77.04 263.388 74.24 264.828 70.56L267.108 78.48C265.588 82.24 262.908 85.24 259.068 87.48C255.228 89.64 250.388 90.72 244.548 90.72ZM306.067 90V0.959995H317.587V90H306.067ZM371.463 90.72C365.063 90.72 360.103 89 356.583 85.56C353.063 82.12 351.303 77.2 351.303 70.8V12.48H362.823V70.32C362.823 73.76 363.663 76.4 365.343 78.24C367.103 80.08 369.583 81 372.783 81C376.383 81 379.383 80 381.783 78L385.383 86.28C383.623 87.8 381.503 88.92 379.023 89.64C376.623 90.36 374.103 90.72 371.463 90.72ZM340.503 35.88V26.4H381.063V35.88H340.503ZM441.671 25.8C446.871 25.8 451.431 26.8 455.351 28.8C459.351 30.8 462.471 33.84 464.711 37.92C466.951 42 468.071 47.16 468.071 53.4V90H456.551V54.72C456.551 48.56 455.031 43.92 451.991 40.8C449.031 37.68 444.831 36.12 439.391 36.12C435.311 36.12 431.751 36.92 428.711 38.52C425.671 40.12 423.311 42.48 421.631 45.6C420.031 48.72 419.231 52.6 419.231 57.24V90H407.711V0.959995H419.231V43.56L416.951 39C419.031 34.84 422.231 31.6 426.551 29.28C430.871 26.96 435.911 25.8 441.671 25.8Z" fill="white"/>
</svg>
