<svg
          
          xmlns="http://www.w3.org/2000/svg"
          width="26"
          height="214"
          viewBox="0 0 26 214"
          fill="none"
        >
          <rect
            x="1.89904"
            y="2.99265"
            width="4.7224"
            height="24.2038"
            rx="2.3612"
            transform="rotate(-25 1.89904 2.99265)"
            stroke="white"
            stroke-opacity="0.2"
            stroke-width="1.5"
          />
          <rect
            x="20.3862"
            y="1.01037"
            width="4.7224"
            height="24.2038"
            rx="2.3612"
            transform="rotate(25 20.3862 1.01037)"
            stroke="white"
            stroke-opacity="0.2"
            stroke-width="1.5"
          />
          <rect
            x="24.782"
            y="69.6428"
            width="4.7228"
            height="24.2055"
            rx="2.3614"
            transform="rotate(154.596 24.782 69.6428)"
            stroke="white"
            stroke-opacity="0.2"
            stroke-width="1.5"
          />
          <rect
            x="6.2474"
            y="71.7574"
            width="4.7228"
            height="24.2055"
            rx="2.3614"
            transform="rotate(-155.404 6.2474 71.7574)"
            stroke="white"
            stroke-opacity="0.2"
            stroke-width="1.5"
          />
          <g opacity="0.2">
            <ellipse
              cx="15.014"
              cy="104.577"
              rx="3.14659"
              ry="3.37366"
              transform="rotate(0.918186 15.014 104.577)"
              fill="#E8E8E8"
            />
            <path
              d="M19.1869 93.9508C17.2241 94.0514 16.5009 94.2307 15.9854 94.7654C15.3621 95.3717 15.2587 96.0011 15.1337 99.6386C15.0133 102.983 15.0598 104.246 15.2929 103.853C15.3888 103.693 15.509 103.68 15.8803 103.818L16.3445 103.987L17.8087 102.529C18.6085 101.734 20.7917 99.5239 22.6501 97.6017C25.9327 94.2204 26.0276 94.1191 25.6423 94.025C25.1109 93.8843 21.2031 93.8365 19.1869 93.9508Z"
              fill="#FF6600"
            />
            <path
              d="M2.25297 97.3705C2.45389 98.1515 2.92824 100.184 3.32774 101.893C4.0526 104.943 4.06501 105.002 4.65457 105.671C5.07376 106.148 5.42998 106.403 5.86809 106.527C6.75778 106.791 6.85127 106.778 8.74178 106.192C9.69345 105.899 11.2488 105.41 12.214 105.117C13.3805 104.755 13.958 104.514 13.9199 104.396C13.8948 104.293 13.9366 104.176 14.0043 104.119C14.085 104.076 14.1269 103.959 14.0881 103.885C14.0358 103.811 14.0902 103.753 14.1835 103.755C14.3302 103.757 4.01719 97.164 2.39159 96.2133L1.90234 95.9414L2.25297 97.3705Z"
              fill="#FF6600"
            />
            <path
              d="M15.6981 105.849C15.5637 105.92 15.4567 105.933 15.4577 105.874C15.4586 105.816 15.4047 105.844 15.3363 105.96C15.2539 106.106 15.1602 106.119 14.9491 105.984C14.6979 105.833 14.6575 105.861 14.5972 106.286C14.5529 106.55 14.474 107.326 14.4229 108.015C14.3218 109.319 14.1421 111.386 13.8525 114.463C13.5943 117.262 13.3958 119.666 13.4088 119.68C13.4218 119.695 14.8425 118.456 16.548 116.913C19.1737 114.563 19.7161 114.014 19.9655 113.431C20.6437 111.901 20.401 111.237 18.0891 108.162C17.0568 106.81 16.1542 105.695 16.0742 105.693C15.9942 105.692 15.8196 105.763 15.6981 105.849Z"
              fill="#FF6600"
            />
            <path
              d="M14.9877 106.113C15.7611 106.125 16.3991 105.446 16.4128 104.595C16.4264 103.744 15.8105 103.044 15.0371 103.032C14.2637 103.019 13.6257 103.699 13.612 104.55C13.5984 105.401 14.2143 106.1 14.9877 106.113Z"
              fill="#1F1F1F"
            />
          </g>
          <rect
            x="4.24609"
            y="141.373"
            width="4.75456"
            height="24.3367"
            rx="2.37728"
            stroke="white"
            stroke-opacity="0.2"
            stroke-width="1.5"
          />
          <rect
            x="17.5781"
            y="141.373"
            width="4.75456"
            height="24.3367"
            rx="2.37728"
            stroke="white"
            stroke-opacity="0.2"
            stroke-width="1.5"
          />
          <rect
            x="4.28125"
            y="165.812"
            width="4.70976"
            height="17.9684"
            rx="2.35488"
            transform="rotate(-90 4.28125 165.812)"
            stroke="white"
            stroke-opacity="0.2"
            stroke-width="1.5"
          />
          <rect
            x="23.1406"
            y="189.215"
            width="4.13975"
            height="19.196"
            rx="2.06987"
            transform="rotate(90 23.1406 189.215)"
            stroke="white"
            stroke-opacity="0.2"
            stroke-width="1.5"
          />
          <rect
            x="0.0209473"
            y="-1.1374"
            width="3.77283"
            height="27.8159"
            rx="1.88641"
            transform="matrix(-0.63772 -0.770267 0.66565 -0.746263 6.0961 211.283)"
            stroke="white"
            stroke-opacity="0.2"
            stroke-width="1.5"
          />
          <rect
            x="22.6133"
            y="207.354"
            width="4.13975"
            height="18.934"
            rx="2.06987"
            transform="rotate(90 22.6133 207.354)"
            stroke="white"
            stroke-opacity="0.2"
            stroke-width="1.5"
          />
        </svg>