<svg width="42" height="484" viewBox="0 0 42 484" fill="none" xmlns="http://www.w3.org/2000/svg">
<path d="M0 25C0 11.1929 11.1929 0 25 0H42V484H25C11.1929 484 0 472.807 0 459V25Z" fill="#A35DFF"/>
<path d="M13 188.84L29.8 181.664L29.8 186.8L15.256 192.848L15.256 189.824L29.8 196.016L29.8 200.72L13 193.52L13 188.84ZM13 234.103L29.8 234.103L29.8 238.855L13 238.855L13 234.103ZM13 274.636L29.8 274.636L29.8 282.316C29.8 283.852 29.552 285.172 29.056 286.276C28.56 287.396 27.84 288.26 26.896 288.868C25.968 289.476 24.864 289.78 23.584 289.78C22.32 289.78 21.224 289.476 20.296 288.868C19.368 288.26 18.648 287.396 18.136 286.276C17.64 285.172 17.392 283.852 17.392 282.316L17.392 277.276L19.456 279.388L13 279.388L13 274.636ZM18.952 279.388L21.136 277.276L21.136 282.028C21.136 283.02 21.352 283.756 21.784 284.236C22.216 284.732 22.816 284.98 23.584 284.98C24.368 284.98 24.976 284.732 25.408 284.236C25.84 283.756 26.056 283.02 26.056 282.028L26.056 277.276L28.24 279.388L18.952 279.388Z" fill="white"/>
<path d="M21 140L23.6942 148.292H32.4127L25.3593 153.416L28.0534 161.708L21 156.584L13.9466 161.708L16.6407 153.416L9.58732 148.292H18.3058L21 140Z" fill="white"/>
<path d="M21 112L23.0206 118.219H29.5595L24.2694 122.062L26.2901 128.281L21 124.438L15.7099 128.281L17.7306 122.062L12.4405 118.219H18.9794L21 112Z" fill="white"/>
<path d="M21 88L22.5716 92.8369H27.6574L23.5429 95.8262L25.1145 100.663L21 97.6738L16.8855 100.663L18.4571 95.8262L14.3426 92.8369H19.4284L21 88Z" fill="white"/>
<path d="M21 333L23.6942 324.708H32.4127L25.3593 319.584L28.0534 311.292L21 316.416L13.9466 311.292L16.6407 319.584L9.58732 324.708H18.3058L21 333Z" fill="white"/>
<path d="M21 361L23.0206 354.781H29.5595L24.2694 350.938L26.2901 344.719L21 348.562L15.7099 344.719L17.7306 350.938L12.4405 354.781H18.9794L21 361Z" fill="white"/>
<path d="M21 385L22.5716 380.163H27.6574L23.5429 377.174L25.1145 372.337L21 375.326L16.8855 372.337L18.4571 377.174L14.3426 380.163H19.4284L21 385Z" fill="white"/>
</svg>
