<svg
            xmlns="http://www.w3.org/2000/svg"
            width="15"
            height="12"
            viewBox="0 0 15 12"
            fill="none"
          >
            <g clip-path="url(#clip0_833_330)">
              <path
                d="M5.04 6C6.63075 6 7.92 4.6568 7.92 3C7.92 1.3432 6.63075 0 5.04 0C3.44925 0 2.16 1.3432 2.16 3C2.16 4.6568 3.44925 6 5.04 6ZM5.04 1.125C6.03247 1.125 6.84 1.96617 6.84 3C6.84 4.03383 6.03247 4.875 5.04 4.875C4.04752 4.875 3.24 4.03359 3.24 3C3.24 1.96617 4.04775 1.125 5.04 1.125ZM6.18075 7.125H3.89925C1.74532 7.125 0 8.94375 0 11.1867C0 11.6367 0.3492 12 0.77985 12H9.29925C9.73125 12 10.08 11.6367 10.08 11.1867C10.08 8.94375 8.334 7.125 6.18075 7.125ZM1.09597 10.875C1.24605 9.40078 2.44575 8.25 3.89925 8.25H6.18075C7.63447 8.25 8.8155 9.40148 8.98425 10.875H1.09597ZM10.7797 7.5H9.11812C10.152 8.38359 10.8 9.70547 10.8 11.1867C10.8 11.4867 10.7145 11.7633 10.575 12H13.68C14.0782 12 14.4 11.6625 14.4 11.2289C14.4 9.17813 12.789 7.5 10.7797 7.5ZM9.72 6C11.1127 6 12.24 4.82578 12.24 3.375C12.24 1.92422 11.1127 0.75 9.72 0.75C9.15502 0.75 8.6391 0.950508 8.2188 1.27758C8.478 1.79602 8.64 2.37656 8.64 3C8.64 3.8325 8.37157 4.59703 7.92922 5.21977C8.38575 5.7 9.018 6 9.72 6Z"
                fill="#B5B5B5"
              />
            </g>
            <defs>
              <clipPath id="clip0_833_330">
                <rect width="14.4" height="12" fill="white" />
              </clipPath>
            </defs>
          </svg>