  <svg
            xmlns="http://www.w3.org/2000/svg"
            width="17"
            height="11"
            viewBox="0 0 17 11"
            fill="none"
          >
            <path
              d="M1.125 4.85C0.766015 4.85 0.475 5.14101 0.475 5.5C0.475 5.85899 0.766015 6.15 1.125 6.15V4.85ZM16.5846 5.95962C16.8385 5.70578 16.8385 5.29422 16.5846 5.04038L12.448 0.903806C12.1942 0.649965 11.7826 0.649965 11.5288 0.903806C11.275 1.15765 11.275 1.5692 11.5288 1.82304L15.2058 5.5L11.5288 9.17696C11.275 9.4308 11.275 9.84235 11.5288 10.0962C11.7826 10.35 12.1942 10.35 12.448 10.0962L16.5846 5.95962ZM1.125 6.15H16.125V4.85H1.125V6.15Z"
              fill="white"
            />
          </svg>