 <svg
                  xmlns="http://www.w3.org/2000/svg"
                  width="10"
                  height="12"
                  viewBox="0 0 10 12"
                  fill="none"
                >
                  <g clip-path="url(#clip0_833_341)">
                    <path
                      d="M7.21053 4.5C7.21053 5.53594 6.3273 6.375 5.23684 6.375C4.14638 6.375 3.26316 5.53594 3.26316 4.5C3.26316 3.46406 4.14638 2.625 5.23684 2.625C6.3273 2.625 7.21053 3.46406 7.21053 4.5ZM5.23684 3.75C4.80016 3.75 4.44737 4.08516 4.44737 4.5C4.44737 4.91484 4.80016 5.25 5.23684 5.25C5.67352 5.25 6.02632 4.91484 6.02632 4.5C6.02632 4.08516 5.67352 3.75 5.23684 3.75ZM9.97368 4.5C9.97368 6.54844 7.08717 10.1953 5.82155 11.7C5.51809 12.0586 4.95559 12.0586 4.65214 11.7C3.36431 10.1953 0.5 6.54844 0.5 4.5C0.5 2.01469 2.62072 0 5.23684 0C7.85197 0 9.97368 2.01469 9.97368 4.5ZM5.23684 1.125C3.27549 1.125 1.68421 2.63672 1.68421 4.5C1.68421 4.79062 1.79498 5.24062 2.06168 5.84062C2.32023 6.42187 2.68734 7.06406 3.1102 7.71328C3.81086 8.79609 4.625 9.82266 5.23684 10.5867C5.84868 9.82266 6.66283 8.79609 7.36349 7.71328C7.78536 7.06406 8.15296 6.42187 8.41201 5.84062C8.67845 5.24062 8.78947 4.79062 8.78947 4.5C8.78947 2.63672 7.19819 1.125 5.23684 1.125Z"
                      fill="#B5B5B5"
                    />
                  </g>
                  <defs>
                    <clipPath id="clip0_833_341">
                      <rect
                        width="9.47368"
                        height="12"
                        fill="white"
                        transform="translate(0.5)"
                      />
                    </clipPath>
                  </defs>
                </svg>