 <svg
            xmlns="http://www.w3.org/2000/svg"
            width="13"
            height="12"
            viewBox="0 0 13 12"
            fill="none"
          >
            <g clip-path="url(#clip0_833_345)">
              <path
                d="M5.10156 1.3125V2.25H8.85156V1.3125C8.85156 1.20938 8.76719 1.125 8.66406 1.125H5.28906C5.18594 1.125 5.10156 1.20938 5.10156 1.3125ZM3.97656 2.25V1.3125C3.97656 0.588281 4.56484 0 5.28906 0H8.66406C9.38828 0 9.97656 0.588281 9.97656 1.3125V2.25H11.4766C12.3039 2.25 12.9766 2.92266 12.9766 3.75V6.5625V9.75C12.9766 10.5773 12.3039 11.25 11.4766 11.25H2.47656C1.64922 11.25 0.976562 10.5773 0.976562 9.75V6.5625V3.75C0.976562 2.92266 1.64922 2.25 2.47656 2.25H3.97656ZM2.10156 7.125V9.75C2.10156 9.95625 2.27031 10.125 2.47656 10.125H11.4766C11.6828 10.125 11.8516 9.95625 11.8516 9.75V7.125H8.47656V7.5C8.47656 7.91484 8.14141 8.25 7.72656 8.25H6.22656C5.81172 8.25 5.47656 7.91484 5.47656 7.5V7.125H2.10156ZM5.47656 6H8.47656H11.8516V3.75C11.8516 3.54375 11.6828 3.375 11.4766 3.375H9.41406H4.53906H2.47656C2.27031 3.375 2.10156 3.54375 2.10156 3.75V6H5.47656Z"
                fill="#B5B5B5"
              />
            </g>
            <defs>
              <clipPath id="clip0_833_345">
                <rect
                  width="12"
                  height="12"
                  fill="white"
                  transform="translate(0.976562)"
                />
              </clipPath>
            </defs>
          </svg>