<svg width="24" height="24" viewBox="0 0 24 24" fill="none" xmlns="http://www.w3.org/2000/svg">
<path d="M12.6103 2.21C12.2503 1.93 11.7503 1.93 11.3903 2.21C9.49032 3.66 3.88028 8.39 3.91028 13.9C3.91028 18.36 7.54031 22 12.0103 22C16.4803 22 20.1103 18.37 20.1103 13.91C20.1203 8.48 14.5003 3.67 12.6103 2.21Z" stroke="url(#paint0_linear_1083_972)" stroke-width="1.5" stroke-miterlimit="10"/>
<path d="M12 2V22" stroke="url(#paint1_linear_1083_972)" stroke-width="1.5" stroke-linecap="round" stroke-linejoin="round"/>
<path d="M12 18.9602L19.7 15.2202" stroke="url(#paint2_linear_1083_972)" stroke-width="1.5" stroke-linecap="round" stroke-linejoin="round"/>
<path d="M12 13.9599L19.37 10.3799" stroke="url(#paint3_linear_1083_972)" stroke-width="1.5" stroke-linecap="round" stroke-linejoin="round"/>
<path d="M12 8.95976L17.03 6.50977" stroke="url(#paint4_linear_1083_972)" stroke-width="1.5" stroke-linecap="round" stroke-linejoin="round"/>
<defs>
<linearGradient id="paint0_linear_1083_972" x1="4.42922" y1="10.538" x2="19.9781" y2="10.8954" gradientUnits="userSpaceOnUse">
<stop stop-color="#08A7CE"/>
<stop offset="0.436007" stop-color="#F60163"/>
<stop offset="0.609678" stop-color="#FC0600"/>
<stop offset="0.915539" stop-color="#FF6600"/>
<stop offset="1" stop-color="#0AD80A"/>
</linearGradient>
<linearGradient id="paint1_linear_1083_972" x1="12.032" y1="10.538" x2="12.9923" y2="10.5394" gradientUnits="userSpaceOnUse">
<stop stop-color="#08A7CE"/>
<stop offset="0.436007" stop-color="#F60163"/>
<stop offset="0.609678" stop-color="#FC0600"/>
<stop offset="0.915539" stop-color="#FF6600"/>
<stop offset="1" stop-color="#0AD80A"/>
</linearGradient>
<linearGradient id="paint2_linear_1083_972" x1="12.2467" y1="16.8168" x2="19.6159" y2="17.2473" gradientUnits="userSpaceOnUse">
<stop stop-color="#08A7CE"/>
<stop offset="0.436007" stop-color="#F60163"/>
<stop offset="0.609678" stop-color="#FC0600"/>
<stop offset="0.915539" stop-color="#FF6600"/>
<stop offset="1" stop-color="#0AD80A"/>
</linearGradient>
<linearGradient id="paint3_linear_1083_972" x1="12.2361" y1="11.9082" x2="19.2895" y2="12.3202" gradientUnits="userSpaceOnUse">
<stop stop-color="#08A7CE"/>
<stop offset="0.436007" stop-color="#F60163"/>
<stop offset="0.609678" stop-color="#FC0600"/>
<stop offset="0.915539" stop-color="#FF6600"/>
<stop offset="1" stop-color="#0AD80A"/>
</linearGradient>
<linearGradient id="paint4_linear_1083_972" x1="12.1612" y1="7.55567" x2="16.9752" y2="7.83613" gradientUnits="userSpaceOnUse">
<stop stop-color="#08A7CE"/>
<stop offset="0.436007" stop-color="#F60163"/>
<stop offset="0.609678" stop-color="#FC0600"/>
<stop offset="0.915539" stop-color="#FF6600"/>
<stop offset="1" stop-color="#0AD80A"/>
</linearGradient>
</defs>
</svg>
