<svg
            xmlns="http://www.w3.org/2000/svg"
            width="40"
            height="40"
            viewBox="0 0 40 40"
            fill="none"
          >
            <g clip-path="url(#clip0_829_99)">
              <path
                d="M12.0156 5.633C12.7109 4.85957 12.6484 3.67988 11.875 2.98457C11.1016 2.28925 9.92188 2.35175 9.22656 3.12519L4.92969 7.89863L3.20312 6.17207C2.46875 5.4455 1.28125 5.4455 0.546875 6.17207C-0.1875 6.89863 -0.1875 8.09394 0.546875 8.8205L3.67188 11.9455C4.03906 12.3127 4.53125 12.508 5.04688 12.4924C5.5625 12.4768 6.04688 12.258 6.39063 11.8752L12.0156 5.62519V5.633ZM12.0156 18.133C12.7109 17.3596 12.6484 16.1799 11.875 15.4846C11.1016 14.7893 9.92188 14.8518 9.22656 15.6252L4.92969 20.3986L3.20312 18.6721C2.46875 17.9377 1.28125 17.9377 0.554688 18.6721C-0.171875 19.4064 -0.179688 20.5939 0.554688 21.3205L3.67969 24.4455C4.04688 24.8127 4.53906 25.008 5.05469 24.9924C5.57031 24.9768 6.05469 24.758 6.39844 24.3752L12.0234 18.1252L12.0156 18.133ZM16.875 9.37519H38.125C39.1641 9.37519 40 8.53925 40 7.50019C40 6.46113 39.1641 5.62519 38.125 5.62519H16.875C15.8359 5.62519 15 6.46113 15 7.50019C15 8.53925 15.8359 9.37519 16.875 9.37519ZM15 20.0002C15 21.0393 15.8359 21.8752 16.875 21.8752H38.125C39.1641 21.8752 40 21.0393 40 20.0002C40 18.9611 39.1641 18.1252 38.125 18.1252H16.875C15.8359 18.1252 15 18.9611 15 20.0002ZM12.5 32.5002C12.5 33.5393 13.3359 34.3752 14.375 34.3752H38.125C39.1641 34.3752 40 33.5393 40 32.5002C40 31.4611 39.1641 30.6252 38.125 30.6252H14.375C13.3359 30.6252 12.5 31.4611 12.5 32.5002ZM7.5 32.5002C7.5 31.8371 7.23661 31.2013 6.76777 30.7324C6.29893 30.2636 5.66304 30.0002 5 30.0002C4.33696 30.0002 3.70107 30.2636 3.23223 30.7324C2.76339 31.2013 2.5 31.8371 2.5 32.5002C2.5 33.1632 2.76339 33.7991 3.23223 34.268C3.70107 34.7368 4.33696 35.0002 5 35.0002C5.66304 35.0002 6.29893 34.7368 6.76777 34.268C7.23661 33.7991 7.5 33.1632 7.5 32.5002Z"
                fill="#0AD80A"
              />
            </g>
            <defs>
              <clipPath id="clip0_829_99">
                <rect width="40" height="40" fill="white" />
              </clipPath>
            </defs>
          </svg>