<svg width="199" height="200" viewBox="0 0 199 200" fill="none" xmlns="http://www.w3.org/2000/svg">
<path d="M33.124 113.397C32.9743 113.776 32.7407 113.919 32.4238 113.827C31.3175 113.431 30.3343 112.858 29.4743 112.107C28.6155 111.356 28.1767 110.469 28.1589 109.446C28.1492 108.875 28.2337 108.317 28.4118 107.775C28.5904 107.231 28.8492 106.582 29.187 105.827C29.4703 105.173 29.6721 104.669 29.7928 104.314C29.9148 103.958 29.974 103.613 29.9687 103.279C29.9612 102.867 29.8079 102.492 29.5089 102.154C29.2088 101.814 28.7102 101.513 28.0149 101.25C27.7376 101.135 27.5969 100.949 27.5928 100.692C27.5908 100.595 27.5991 100.518 27.6177 100.461C27.6535 100.302 27.7244 100.178 27.8316 100.09C27.939 99.9985 28.0904 99.9795 28.287 100.032C29.336 100.348 30.2942 100.898 31.1616 101.68C32.0308 102.462 32.4554 103.363 32.4347 104.384C32.4282 105.113 32.3316 105.74 32.1461 106.265C31.9589 106.789 31.6933 107.379 31.3483 108.034C31.1032 108.491 30.9195 108.887 30.7978 109.224C30.6755 109.56 30.6171 109.913 30.623 110.285C30.6333 110.856 30.7981 111.288 31.1177 111.579C31.4361 111.868 31.9527 112.203 32.6664 112.582C33.0052 112.711 33.1763 112.894 33.179 113.129C33.1809 113.191 33.1625 113.28 33.124 113.397Z" fill="white"/>
<path d="M38.4939 97.6969C38.4556 97.8711 38.366 97.9879 38.2241 98.047C38.0803 98.1056 37.9228 98.1166 37.7509 98.0796C37.4671 98.0007 37.3076 97.9015 37.2716 97.7825C37.2362 97.6641 37.2453 97.4802 37.2995 97.2315C37.4201 96.6754 37.4083 96.2399 37.2652 95.9263C37.1204 95.612 36.911 95.3861 36.6377 95.2478C36.3663 95.109 35.9831 94.9769 35.4876 94.8508L24.0396 92.3909C23.537 92.303 23.1329 92.2659 22.8288 92.2803C22.5235 92.2958 22.2412 92.4172 21.9824 92.644C21.7231 92.869 21.5325 93.2602 21.4113 93.8169L21.3748 93.9906C21.339 94.1626 21.2782 94.2848 21.1919 94.3566C21.105 94.4302 20.9252 94.4479 20.6514 94.4098C20.4801 94.3734 20.3402 94.2982 20.2329 94.1842C20.1268 94.0702 20.0919 93.9264 20.1296 93.7528C20.4559 92.5164 20.7296 91.3801 20.9512 90.3445C21.2015 89.19 21.4299 87.9816 21.6383 86.7191C21.6784 86.5444 21.7698 86.4271 21.9129 86.3692C22.0566 86.3106 22.2147 86.3002 22.3861 86.3366C22.6685 86.4178 22.8287 86.5165 22.8653 86.6337C22.8996 86.7509 22.8877 86.9441 22.8289 87.2151C22.7106 87.7737 22.723 88.2087 22.8679 88.5206C23.0116 88.8336 23.2247 89.0562 23.5078 89.1878C23.7909 89.3194 24.1713 89.4461 24.6469 89.5677L36.0948 92.0275C36.5792 92.1116 36.9779 92.1514 37.291 92.147C37.6041 92.1425 37.8902 92.029 38.1483 91.8051C38.4082 91.5807 38.5982 91.1889 38.7171 90.6297L38.7561 90.4538C38.7963 90.2631 38.8593 90.1321 38.945 90.0596C39.029 89.9865 39.2087 89.9687 39.4855 90.0064C39.6574 90.0434 39.7973 90.1186 39.9041 90.232C40.009 90.3447 40.0427 90.4885 40.0026 90.6632C39.6819 91.8797 39.3989 93.0653 39.1528 94.2195C38.9255 95.2762 38.7052 96.4351 38.4939 97.6969Z" fill="white"/>
<path d="M28.2881 82.6838C28.2951 82.8767 28.2199 83.0167 28.0625 83.1024C27.9027 83.188 27.7393 83.1976 27.5728 83.1318C27.3901 83.0606 27.2977 82.9194 27.2962 82.709C27.3082 81.81 27.1922 81.0912 26.9481 80.5525C26.7036 80.012 26.3062 79.6357 25.7561 79.4236C25.4446 79.3031 25.1563 79.2974 24.8918 79.4049C24.6278 79.5129 24.324 79.689 23.9785 79.9338C23.6282 80.1782 23.3286 80.3516 23.0797 80.4539C22.8302 80.5578 22.5678 80.5557 22.2907 80.4481C21.945 80.3136 21.6801 80.0578 21.4967 79.6813C21.3139 79.3042 21.2977 78.9237 21.4477 78.5389C21.6475 78.025 21.9904 77.6207 22.4757 77.3256C22.9606 77.0287 23.5084 76.8556 24.1186 76.8068C24.7276 76.7592 25.2894 76.835 25.8028 77.0342C26.8465 77.4398 27.5488 78.1657 27.9109 79.2129C28.2718 80.2613 28.3977 81.4185 28.2881 82.6838Z" fill="white"/>
<path d="M48.9991 72.788C48.8224 73.0215 48.6208 73.1272 48.3943 73.1036L32.4183 69.3341L32.3627 69.4074L41.7367 76.4216C42.1711 76.7267 42.5202 76.942 42.7828 77.0673C43.0472 77.1922 43.3426 77.2118 43.669 77.125C43.9936 77.0375 44.3279 76.7668 44.6714 76.311L44.7775 76.169C44.8955 76.0139 45.0076 75.9219 45.115 75.8931C45.2242 75.8638 45.3939 75.9244 45.6257 76.0756C45.7666 76.1805 45.8608 76.3075 45.909 76.4561C45.9591 76.6042 45.9305 76.748 45.8226 76.8882L45.3529 77.4614C44.7754 78.1575 44.3687 78.6619 44.1331 78.9763C43.7291 79.511 43.1655 80.3044 42.4419 81.3559C42.3357 81.4979 42.2046 81.5665 42.0484 81.5604C41.8924 81.552 41.7445 81.4954 41.6036 81.3905C41.3802 81.1988 41.2753 81.0452 41.2883 80.9303C41.3002 80.8141 41.3898 80.6464 41.5582 80.4261C41.8998 79.9732 42.0691 79.5787 42.0657 79.2432C42.0606 78.9069 41.9627 78.628 41.7703 78.407C41.5784 78.1866 41.2767 77.9089 40.8656 77.5734L31.5624 70.463C31.0769 70.0968 30.6717 69.8772 30.3462 69.8046C30.0208 69.7297 29.7279 69.7599 29.4674 69.8942C29.204 70.029 28.8788 70.2699 28.4906 70.6169C28.4286 70.6644 28.3378 70.7426 28.219 70.8508C28.1002 70.9591 27.9914 71.0062 27.8901 70.992C27.7901 70.9779 27.6622 70.9121 27.5059 70.7941C27.317 70.6491 27.2307 70.5034 27.2465 70.3554C27.2599 70.2073 27.3508 70.0237 27.5186 69.8039C28.2173 68.8805 28.8495 68.165 29.4171 67.6568C29.9858 67.1475 30.6196 66.8077 31.3179 66.6356C32.018 66.463 32.8331 66.4937 33.7621 66.7275L45.9018 69.5537L45.9524 69.4849L38.0327 56.2025L39.0477 54.8606C39.6992 53.9984 40.3803 53.0469 41.0904 52.0067C41.1982 51.8665 41.3293 51.8003 41.4836 51.8068C41.6398 51.8129 41.7877 51.8695 41.9285 51.9768C42.1517 52.172 42.2539 52.3314 42.2358 52.4532C42.2196 52.5745 42.1338 52.7365 41.981 52.9392C41.6346 53.3942 41.4609 53.7938 41.4609 54.1381C41.4592 54.4817 41.5589 54.7725 41.7594 55.0123C41.9616 55.2516 42.2523 55.5258 42.6314 55.8349L51.9698 62.8996C52.3738 63.1837 52.7174 63.3905 53.0006 63.5185C53.2857 63.6461 53.5936 63.6622 53.9251 63.5685C54.2554 63.4736 54.5934 63.1983 54.9398 62.7433L55.0435 62.6035C55.1509 62.4603 55.2585 62.3747 55.3659 62.3459C55.4733 62.3182 55.6423 62.3794 55.8741 62.5306C56.015 62.6355 56.1093 62.7625 56.1575 62.9111C56.2075 63.0592 56.1789 63.203 56.0711 63.3432C55.2648 64.3114 54.5299 65.2349 53.8664 66.1138C53.1778 67.0223 52.4722 68.004 51.7484 69.059C51.6411 69.1998 51.5094 69.2666 51.3551 69.2588C51.2008 69.2523 51.0535 69.1963 50.9126 69.0914C50.6875 68.8978 50.5808 68.7448 50.5926 68.6309C50.6062 68.5166 50.6957 68.3489 50.8625 68.1267C51.2076 67.674 51.3807 67.2761 51.3824 66.9325C51.3842 66.5866 51.2839 66.2951 51.0817 66.0558C50.8794 65.8177 50.5881 65.5429 50.2074 65.2308L40.8689 58.1661L40.8184 58.2349L49.1217 72.1371C49.23 72.3193 49.1891 72.5366 48.9991 72.788Z" fill="white"/>
<path d="M61.8148 59.3206C61.655 59.3938 61.5093 59.3906 61.3767 59.3122C61.2417 59.2336 61.137 59.1138 61.0638 58.954C60.9588 58.6759 60.9383 58.4907 61.0043 58.3966C61.0686 58.3018 61.1639 58.2262 61.2899 58.1681C61.4158 58.1111 61.4963 58.0739 61.5321 58.056C62.0678 57.8124 62.3983 57.4953 62.5219 57.104C62.6444 56.7115 62.7017 56.3059 62.6945 55.8866C62.6866 55.4679 62.682 55.1845 62.6794 55.035L62.2954 41.789C62.2817 41.4695 62.2384 41.2293 62.1652 41.0695C62.0177 40.7486 61.7864 40.5743 61.4712 40.5467C61.155 40.5178 60.7524 40.5608 60.2637 40.6732C59.9356 40.7582 59.7232 40.7898 59.6263 40.7693C59.5308 40.7477 59.4262 40.6119 59.3134 40.3614C59.2143 40.147 59.2062 39.9778 59.2896 39.853C59.3729 39.7295 59.5396 39.6104 59.7896 39.497C60.6825 39.0886 61.4233 38.8314 62.0131 38.7254C62.603 38.617 63.1863 38.6743 63.7639 38.8966C64.3396 39.1182 64.9869 39.5624 65.7049 40.2309L75.2834 49.274C75.8627 49.83 76.3548 50.2208 76.7603 50.4469C77.1652 50.6725 77.6229 50.6801 78.134 50.4679L78.2938 50.3948C78.473 50.313 78.6123 50.2869 78.7122 50.317C78.8116 50.3465 78.9285 50.4834 79.063 50.7267C79.1362 50.8865 79.158 51.0434 79.1289 51.1967C79.1011 51.3489 79.0064 51.4624 78.8453 51.5367C77.6776 52.0052 76.6821 52.4278 75.8594 52.8039C74.7866 53.2946 73.6911 53.8287 72.5711 54.4055C72.4077 54.4785 72.2592 54.4746 72.126 54.3943C71.9934 54.3159 71.8911 54.1962 71.8179 54.0364C71.7221 53.7759 71.6948 53.5981 71.7359 53.504C71.7794 53.41 71.8913 53.3216 72.0705 53.2398C72.6801 52.9617 73.0824 52.7072 73.2768 52.4756C73.4736 52.2442 73.5025 51.9777 73.3636 51.6761C73.2571 51.4437 72.9591 51.0719 72.4696 50.561L70.5388 48.7507L63.9134 51.781C63.974 53.0939 64.014 53.8549 64.0328 54.0643C64.0516 54.2714 64.0654 54.3822 64.0742 54.3981C64.1691 55.1757 64.2621 55.663 64.3524 55.8615C64.49 56.1654 64.7159 56.305 65.0298 56.2816C65.345 56.2571 65.8774 56.072 66.6269 55.7275L66.7868 55.6544C66.966 55.5726 67.1052 55.5465 67.2052 55.5766C67.3058 55.6049 67.4233 55.7413 67.5559 55.9863C67.6291 56.1461 67.6509 56.303 67.6219 56.4563C67.5941 56.6085 67.5006 56.7209 67.3407 56.794C66.1712 57.2643 65.1847 57.6831 64.3813 58.0506C63.8074 58.3132 62.9523 58.7369 61.8148 59.3206ZM63.8972 50.3913L69.5296 47.8175L63.6671 42.1607L63.5872 42.1973L63.8972 50.3913Z" fill="white"/>
<path d="M86.3861 50.3626C86.2291 50.3631 86.1023 50.2997 86.0039 50.1719C85.9066 50.0453 85.8592 49.8938 85.8614 49.7173C85.8811 49.4208 85.9444 49.2441 86.052 49.1857C86.1584 49.1273 86.3493 49.0982 86.6249 49.0985C87.1931 49.0994 87.6162 48.9969 87.893 48.7899C88.1704 48.5847 88.344 48.329 88.4121 48.0223C88.4808 47.7173 88.5258 47.3206 88.5455 46.8315L88.5596 35.1208C88.5427 34.6288 88.5007 34.2311 88.4324 33.9275C88.363 33.6226 88.19 33.3669 87.9134 33.1592C87.6368 32.9526 87.2144 32.8483 86.6456 32.8468L86.4678 32.8457C86.2717 32.8467 86.1305 32.8123 86.0436 32.7431C85.9567 32.675 85.903 32.5031 85.8826 32.2284C85.883 32.0536 85.9315 31.9018 86.0293 31.773C86.1271 31.6454 86.2539 31.5807 86.4104 31.5797C87.6909 31.6426 88.8704 31.6741 89.9495 31.6749L94.372 31.6808C96.0851 31.6814 97.742 32.0366 99.3428 32.7455C100.944 33.4554 101.743 34.8714 101.739 36.9949C101.736 38.1722 101.381 39.2217 100.673 40.1453C99.9668 41.0702 99.0465 41.7878 97.9142 42.2976C96.7825 42.8058 95.6076 43.06 94.3899 43.0587C93.2688 43.0589 92.2866 42.9008 91.4421 42.5832L91.4371 46.8328C91.4534 47.3253 91.4966 47.7232 91.5666 48.0286C91.636 48.3334 91.8072 48.5897 92.0809 48.7967C92.3552 49.002 92.7783 49.1046 93.3489 49.1043L93.5266 49.1055C93.7239 49.1069 93.8657 49.1419 93.9532 49.2106C94.0413 49.2775 94.0961 49.4495 94.1189 49.7255C94.1167 49.9019 94.0711 50.0545 93.9816 50.1813C93.8927 50.3099 93.76 50.3743 93.5816 50.3737C92.3265 50.3126 91.0978 50.2817 89.8955 50.2811C88.8361 50.2794 87.6669 50.3064 86.3861 50.3626ZM93.5389 41.7322C94.2463 41.733 94.9782 41.5915 95.7344 41.3078C96.4901 41.0234 97.1326 40.5329 97.6633 39.8352C98.1963 39.1376 98.4641 38.2185 98.4666 37.0779C98.4678 35.3495 97.9185 34.2 96.8179 33.6287C95.7179 33.058 94.5473 32.7715 93.3071 32.7691C92.7969 32.7698 92.4146 32.8238 92.1595 32.9317C91.9033 33.0383 91.7205 33.2491 91.6112 33.5628C91.5037 33.876 91.4495 34.3671 91.4505 35.0367L91.4421 41.4052C91.9155 41.6238 92.6145 41.7321 93.5389 41.7322Z" fill="white"/>
<path d="M102.764 50.5628C102.596 50.5076 102.488 50.4066 102.442 50.2587C102.398 50.1109 102.404 49.9536 102.459 49.7855C102.568 49.5108 102.677 49.3612 102.788 49.3361C102.899 49.3093 103.087 49.3381 103.351 49.4215C103.891 49.5964 104.323 49.6277 104.65 49.5149C104.977 49.4038 105.22 49.2136 105.38 48.9443C105.539 48.6749 105.702 48.3086 105.87 47.8459L109.454 36.732C109.594 36.2396 109.677 35.8428 109.701 35.5418C109.726 35.2413 109.639 34.9458 109.441 34.6551C109.244 34.3634 108.877 34.13 108.336 33.9545L108.165 33.9015C107.979 33.8395 107.859 33.7641 107.806 33.6763C107.755 33.5874 107.762 33.4088 107.826 33.1416C107.878 32.9739 107.966 32.8417 108.091 32.7461C108.214 32.6499 108.36 32.6282 108.528 32.6834C109.727 33.1342 110.831 33.5232 111.842 33.8491L116.669 35.4025C118.103 35.8861 119.231 36.5031 120.051 37.2539C120.874 38.0049 121.4 38.7937 121.629 39.6214C121.858 40.4474 121.846 41.2539 121.59 42.0396C121.259 43.0684 120.548 43.8828 119.458 44.4817C118.367 45.0788 117.06 45.3394 115.534 45.2622L115.767 46.1737C116.143 47.6997 116.503 49.0195 116.847 50.1322C117.19 51.2444 117.609 52.3144 118.104 53.3405C118.491 53.9386 118.971 54.3721 119.544 54.6421C119.579 54.655 119.661 54.6867 119.791 54.7389C119.919 54.7905 120.009 54.877 120.063 54.998C120.117 55.1173 120.114 55.2706 120.056 55.4575C120.001 55.6256 119.91 55.7577 119.786 55.8527C119.663 55.9466 119.518 55.9659 119.35 55.9107L118.629 55.6521C117.82 55.348 117.229 55.1345 116.855 55.0129C116.152 54.623 115.596 54.1505 115.186 53.594C114.777 53.0358 114.427 52.3192 114.136 51.443C113.82 50.5531 113.435 49.1475 112.981 47.2273L112.741 46.2492C112.597 45.7305 112.42 45.3484 112.209 45.1034C111.999 44.8602 111.575 44.6355 110.939 44.4306L110.124 44.1677L108.649 48.7426C108.517 49.2182 108.437 49.6116 108.409 49.9214C108.382 50.2329 108.466 50.529 108.662 50.81C108.86 51.0912 109.231 51.3194 109.775 51.4945L109.946 51.5474C110.114 51.6026 110.228 51.6761 110.291 51.7673C110.356 51.8586 110.355 52.0393 110.29 52.3076C110.234 52.4757 110.144 52.6078 110.02 52.7028C109.898 52.7979 109.753 52.8172 109.584 52.7608C108.406 52.3211 107.246 51.9159 106.103 51.5471C105.111 51.228 103.998 50.8997 102.764 50.5628ZM112.949 43.8719C115.735 44.769 117.55 43.9074 118.394 41.2871C118.739 40.2211 118.664 39.2061 118.17 38.2429C117.678 37.2785 116.599 36.528 114.933 35.9928C114.388 35.8165 113.954 35.7477 113.631 35.7879C113.308 35.8286 113.044 35.9912 112.839 36.275C112.635 36.5583 112.427 37.0286 112.216 37.6849L110.478 43.0748L112.949 43.8719Z" fill="white"/>
<path d="M126.764 62.1181C125.28 60.9874 124.243 59.634 123.653 58.0583C123.061 56.4825 122.905 54.8718 123.182 53.2273C123.46 51.584 124.112 50.0913 125.139 48.7481C126.392 47.1079 127.855 45.9622 129.527 45.3108C131.198 44.6594 132.86 44.452 134.512 44.6862C136.165 44.9192 137.585 45.4881 138.772 46.3934C140.272 47.539 141.325 48.9056 141.929 50.4933C142.536 52.081 142.704 53.6928 142.43 55.3281C142.159 56.9622 141.509 58.452 140.484 59.7982C139.232 61.4372 137.763 62.5839 136.077 63.2394C134.39 63.8942 132.713 64.0991 131.045 63.8523C129.378 63.6045 127.951 63.0263 126.764 62.1181ZM127.528 61.0726C128.59 61.8833 129.718 62.2449 130.912 62.1562C132.108 62.0659 133.289 61.6193 134.456 60.8154C135.625 60.0133 136.704 58.9641 137.695 57.6685C138.613 56.466 139.278 55.2228 139.688 53.94C140.102 52.6573 140.178 51.4396 139.917 50.2886C139.657 49.1389 139.011 48.1703 137.98 47.383C136.417 46.1889 134.736 45.9504 132.938 46.6682C131.141 47.3879 129.473 48.7552 127.934 50.7715C127.004 51.9911 126.327 53.2426 125.902 54.5266C125.48 55.8106 125.387 57.0264 125.624 58.1733C125.861 59.3185 126.496 60.2853 127.528 61.0726Z" fill="white"/>
<path d="M139.777 76.2625C138.964 74.9852 138.494 73.7534 138.365 72.5659C138.237 71.3778 138.387 70.3188 138.818 69.3894C139.251 68.4602 139.892 67.7244 140.74 67.1842L149.218 61.7818C149.622 61.5037 149.934 61.2533 150.156 61.0312C150.376 60.8091 150.498 60.5263 150.524 60.1832C150.549 59.8401 150.409 59.4276 150.103 58.9454L150.008 58.7964C149.902 58.6303 149.857 58.4955 149.875 58.392C149.892 58.2885 150.01 58.1553 150.23 57.9913C150.378 57.895 150.53 57.8505 150.687 57.856C150.842 57.8615 150.968 57.9396 151.062 58.0891C151.688 59.1829 152.286 60.1777 152.858 61.0735C153.501 62.0846 154.187 63.1036 154.916 64.1316C155.011 64.283 155.028 64.429 154.967 64.5701C154.906 64.7125 154.802 64.8315 154.654 64.9278C154.411 65.0587 154.236 65.1057 154.131 65.0694C154.025 65.0325 153.919 64.9316 153.813 64.7655C153.474 64.2343 153.142 63.8977 152.819 63.7548C152.495 63.6118 152.19 63.5906 151.905 63.6911C151.62 63.7899 151.248 63.9741 150.787 64.2437L143.03 69.1888C141.884 69.9179 141.094 70.8009 140.66 71.8379C140.224 72.8749 140.503 74.1713 141.496 75.7283C142.467 77.2535 143.508 78.1106 144.62 78.3002C145.733 78.491 146.82 78.2475 147.882 77.5696L154.422 73.4024C155.549 72.6837 156.317 72.1345 156.727 71.7553C157.139 71.3762 157.332 71.0201 157.307 70.6871C157.281 70.3541 157.071 69.8804 156.679 69.2667L156.583 69.1177C156.489 68.9681 156.448 68.8382 156.459 68.7279C156.472 68.6165 156.589 68.478 156.81 68.3128C156.958 68.2166 157.11 68.1726 157.265 68.1798C157.42 68.1852 157.545 68.2615 157.64 68.4082C158.276 69.5202 158.842 70.4661 159.339 71.2458C159.845 72.0402 160.463 72.9511 161.191 73.9792C161.285 74.1293 161.302 74.2747 161.242 74.4177C161.183 74.5619 161.079 74.6815 160.931 74.7778C160.688 74.9087 160.513 74.9551 160.406 74.917C160.299 74.8788 160.192 74.7773 160.088 74.6131C159.665 73.95 159.314 73.5272 159.035 73.3436C158.756 73.16 158.367 73.1622 157.869 73.3512C157.37 73.5396 156.566 73.9883 155.457 74.6972L148.519 79.1184C147.408 79.8254 146.289 80.1066 145.161 79.9631C144.032 79.8201 143.001 79.3996 142.067 78.701C141.133 78.0035 140.369 77.1907 139.777 76.2625Z" fill="white"/>
<path d="M145.661 85.0909C145.628 84.9371 145.663 84.8042 145.768 84.6906C145.874 84.5781 146.013 84.5028 146.186 84.4634C146.476 84.4182 146.662 84.4375 146.74 84.5199C146.819 84.6042 146.889 84.7798 146.948 85.0463C147.071 85.6013 147.263 85.9912 147.524 86.2154C147.787 86.4403 148.073 86.5543 148.383 86.5563C148.695 86.5583 149.094 86.5151 149.579 86.4268L161.012 83.899C161.488 83.7753 161.867 83.6471 162.151 83.5133C162.435 83.3813 162.647 83.1576 162.786 82.8435C162.928 82.5295 162.938 82.0945 162.816 81.5389L162.776 81.3664C162.734 81.1748 162.738 81.034 162.789 80.9427C162.841 80.8503 162.999 80.7652 163.263 80.6874C163.434 80.6496 163.59 80.6587 163.733 80.7163C163.879 80.774 163.969 80.8789 164.003 81.0322C164.223 82.3146 164.446 83.4644 164.673 84.4811L165.666 88.9713C166.072 90.8151 166.073 92.5721 165.669 94.2428C165.264 95.9134 164.466 97.3377 163.276 98.5168C162.088 99.6961 160.554 100.492 158.673 100.908C156.713 101.342 154.947 101.215 153.377 100.526C151.807 99.8365 150.515 98.7723 149.503 97.3334C148.49 95.897 147.784 94.2768 147.384 92.4734L146.506 88.4982C146.28 87.481 145.998 86.345 145.661 85.0909ZM148.546 92.6648C149.041 94.9104 150.099 96.4023 151.723 97.14C153.347 97.8801 155.406 97.975 157.903 97.4241C159.476 97.075 160.819 96.4807 161.932 95.6411C163.045 94.8015 163.828 93.7682 164.28 92.5406C164.734 91.3119 164.797 89.9585 164.471 88.4798L163.944 86.2416L149.865 89.3554C149.115 89.5192 148.651 89.8574 148.474 90.3694C148.296 90.882 148.32 91.6475 148.546 92.6648Z" fill="white"/>
<path d="M147.267 118.329C148.973 118.139 151.686 117.839 155.408 117.429C159.128 117.021 161.824 116.718 163.494 116.519C164.394 116.393 165.043 116.217 165.441 115.99C165.841 115.763 166.172 115.369 166.432 114.806C166.465 114.733 166.515 114.624 166.582 114.479C166.651 114.335 166.732 114.249 166.829 114.222C166.926 114.194 167.07 114.203 167.261 114.25C167.491 114.306 167.628 114.406 167.674 114.548C167.719 114.691 167.71 114.896 167.646 115.163C167.296 116.596 166.811 117.632 166.191 118.27C165.57 118.908 164.644 119.31 163.412 119.475L151.224 120.901L151.204 120.988L161.725 127.74C162.022 127.937 162.256 128.056 162.427 128.098C162.697 128.162 162.902 128.095 163.041 127.896C163.181 127.698 163.314 127.341 163.441 126.824L163.482 126.656C163.529 126.461 163.595 126.335 163.68 126.276C163.765 126.217 163.943 126.209 164.214 126.256C164.386 126.298 164.524 126.377 164.627 126.491C164.732 126.606 164.767 126.741 164.729 126.896C164.366 128.124 164.082 129.159 163.877 130.002C163.789 130.363 163.639 131.064 163.426 132.107L163.31 132.711C163.268 132.882 163.173 132.995 163.027 133.051C162.88 133.108 162.722 133.116 162.549 133.074C162.288 132.988 162.133 132.9 162.085 132.808C162.037 132.716 162.037 132.573 162.084 132.384C162.285 131.563 162.303 130.904 162.14 130.407C161.977 129.912 161.55 129.42 160.862 128.93C159.435 127.974 157.125 126.433 153.93 124.307C150.735 122.184 148.405 120.639 146.939 119.674L147.267 118.329Z" fill="white"/>
<path d="M145.549 127.036C145.643 126.886 145.767 126.808 145.922 126.799C146.077 126.79 146.23 126.833 146.381 126.925C146.619 127.1 146.737 127.245 146.735 127.358C146.736 127.472 146.699 127.587 146.625 127.704C146.552 127.821 146.507 127.895 146.486 127.93C146.175 128.431 146.075 128.877 146.187 129.272C146.3 129.667 146.476 130.037 146.714 130.382C146.953 130.726 147.115 130.959 147.2 131.08L154.852 141.906C155.041 142.163 155.21 142.338 155.359 142.432C155.658 142.618 155.947 142.635 156.226 142.484C156.507 142.334 156.818 142.074 157.161 141.705C157.387 141.456 157.546 141.313 157.636 141.277C157.728 141.241 157.89 141.295 158.124 141.439C158.325 141.563 158.426 141.701 158.427 141.851C158.426 142.002 158.353 142.195 158.206 142.429C157.688 143.263 157.214 143.887 156.782 144.302C156.352 144.717 155.835 144.993 155.232 145.126C154.627 145.26 153.842 145.248 152.877 145.088L139.89 142.853C139.102 142.71 138.475 142.658 138.011 142.695C137.548 142.733 137.162 142.981 136.855 143.44L136.763 143.587C136.659 143.755 136.557 143.853 136.458 143.884C136.357 143.915 136.185 143.866 135.943 143.737C135.793 143.644 135.687 143.526 135.625 143.383C135.563 143.241 135.578 143.093 135.672 142.942C136.384 141.906 136.978 141.005 137.456 140.237C138.078 139.232 138.697 138.18 139.314 137.081C139.406 136.93 139.53 136.85 139.685 136.842C139.841 136.836 139.993 136.88 140.144 136.972C140.365 137.136 140.485 137.268 140.502 137.371C140.52 137.472 140.476 137.607 140.372 137.775C140.019 138.344 139.824 138.778 139.788 139.077C139.752 139.378 139.876 139.618 140.16 139.794C140.377 139.928 140.83 140.072 141.522 140.224L144.13 140.665L147.972 134.477C147.196 133.417 146.744 132.806 146.614 132.643C146.483 132.482 146.408 132.395 146.391 132.384C145.883 131.789 145.536 131.435 145.35 131.321C145.066 131.145 144.8 131.153 144.552 131.346C144.305 131.541 143.964 131.989 143.53 132.69L143.436 132.84C143.333 133.005 143.231 133.104 143.13 133.136C143.031 133.169 142.86 133.12 142.616 132.989C142.465 132.896 142.359 132.778 142.298 132.635C142.237 132.491 142.253 132.345 142.347 132.197C143.058 131.158 143.647 130.263 144.114 129.512C144.447 128.976 144.925 128.15 145.549 127.036ZM148.753 135.622L145.487 140.887L153.5 142.351L153.546 142.277L148.753 135.622Z" fill="white"/>
<path d="M132.087 145.755C132.221 145.639 132.363 145.601 132.514 145.642C132.662 145.681 132.793 145.769 132.907 145.904C133.084 146.141 133.15 146.316 133.105 146.43C133.062 146.544 132.942 146.685 132.747 146.852C132.314 147.222 132.06 147.574 131.984 147.909C131.907 148.244 131.94 148.552 132.084 148.829C132.229 149.107 132.454 149.438 132.759 149.822L135.148 152.633C135.352 152.873 136.463 153.429 138.484 154.304C140.505 155.18 142.105 155.839 143.282 156.283C144.041 156.566 144.712 156.685 145.294 156.641C145.876 156.6 146.474 156.408 147.089 156.066C147.159 156.029 147.263 155.971 147.403 155.893C147.542 155.814 147.659 155.792 147.754 155.826C147.85 155.862 147.962 155.955 148.09 156.105C148.242 156.285 148.296 156.447 148.25 156.589C148.202 156.732 148.073 156.892 147.865 157.071C146.666 158.088 145.593 158.722 144.646 158.972C143.698 159.225 142.574 159.117 141.271 158.65C140.595 158.371 139.638 157.96 138.401 157.415C136.621 156.657 135.46 156.173 134.92 155.962L134.851 156.02L136.54 163.057C136.663 163.473 136.781 163.749 136.895 163.884C137.048 164.062 137.244 164.101 137.482 164.002C137.719 163.904 138.047 163.677 138.466 163.322L138.6 163.205C138.75 163.077 138.877 163.013 138.983 163.014C139.089 163.017 139.238 163.117 139.429 163.314C139.542 163.449 139.608 163.593 139.624 163.748C139.639 163.903 139.588 164.032 139.469 164.134C138.455 164.916 137.619 165.587 136.963 166.146C136.408 166.618 135.671 167.285 134.749 168.146C134.616 168.261 134.474 168.298 134.324 168.257C134.173 168.216 134.04 168.129 133.926 167.994C133.763 167.772 133.688 167.609 133.703 167.505C133.718 167.403 133.802 167.288 133.951 167.161C134.565 166.638 134.961 166.1 135.14 165.548C135.317 164.996 135.319 164.316 135.146 163.507L133.615 156.567C133.581 156.437 133.514 156.176 133.414 155.785C133.315 155.395 133.189 155.063 133.038 154.791C132.886 154.522 132.67 154.223 132.39 153.896L130.535 151.712C130.201 151.352 129.909 151.078 129.659 150.89C129.41 150.702 129.113 150.619 128.769 150.64C128.427 150.662 128.038 150.858 127.602 151.228L127.466 151.343C127.317 151.47 127.19 151.533 127.086 151.531C126.983 151.531 126.834 151.432 126.639 151.236C126.526 151.101 126.462 150.956 126.446 150.8C126.43 150.646 126.483 150.518 126.604 150.416C127.599 149.645 128.517 148.903 129.357 148.188C130.239 147.438 131.149 146.627 132.087 145.755Z" fill="white"/>
<path d="M113.821 156.846C115.227 156.287 116.526 156.056 117.719 156.152C118.911 156.247 119.923 156.593 120.754 157.191C121.586 157.792 122.187 158.56 122.558 159.493L126.283 168.834C126.48 169.285 126.667 169.639 126.845 169.894C127.023 170.151 127.278 170.325 127.61 170.415C127.943 170.504 128.373 170.444 128.901 170.235L129.065 170.167C129.247 170.094 129.387 170.075 129.485 170.111C129.584 170.147 129.695 170.289 129.816 170.538C129.881 170.702 129.896 170.86 129.86 171.01C129.825 171.162 129.726 171.273 129.563 171.34C128.373 171.747 127.284 172.148 126.296 172.542C125.182 172.986 124.052 173.468 122.908 173.989C122.742 174.056 122.595 174.045 122.466 173.957C122.337 173.872 122.241 173.747 122.175 173.583C122.089 173.32 122.075 173.14 122.132 173.043C122.188 172.946 122.308 172.861 122.489 172.79C123.074 172.556 123.467 172.293 123.668 172C123.87 171.71 123.949 171.415 123.904 171.115C123.859 170.818 123.748 170.417 123.571 169.915L120.162 161.369C119.662 160.106 118.944 159.164 118.009 158.543C117.07 157.921 115.743 157.953 114.027 158.638C112.347 159.306 111.311 160.169 110.918 161.227C110.523 162.285 110.559 163.398 111.026 164.567L113.895 171.77C114.391 173.013 114.785 173.872 115.079 174.347C115.373 174.822 115.686 175.077 116.018 175.114C116.351 175.151 116.856 175.034 117.532 174.762L117.696 174.698C117.86 174.632 117.996 174.616 118.104 174.648C118.211 174.679 118.326 174.82 118.447 175.07C118.512 175.233 118.527 175.391 118.491 175.541C118.457 175.692 118.358 175.8 118.194 175.866C116.983 176.284 115.949 176.664 115.093 177.007C114.217 177.355 113.205 177.79 112.056 178.312C111.893 178.379 111.747 178.368 111.616 178.282C111.486 178.195 111.388 178.07 111.323 177.906C111.239 177.641 111.227 177.46 111.284 177.362C111.342 177.266 111.463 177.182 111.644 177.11C112.374 176.82 112.854 176.554 113.087 176.312C113.32 176.073 113.389 175.69 113.297 175.165C113.206 174.641 112.916 173.768 112.427 172.546L109.385 164.903C108.897 163.678 108.83 162.526 109.182 161.445C109.535 160.363 110.14 159.429 111 158.643C111.858 157.855 112.799 157.256 113.821 156.846Z" fill="white"/>
<path d="M104.039 160.778C104.196 160.768 104.329 160.824 104.436 160.946C104.541 161.067 104.599 161.216 104.607 161.392C104.603 161.668 104.557 161.842 104.472 161.914C104.384 161.987 104.244 162.029 104.049 162.042C103.635 162.065 103.323 162.117 103.112 162.197C102.901 162.276 102.698 162.444 102.506 162.7C102.314 162.957 102.076 163.369 101.79 163.937L95.848 176.511C95.5159 177.296 95.3589 177.846 95.3757 178.16C95.3897 178.434 95.5219 178.599 95.7723 178.655C96.0209 178.712 96.4702 178.722 97.1195 178.687L100.33 178.515C100.994 178.459 101.498 178.317 101.84 178.09C102.182 177.865 102.45 177.531 102.643 177.087C102.836 176.645 103.053 175.926 103.295 174.929C103.343 174.749 103.453 174.62 103.626 174.542C103.8 174.464 104.007 174.439 104.246 174.466C104.423 174.497 104.578 174.567 104.712 174.675C104.847 174.785 104.909 174.931 104.898 175.113L104.505 178.851C104.462 179.109 104.385 179.282 104.272 179.366C104.158 179.452 103.964 179.503 103.689 179.517L93.5859 180.059C92.4484 180.119 91.244 180.215 89.9723 180.344C89.7965 180.352 89.6605 180.295 89.5655 180.171C89.4687 180.048 89.4147 179.897 89.4039 179.72C89.4102 179.445 89.4512 179.276 89.5269 179.214C89.6027 179.151 89.703 179.11 89.8288 179.093C89.9564 179.076 90.0481 179.066 90.1051 179.063C90.7533 178.989 91.254 178.745 91.6061 178.334C91.9588 177.922 92.293 177.373 92.6092 176.686L98.4012 164.122C98.5592 163.718 98.6324 163.417 98.6208 163.219C98.5891 162.65 98.0433 162.384 96.9821 162.42L93.5082 162.606C92.8199 162.665 92.3054 162.808 91.9643 163.034C91.6227 163.258 91.356 163.592 91.1642 164.035C90.97 164.478 90.7524 165.199 90.5117 166.197C90.4324 166.554 90.1153 166.708 89.5611 166.661C89.3811 166.632 89.225 166.561 89.0921 166.449C88.9586 166.339 88.8965 166.195 88.906 166.016L89.2952 162.273C89.3403 162.014 89.4205 161.844 89.5346 161.76C89.6476 161.675 89.8419 161.625 90.1176 161.609L100.511 161.053C101.593 160.994 102.769 160.902 104.039 160.778Z" fill="white"/>
<path d="M85.8075 166.145C86.1379 166.381 86.2183 166.641 86.0486 166.926C85.3938 167.9 84.5947 168.711 83.6534 169.359C82.7115 170.005 81.7426 170.21 80.7475 169.973C80.1907 169.839 79.6723 169.62 79.19 169.313C78.7088 169.006 78.1449 168.594 77.5005 168.076C76.9382 167.64 76.5003 167.319 76.187 167.112C75.8713 166.904 75.5502 166.762 75.2231 166.685C74.8217 166.589 74.4209 166.645 74.0208 166.852C73.6183 167.06 73.2018 167.468 72.7718 168.077C72.5955 168.313 72.3822 168.403 72.1313 168.344C72.0364 168.321 71.9618 168.294 71.9076 168.262C71.7628 168.189 71.6596 168.089 71.5991 167.963C71.5385 167.837 71.5604 167.685 71.6629 167.506C72.2301 166.57 73.0004 165.779 73.9749 165.132C74.947 164.485 75.9239 164.298 76.9068 164.571C77.6098 164.758 78.1919 165.008 78.6545 165.32C79.1165 165.631 79.6216 166.034 80.1723 166.528C80.5512 166.881 80.8897 167.159 81.186 167.362C81.48 167.566 81.8093 167.709 82.1734 167.794C82.7266 167.927 83.1835 167.875 83.5435 167.637C83.9042 167.399 84.3573 166.982 84.9028 166.385C85.1138 166.09 85.3339 165.969 85.5619 166.024C85.6229 166.038 85.7046 166.078 85.8075 166.145Z" fill="white"/>
<path d="M120.071 87.8142C122.767 86.5437 125.261 85.3194 128.109 84.4338C129.875 83.884 131.751 83.4018 133.558 83.7933C135.025 84.111 136.37 85.0348 137.107 86.3415C137.845 87.6492 137.928 89.3265 137.238 90.6591C136.39 92.2962 134.604 93.1859 132.931 93.9612C130.052 95.2962 127.164 96.6127 124.267 97.9098" fill="#DBD5D2"/>
<path d="M124.239 98.3933C124.066 98.3823 123.905 98.2781 123.829 98.1083C123.72 97.8654 123.828 97.5791 124.072 97.4706C126.953 96.1801 129.865 94.8524 132.73 93.5242C134.452 92.7263 136.059 91.8895 136.812 90.4378C137.409 89.2848 137.361 87.7713 136.689 86.5806C136.039 85.4291 134.832 84.5644 133.459 84.2663C131.73 83.8918 129.865 84.3952 128.255 84.8958C125.693 85.6927 123.409 86.7722 120.992 87.9159L120.279 88.2528C120.038 88.3658 119.75 88.2629 119.636 88.0215C119.523 87.7801 119.626 87.4926 119.867 87.3787L120.579 87.0426C123.028 85.8846 125.34 84.7907 127.968 83.9741C129.696 83.4364 131.705 82.8986 133.664 83.3227C135.302 83.6778 136.748 84.7182 137.531 86.1057C138.371 87.5959 138.424 89.426 137.669 90.8827C136.777 92.6043 135.016 93.5297 133.136 94.4005C130.268 95.7311 127.351 97.0602 124.467 98.3521C124.393 98.3842 124.315 98.3981 124.239 98.3933Z" fill="#654126"/>
<path d="M65.2699 112.335C68.6036 125.699 80.0275 134.947 94.2181 135.915C109.908 136.985 122.279 124.651 124.759 109.743C125.807 103.449 125.915 75.3137 97.5767 72.7803C72.6241 70.5493 60.1733 91.9027 65.2699 112.335Z" fill="#DBD5D2"/>
<path d="M82.1028 82.3036C68.1358 89.9802 68.4814 113.46 78.0149 122.161C96.5565 139.083 120.574 124.734 119.697 101.096C119.239 88.7444 101.194 71.8109 82.1028 82.3036Z" fill="#654126"/>
<path d="M82.1794 83.1856C70.9712 89.346 71.249 108.187 78.8987 115.169C93.7779 128.749 113.051 117.234 112.347 98.2652C111.979 88.3539 97.4989 74.7655 82.1794 83.1856Z" fill="#B29886"/>
<path d="M107.875 133.783C107.753 133.775 107.635 133.721 107.547 133.624C107.368 133.427 107.384 133.122 107.581 132.943C108.295 132.296 109.117 131.803 109.912 131.326C110.671 130.871 111.388 130.44 112.025 129.885C113.274 128.798 114.511 127.478 115.919 125.73C118.354 122.706 120.05 119.733 121.846 116.198C124.375 111.221 126.071 103.362 124.16 97.0278C123.675 95.4165 123.129 93.8022 122.602 92.2412L122.455 91.8027C122.303 91.3537 121.981 90.7486 121.641 90.1073C121.005 88.9113 120.348 87.6737 120.387 86.7462C120.398 86.4793 120.624 86.2731 120.89 86.284C121.143 86.2957 121.363 86.5208 121.353 86.7877C121.324 87.4526 121.973 88.6734 122.494 89.6544C122.854 90.3312 123.193 90.9699 123.369 91.4939L123.518 91.9316C124.048 93.5004 124.595 95.1226 125.086 96.7488C127.074 103.34 125.323 111.486 122.707 116.636C121.129 119.74 119.306 123.065 116.67 126.337C115.227 128.13 113.952 129.488 112.659 130.614C111.958 131.225 111.171 131.697 110.409 132.154C109.619 132.628 108.873 133.076 108.229 133.659C108.129 133.749 108 133.791 107.875 133.783Z" fill="#654126"/>
<path d="M93.2076 129.981C91.9679 129.902 90.6995 129.738 89.404 129.487C87.5437 129.127 86.0112 128.137 84.5288 127.18C84.2258 126.985 83.9211 126.788 83.6119 126.595C83.3726 126.445 83.1365 126.3 82.9029 126.156C80.9555 124.955 79.1151 123.82 77.565 121.814C77.2608 121.421 76.9432 121.023 76.6225 120.62C75.3166 118.982 73.9663 117.289 73.1212 115.449C72.2707 113.598 72.0141 112.197 71.716 110.574C71.6182 110.04 71.5164 109.488 71.3871 108.87C69.6517 100.611 72.7834 86.1501 81.6421 82.2908C81.8865 82.184 82.1717 82.2961 82.2776 82.5405C82.3843 82.7857 82.2723 83.0701 82.0279 83.176C73.6088 86.8443 70.6625 100.727 72.3323 108.672C72.4643 109.301 72.5673 109.86 72.6665 110.4C72.9638 112.023 73.1989 113.305 73.999 115.045C74.7953 116.779 76.1084 118.425 77.3779 120.017C77.7017 120.424 78.0225 120.826 78.329 121.223C79.7717 123.09 81.4582 124.13 83.4105 125.334C83.645 125.478 83.8828 125.625 84.1229 125.775C84.437 125.971 84.7458 126.171 85.053 126.369C86.523 127.318 87.9109 128.215 89.588 128.539C94.5689 129.503 99.1202 129.15 103.115 127.49C103.362 127.387 103.644 127.504 103.746 127.75C103.849 127.997 103.732 128.279 103.486 128.382C100.358 129.681 96.913 130.215 93.2076 129.981Z" fill="#654126"/>
<path d="M97.6631 90.5125C95.9899 90.6178 95.3753 90.77 94.9428 91.2028C94.4193 91.694 94.3397 92.1971 94.2827 95.0983C94.2258 97.7655 94.2827 98.7716 94.4762 98.4557C94.5558 98.327 94.6582 98.3154 94.977 98.4206L95.3753 98.5493L96.6045 97.3678C97.2761 96.7244 99.1085 94.9346 100.668 93.3786C103.422 90.6413 103.502 90.5593 103.172 90.4892C102.717 90.3838 99.3818 90.3956 97.6631 90.5125Z" fill="#654526"/>
<path d="M83.6624 93.9882C83.8445 94.6082 84.277 96.2226 84.6413 97.5796C85.3014 100.001 85.3128 100.048 85.825 100.574C86.1891 100.949 86.4965 101.148 86.872 101.241C87.6347 101.44 87.7143 101.428 89.3192 100.937C90.1272 100.691 91.4475 100.282 92.267 100.036C93.2573 99.7321 93.7467 99.5333 93.7126 99.4397C93.6897 99.3578 93.7239 99.2642 93.7808 99.2174C93.8491 99.1823 93.8832 99.0887 93.8491 99.0302C93.8035 98.9718 93.8491 98.925 93.9287 98.925C94.0539 98.925 85.1648 93.801 83.7649 93.064L83.3438 92.8535L83.6624 93.9882Z" fill="#654526"/>
<path d="M95.2491 100.575C95.1354 100.633 95.0443 100.645 95.0443 100.598C95.0443 100.552 94.9987 100.575 94.9419 100.669C94.8737 100.786 94.7939 100.797 94.6119 100.692C94.3956 100.575 94.3614 100.598 94.3158 100.938C94.2817 101.148 94.2249 101.768 94.1908 102.318C94.1223 103.359 93.9973 105.009 93.7923 107.465C93.6103 109.7 93.4737 111.618 93.485 111.63C93.4963 111.642 94.6915 110.636 96.1256 109.384C98.3336 107.477 98.7889 107.032 98.9937 106.565C99.5514 105.336 99.3353 104.81 97.3207 102.388C96.4215 101.324 95.6361 100.446 95.5679 100.446C95.4996 100.446 95.3516 100.505 95.2491 100.575Z" fill="#654526"/>
<path d="M94.6443 100.795C95.3043 100.795 95.8394 100.245 95.8394 99.5662C95.8394 98.8878 95.3043 98.3379 94.6443 98.3379C93.9843 98.3379 93.4492 98.8878 93.4492 99.5662C93.4492 100.245 93.9843 100.795 94.6443 100.795Z" fill="#654126"/>
</svg>
