<svg
            xmlns="http://www.w3.org/2000/svg"
            width="40"
            height="40"
            viewBox="0 0 40 40"
            fill="none"
          >
            <g clip-path="url(#clip0_829_93)">
              <path
                d="M3.75 20C3.75 15.6902 5.46205 11.557 8.50951 8.50951C11.557 5.46205 15.6902 3.75 20 3.75C24.3098 3.75 28.443 5.46205 31.4905 8.50951C34.538 11.557 36.25 15.6902 36.25 20C36.25 24.3098 34.538 28.443 31.4905 31.4905C28.443 34.538 24.3098 36.25 20 36.25C15.6902 36.25 11.557 34.538 8.50951 31.4905C5.46205 28.443 3.75 24.3098 3.75 20ZM40 20C40 14.6957 37.8929 9.60859 34.1421 5.85786C30.3914 2.10714 25.3043 0 20 0C14.6957 0 9.60859 2.10714 5.85786 5.85786C2.10714 9.60859 0 14.6957 0 20C0 25.3043 2.10714 30.3914 5.85786 34.1421C9.60859 37.8929 14.6957 40 20 40C25.3043 40 30.3914 37.8929 34.1421 34.1421C37.8929 30.3914 40 25.3043 40 20ZM26.125 24.8516C24.9375 26.1328 22.9062 27.5 20 27.5C17.0938 27.5 15.0625 26.1328 13.875 24.8516C13.1719 24.0938 11.9844 24.0391 11.2266 24.7422C10.4688 25.4453 10.4141 26.6328 11.1172 27.3906C12.8359 29.25 15.8047 31.25 19.9922 31.25C24.1797 31.25 27.1562 29.2578 28.8672 27.3906C29.5703 26.6328 29.5234 25.4453 28.7578 24.7422C27.9922 24.0391 26.8125 24.0859 26.1094 24.8516H26.125ZM26.2812 17.1875C27.1094 17.1875 27.8359 17.4844 28.2656 17.9453C28.8594 18.5781 29.8438 18.6094 30.4766 18.0156C31.1094 17.4219 31.1406 16.4375 30.5469 15.8047C29.4141 14.5938 27.7969 14.0625 26.2812 14.0625C24.7656 14.0625 23.1484 14.5938 22.0156 15.8047C21.4219 16.4375 21.4609 17.4219 22.0859 18.0156C22.7109 18.6094 23.7031 18.5703 24.2969 17.9453C24.7266 17.4922 25.4531 17.1875 26.2812 17.1875ZM15.7656 17.9453C16.3594 18.5781 17.3438 18.6094 17.9766 18.0156C18.6094 17.4219 18.6406 16.4375 18.0469 15.8047C16.9141 14.5938 15.2969 14.0625 13.7812 14.0625C12.2656 14.0625 10.6484 14.5938 9.51562 15.8047C8.92188 16.4375 8.96094 17.4219 9.58594 18.0156C10.2109 18.6094 11.2031 18.5703 11.7969 17.9453C12.2266 17.4922 12.9531 17.1875 13.7812 17.1875C14.6094 17.1875 15.3359 17.4844 15.7656 17.9453Z"
                fill="#F60163"
              />
            </g>
            <defs>
              <clipPath id="clip0_829_93">
                <rect
                  width="40"
                  height="40"
                  fill="white"
                  transform="matrix(-1 0 0 1 40 0)"
                />
              </clipPath>
            </defs>
          </svg>