 <svg
            xmlns="http://www.w3.org/2000/svg"
            width="14"
            height="12"
            viewBox="0 0 14 12"
            fill="none"
          >
            <g clip-path="url(#clip0_833_349)">
              <path
                d="M6.22734 9.56027C6.33281 9.53448 6.43828 9.50636 6.54375 9.48058C8.27109 9.03761 10.3055 8.5173 12.375 8.99074V2.15167C10.8234 1.61027 9.225 1.94542 7.27266 2.43995C7.16719 2.46574 7.06172 2.49386 6.95625 2.52199C5.22891 2.96261 3.19453 3.48527 1.125 3.00949V9.84855C2.67656 10.39 4.275 10.0571 6.22734 9.56027ZM0 9.87902V2.64855C0 2.08136 0.595313 1.70402 1.13438 1.85167C3.00469 2.3673 4.87734 1.88917 6.75 1.41339C8.78672 0.895423 10.8234 0.375111 12.8602 1.13214C13.2609 1.2798 13.5 1.68761 13.5 2.1212V9.35167C13.5 9.9212 12.9047 10.2962 12.368 10.1485C10.4953 9.63292 8.62266 10.111 6.75 10.5868C4.71328 11.1048 2.67656 11.6251 0.639844 10.8681C0.239062 10.7204 0 10.3126 0 9.87902ZM6.75 8.25011C5.71406 8.25011 4.875 7.2423 4.875 6.00011C4.875 4.75792 5.71406 3.75011 6.75 3.75011C7.78594 3.75011 8.625 4.75792 8.625 6.00011C8.625 7.2423 7.78594 8.25011 6.75 8.25011Z"
                fill="#B5B5B5"
              />
            </g>
            <defs>
              <clipPath id="clip0_833_349">
                <rect width="13.5" height="12" fill="white" />
              </clipPath>
            </defs>
          </svg>