<svg
            xmlns="http://www.w3.org/2000/svg"
            width="5"
            height="20"
            viewBox="0 0 5 20"
            fill="none"
          >
            <path
              d="M2.5 14.375C2.00272 14.375 1.52581 14.5725 1.17417 14.9242C0.822544 15.2758 0.625 15.7527 0.625 16.25C0.625 16.7473 0.822544 17.2242 1.17417 17.5758C1.52581 17.9275 2.00272 18.125 2.5 18.125C2.99728 18.125 3.47419 17.9275 3.82583 17.5758C4.17746 17.2242 4.375 16.7473 4.375 16.25C4.375 15.7527 4.17746 15.2758 3.82583 14.9242C3.47419 14.5725 2.99728 14.375 2.5 14.375ZM2.5 8.125C2.00272 8.125 1.52581 8.32254 1.17417 8.67417C0.822544 9.02581 0.625 9.50272 0.625 10C0.625 10.4973 0.822544 10.9742 1.17417 11.3258C1.52581 11.6775 2.00272 11.875 2.5 11.875C2.99728 11.875 3.47419 11.6775 3.82583 11.3258C4.17746 10.9742 4.375 10.4973 4.375 10C4.375 9.50272 4.17746 9.02581 3.82583 8.67417C3.47419 8.32254 2.99728 8.125 2.5 8.125ZM4.375 3.75C4.375 3.50377 4.3265 3.25995 4.23227 3.03247C4.13805 2.80498 3.99993 2.59828 3.82583 2.42417C3.65172 2.25006 3.44502 2.11195 3.21753 2.01773C2.99005 1.9235 2.74623 1.875 2.5 1.875C2.25377 1.875 2.00995 1.9235 1.78247 2.01773C1.55498 2.11195 1.34828 2.25006 1.17417 2.42417C1.00006 2.59828 0.861953 2.80498 0.767726 3.03247C0.673498 3.25995 0.625 3.50377 0.625 3.75C0.625 3.99623 0.673498 4.24005 0.767726 4.46753C0.861953 4.69502 1.00006 4.90172 1.17417 5.07583C1.34828 5.24994 1.55498 5.38805 1.78247 5.48227C2.00995 5.5765 2.25377 5.625 2.5 5.625C2.74623 5.625 2.99005 5.5765 3.21753 5.48227C3.44502 5.38805 3.65172 5.24994 3.82583 5.07583C3.99993 4.90172 4.13805 4.69502 4.23227 4.46753C4.3265 4.24005 4.375 3.99623 4.375 3.75Z"
              fill="#F2F2F2"
            />
          </svg>