<svg width="40" height="40" viewBox="0 0 40 40" fill="none" xmlns="http://www.w3.org/2000/svg">
<g clip-path="url(#clip0_829_105)">
<path d="M37.5 20C37.5 24.6413 35.6563 29.0925 32.3744 32.3744C29.0925 35.6563 24.6413 37.5 20 37.5C15.3587 37.5 10.9075 35.6563 7.62563 32.3744C4.34374 29.0925 2.5 24.6413 2.5 20C2.5 15.3587 4.34374 10.9075 7.62563 7.62563C10.9075 4.34374 15.3587 2.5 20 2.5C24.6413 2.5 29.0925 4.34374 32.3744 7.62563C35.6563 10.9075 37.5 15.3587 37.5 20ZM0 20C0 25.3043 2.10714 30.3914 5.85786 34.1421C9.60859 37.8929 14.6957 40 20 40C25.3043 40 30.3914 37.8929 34.1421 34.1421C37.8929 30.3914 40 25.3043 40 20C40 14.6957 37.8929 9.60859 34.1421 5.85786C30.3914 2.10714 25.3043 0 20 0C14.6957 0 9.60859 2.10714 5.85786 5.85786C2.10714 9.60859 0 14.6957 0 20ZM18.75 8.75V20C18.75 20.4141 18.9609 20.8047 19.3047 21.0391L26.8047 26.0391C27.3828 26.4219 28.1562 26.2656 28.5391 25.6953C28.9219 25.125 28.7656 24.3438 28.1953 23.9609L21.25 19.3281V8.75C21.25 8.0625 20.6875 7.5 20 7.5C19.3125 7.5 18.75 8.0625 18.75 8.75Z" fill="#FC0600"/>
</g>
<defs>
<clipPath id="clip0_829_105">
<rect width="40" height="40" fill="white"/>
</clipPath>
</defs>
</svg>
