<svg
            xmlns="http://www.w3.org/2000/svg"
            width="14"
            height="12"
            viewBox="0 0 14 12"
            fill="none"
          >
            <g clip-path="url(#clip0_833_335)">
              <path
                d="M6.82645 1.875C5.37109 1.875 4.17467 2.56875 3.25725 3.46172C2.39788 4.20078 1.80413 5.29688 1.50056 6C1.80413 6.70312 2.39788 7.69922 3.25502 8.53828C4.17466 9.43125 5.37109 10.125 6.82645 10.125C8.28181 10.125 9.47824 9.43125 10.3956 8.53828C11.255 7.69922 11.8488 6.70312 12.1523 6C11.8488 5.29688 11.255 4.20078 10.3979 3.46172C9.47824 2.56875 8.28181 1.875 6.82645 1.875ZM2.52734 2.63906C3.57868 1.6125 5.02288 0.75 6.82645 0.75C8.62002 0.75 10.0742 1.6125 11.1256 2.63906C12.1702 3.65859 12.8689 4.875 13.2014 5.71172C13.2751 5.89687 13.2751 6.10312 13.2014 6.28828C12.8689 7.125 12.1702 8.34375 11.1256 9.36094C10.0742 10.3875 8.62002 11.25 6.82645 11.25C5.02288 11.25 3.57868 10.3875 2.52734 9.36094C1.4827 8.34375 0.78404 7.125 0.453683 6.28828C0.380022 6.10312 0.380022 5.89687 0.453683 5.71172C0.78404 4.875 1.4827 3.65625 2.52734 2.63906ZM6.82645 7.875C7.81306 7.875 8.61216 7.03594 8.61216 6C8.61216 4.96406 7.81306 4.125 6.82645 4.125C6.81083 4.125 6.79743 4.125 6.78181 4.125C6.81083 4.24453 6.82645 4.37109 6.82645 4.5C6.82645 5.32734 6.18583 6 5.39788 6C5.27511 6 5.15458 5.98359 5.04074 5.95312C5.04074 5.96953 5.04074 5.98359 5.04074 6C5.04074 7.03594 5.83984 7.875 6.82645 7.875ZM6.82645 3C7.58421 3 8.31094 3.31607 8.84676 3.87868C9.38257 4.44129 9.68359 5.20435 9.68359 6C9.68359 6.79565 9.38257 7.55871 8.84676 8.12132C8.31094 8.68393 7.58421 9 6.82645 9C6.06869 9 5.34196 8.68393 4.80615 8.12132C4.27033 7.55871 3.96931 6.79565 3.96931 6C3.96931 5.20435 4.27033 4.44129 4.80615 3.87868C5.34196 3.31607 6.06869 3 6.82645 3Z"
                fill="#B5B5B5"
              />
            </g>
            <defs>
              <clipPath id="clip0_833_335">
                <rect
                  width="12.8571"
                  height="12"
                  fill="white"
                  transform="translate(0.398438)"
                />
              </clipPath>
            </defs>
          </svg>