<svg width="25" height="27" viewBox="0 0 25 27" fill="none" xmlns="http://www.w3.org/2000/svg">
<ellipse cx="14.014" cy="11.5775" rx="3.14659" ry="3.37366" transform="rotate(0.918186 14.014 11.5775)" fill="#E8E8E8"/>
<path d="M18.1869 0.950796C16.2241 1.05137 15.5009 1.23071 14.9854 1.76539C14.3621 2.37167 14.2587 3.00111 14.1337 6.63861C14.0133 9.98269 14.0598 11.2456 14.2929 10.8531C14.3888 10.6931 14.509 10.6804 14.8803 10.8184L15.3445 10.9873L16.8087 9.52862C17.6085 8.73424 19.7917 6.52394 21.6501 4.60174C24.9327 1.22039 25.0276 1.11913 24.6423 1.025C24.1109 0.884259 20.2031 0.836454 18.1869 0.950796Z" fill="#FF6600"/>
<path d="M1.25297 4.37049C1.45389 5.15146 1.92824 7.18438 2.32774 8.89313C3.0526 11.9426 3.06501 12.0015 3.65457 12.6713C4.07376 13.1476 4.42998 13.4028 4.86809 13.5272C5.75778 13.7909 5.85127 13.7778 7.74178 13.1918C8.69345 12.8987 10.2488 12.4102 11.214 12.1173C12.3805 11.7545 12.958 11.5144 12.9199 11.3963C12.8948 11.2932 12.9366 11.1764 13.0043 11.1188C13.085 11.076 13.1269 10.9593 13.0881 10.8853C13.0358 10.8112 13.0902 10.7534 13.1835 10.7548C13.3302 10.7572 3.01719 4.16396 1.39159 3.21331L0.902344 2.94141L1.25297 4.37049Z" fill="#FF6600"/>
<path d="M14.6981 12.8489C14.5637 12.92 14.4567 12.933 14.4577 12.8743C14.4586 12.8156 14.4047 12.8442 14.3363 12.9605C14.2539 13.1058 14.1602 13.1189 13.9491 12.9835C13.6979 12.8328 13.6575 12.8615 13.5972 13.286C13.5529 13.5496 13.474 14.3261 13.4229 15.015C13.3218 16.3195 13.1421 18.3858 12.8525 21.4631C12.5943 24.262 12.3958 26.6656 12.4088 26.6804C12.4218 26.6953 13.8425 25.4561 15.548 23.9131C18.1737 21.563 18.7161 21.0141 18.9655 20.4311C19.6437 18.9009 19.401 18.2367 17.0891 15.1617C16.0568 13.8099 15.1542 12.6947 15.0742 12.6934C14.9942 12.6921 14.8196 12.7627 14.6981 12.8489Z" fill="#FF6600"/>
<path d="M13.9877 13.1128C14.7611 13.1252 15.3991 12.4455 15.4128 11.5947C15.4264 10.7439 14.8105 10.0441 14.0371 10.0317C13.2637 10.0193 12.6257 10.699 12.612 11.5498C12.5984 12.4006 13.2143 13.1004 13.9877 13.1128Z" fill="#1F1F1F"/>
</svg>
